<?xml version="1.0" encoding="utf-8"?>
<!-- Generator: Adobe Illustrator 27.2.0, SVG Export Plug-In . SVG Version: 6.00 Build 0)  -->
<svg version="1.1" id="Layer_1" xmlns="http://www.w3.org/2000/svg" xmlns:xlink="http://www.w3.org/1999/xlink" x="0px" y="0px"
	 viewBox="0 0 1848.69 2048" style="enable-background:new 0 0 1848.69 2048;" xml:space="preserve">
<style type="text/css">
	.st0{fill:#FFFFFF;}
	.st1{fill:url(#SVGID_1_);}
	.st2{fill:url(#SVGID_00000065793835989816760260000009001631378851046278_);}
	.st3{fill:url(#SVGID_00000133495240359945554290000001934144870586406795_);}
	.st4{fill:url(#SVGID_00000137843685319852801630000017777521605049331633_);}
	.st5{fill:url(#SVGID_00000126312884863863312000000017430409895644721027_);}
	.st6{fill:url(#SVGID_00000044149221261635830460000003844708434429724802_);}
	.st7{fill:url(#SVGID_00000173868689279448115160000014104142857372350142_);}
	.st8{fill:url(#SVGID_00000062191031768455928070000008586586388172611474_);}
	.st9{fill:url(#SVGID_00000140730045901796258200000010893121447284590267_);}
	.st10{fill:url(#SVGID_00000071529648352388343400000000259283165769851570_);}
	.st11{fill:url(#SVGID_00000065057403838398329410000006314619076721975723_);}
	.st12{fill:url(#SVGID_00000175304968115392367520000015373175885287058843_);}
	.st13{fill:url(#SVGID_00000129201272219600754220000008596488941182422958_);}
	.st14{fill:url(#SVGID_00000180332414099090221060000015234580118867475621_);}
	.st15{fill:url(#SVGID_00000066497391309548737540000006549252789220915122_);}
	.st16{fill:url(#SVGID_00000149374171613779528940000014749542605200875962_);}
	.st17{fill:url(#SVGID_00000136390233364781007500000012403329286339883424_);}
	.st18{fill:url(#SVGID_00000161629368088859016930000004533010195752445586_);}
	.st19{fill:url(#SVGID_00000120547225042844767580000008759952339095610553_);}
	.st20{fill:url(#SVGID_00000129915978799692811030000008314835460297150101_);}
	.st21{fill:url(#SVGID_00000014608224948944790780000013388272947769369472_);}
	.st22{fill:url(#SVGID_00000181074492191466326730000012794611910872741043_);}
	.st23{fill:url(#SVGID_00000057122645375231622140000000120420226477591427_);}
	.st24{fill:url(#SVGID_00000021804233127752954450000005280032715371367059_);}
	.st25{fill:url(#SVGID_00000157296508091963942960000013102230759570679981_);}
	.st26{fill:url(#SVGID_00000065035092636595793910000002570999940707932313_);}
	.st27{fill:url(#SVGID_00000090980539741448043000000010505957528016501146_);}
	.st28{fill:url(#SVGID_00000047057937289980417180000018246463736084681617_);}
	.st29{fill:url(#SVGID_00000109030494381599479410000000566663507232143778_);}
	.st30{fill:url(#SVGID_00000156552949917367441040000002477568162364684977_);}
	.st31{fill:#0080FF;}
	.st32{fill:url(#SVGID_00000070821797085002255290000002839833617663088295_);}
	.st33{fill:url(#SVGID_00000154405940126588579940000002296423158573563579_);}
	.st34{fill:url(#SVGID_00000152265232900518631170000009544871501161295538_);}
	.st35{fill:url(#SVGID_00000145742786939847283430000007647428712481050008_);}
	.st36{fill:url(#SVGID_00000016039008958158287510000007610921612048017323_);}
	.st37{fill:url(#SVGID_00000183952517513103681360000004019945428190179712_);}
</style>
<g>
	<path class="st0" d="M851.85,391.49l-0.01,387.69L427.79,534.34l-95.64-55.21C185.01,394.21,1.21,499.77,0.05,669.3l0-387.15
		C0.7,65.42,235.18-69.95,423.26,37.81l0.81,0.45l335.8,193.9C816.79,265.03,851.85,325.77,851.85,391.49z"/>
	
		<linearGradient id="SVGID_1_" gradientUnits="userSpaceOnUse" x1="-1782.387" y1="-3492.3674" x2="-1782.387" y2="-4122.6421" gradientTransform="matrix(0.866 -0.5 0.5 0.866 3746.5337 3140.4944)">
		<stop  offset="0" style="stop-color:#FFFFFF"/>
		<stop  offset="1" style="stop-color:#CCCCCC"/>
	</linearGradient>
	<path class="st1" d="M498.11,574.92c-31.6-17.08-70.29,5.8-70.34,41.96l-0.02,407.08L91.9,830.09C35.21,797.33,0.15,736.6,0,670.92
		c-0.03-0.53,0.15-1.17,0.11-1.7c1.12-169.39,184.97-275,332.1-190.1l95.46,55.21L498.11,574.92z"/>
	<path class="st0" d="M759.86,1815.86L424.1,2009.72C236.61,2117.96,2.35,1983.84,0.06,1768.08l-0.03-1.64l0.02-389.26
		c0-65.72,35.07-126.46,91.99-159.32L427.81,1024l0.02,600.09C427.83,1794.51,612.27,1901.07,759.86,1815.86z"/>
	
		<linearGradient id="SVGID_00000085950274402335016370000014116491631390124206_" gradientUnits="userSpaceOnUse" x1="-2145.8225" y1="-2889.5627" x2="-1703.4034" y2="-2889.5627" gradientTransform="matrix(0.866 -0.5 0.5 0.866 3746.5337 3140.4944)">
		<stop  offset="0" style="stop-color:#CCCCCC"/>
		<stop  offset="1" style="stop-color:#FFFFFF"/>
	</linearGradient>
	<path style="fill:url(#SVGID_00000085950274402335016370000014116491631390124206_);" d="M737.19,1334.97l103.55,179.35
		c60.95,105.57,24.78,240.59-80.79,301.54c-111.89,64.6-245.05,18.92-302.82-81.15c-18.47-31.99-29.27-69.51-29.3-110.53l0-110.6
		l0.08-81.29c0.68,36.02,40.07,58.12,71.45,39.99L737.19,1334.97z"/>
	<path class="st0" d="M1709.02,780.1l-337.31-194.7c147.45,85.29,147.32,298.14-0.13,383.27l-95.78,55.3l-309.27,178.65
		l103.51,179.29c60.95,105.56,195.93,141.73,301.49,80.78l335.84-193.9C1895.27,1160.31,1895.78,889.55,1709.02,780.1z"/>
	
		<linearGradient id="SVGID_00000154427607100009593500000012660478184094002072_" gradientUnits="userSpaceOnUse" x1="-1037.7224" y1="-3068.2993" x2="-1037.7224" y2="-3492.3674" gradientTransform="matrix(0.866 -0.5 0.5 0.866 3746.5337 3140.4944)">
		<stop  offset="0" style="stop-color:#CCCCCC"/>
		<stop  offset="1" style="stop-color:#FFFFFF"/>
	</linearGradient>
	<path style="fill:url(#SVGID_00000154427607100009593500000012660478184094002072_);" d="M1371.63,968.68l-167.32,96.6
		c31.79-18.36,31.68-64.21-0.11-82.55L851.86,779.1l335.66-193.79c56.86-32.83,127.18-32.93,183.98,0.03l0.12,0.2
		C1519.18,670.73,1518.99,883.6,1371.63,968.68z"/>
</g>
</svg>
