<?xml version="1.0" encoding="utf-8"?>
<!-- Generator: Adobe Illustrator 27.2.0, SVG Export Plug-In . SVG Version: 6.00 Build 0)  -->
<svg version="1.1" id="Layer_1" xmlns="http://www.w3.org/2000/svg" xmlns:xlink="http://www.w3.org/1999/xlink" x="0px" y="0px"
	 viewBox="0 0 1848.69 2048" style="enable-background:new 0 0 1848.69 2048;" xml:space="preserve">
<style type="text/css">
	.st0{fill:#FFFFFF;}
	.st1{fill:url(#SVGID_1_);}
	.st2{fill:url(#SVGID_00000090290520889823773200000005022397077610020517_);}
	.st3{fill:url(#SVGID_00000142168768284375083060000000537274033037919380_);}
	.st4{fill:url(#SVGID_00000044857724650731627810000012888787120781069227_);}
	.st5{fill:url(#SVGID_00000065785585941348788860000008612111124832908477_);}
	.st6{fill:url(#SVGID_00000111167429182654986730000001057365934391876489_);}
	.st7{fill:url(#SVGID_00000102523293767250912710000005466768675257718146_);}
	.st8{fill:url(#SVGID_00000147221261953271516230000003090117363805312661_);}
	.st9{fill:url(#SVGID_00000177456171929873909490000012538182641397288633_);}
	.st10{fill:url(#SVGID_00000069358025800801547620000004297675921616917431_);}
	.st11{fill:url(#SVGID_00000075856603623793912940000014512537452552820369_);}
	.st12{fill:url(#SVGID_00000015349031593023828180000013750613850022110118_);}
	.st13{fill:url(#SVGID_00000163770861143774978470000003812530161041533059_);}
	.st14{fill:url(#SVGID_00000124876225390525649700000008942668073820164775_);}
	.st15{fill:url(#SVGID_00000183956634866390119160000012003720747638856886_);}
	.st16{fill:url(#SVGID_00000097482769786021878820000012930759067620283792_);}
	.st17{fill:url(#SVGID_00000160890495947251783250000007820138023074315162_);}
	.st18{fill:url(#SVGID_00000067214248835972233370000012751209629421738384_);}
	.st19{fill:url(#SVGID_00000068661374251646424850000010971707749625540771_);}
	.st20{fill:url(#SVGID_00000065045651320485952890000012304164266118229428_);}
	.st21{fill:url(#SVGID_00000091722488703094862560000011325607272982873986_);}
	.st22{fill:url(#SVGID_00000099639532741874512090000004538416438325867428_);}
	.st23{fill:url(#SVGID_00000083811012251737486800000016432748040788741002_);}
	.st24{fill:url(#SVGID_00000049223875315322377390000006054096061494430390_);}
	.st25{fill:url(#SVGID_00000033358123565305308130000008947362620969777053_);}
	.st26{fill:url(#SVGID_00000030454155564690207010000015660348362485910153_);}
	.st27{fill:url(#SVGID_00000041268474624470513760000004272636809338832029_);}
	.st28{fill:url(#SVGID_00000085966995889173916760000008383945709010708670_);}
	.st29{fill:url(#SVGID_00000146496462482484164210000015433863366368673454_);}
	.st30{fill:url(#SVGID_00000132048121445975409720000004379553562019780763_);}
	.st31{fill:#0080FF;}
	.st32{fill:url(#SVGID_00000017477542386333035890000011203024183297455794_);}
	.st33{fill:url(#SVGID_00000116215991796518038010000000926133464783721384_);}
	.st34{fill:url(#SVGID_00000067195301914903646260000015862189296907031434_);}
	.st35{fill:url(#SVGID_00000116929679321262211520000013870131252699026618_);}
	.st36{fill:url(#SVGID_00000032616993973815291390000004202613024536388023_);}
	.st37{fill:url(#SVGID_00000008111835700836931440000005219731904949663662_);}
</style>
<g>
	<path class="st31" d="M851.85,391.49l-0.01,387.69L427.79,534.34l-95.64-55.21C185.01,394.21,1.21,499.77,0.05,669.3l0-387.15
		C0.7,65.42,235.18-69.95,423.26,37.81l0.81,0.45l335.8,193.9C816.79,265.03,851.85,325.77,851.85,391.49z"/>
	
		<linearGradient id="SVGID_1_" gradientUnits="userSpaceOnUse" x1="-556.8559" y1="-3163.9866" x2="-556.8559" y2="-3794.2617" gradientTransform="matrix(0.866 -0.5 0.5 0.866 2521.0017 3468.8748)">
		<stop  offset="0" style="stop-color:#3B60F6"/>
		<stop  offset="1" style="stop-color:#131590"/>
	</linearGradient>
	<path class="st1" d="M498.11,574.92c-31.6-17.08-70.29,5.8-70.34,41.96l-0.02,407.08L91.9,830.09C35.21,797.33,0.14,736.6,0,670.92
		c-0.03-0.53,0.15-1.17,0.11-1.7c1.12-169.39,184.97-275,332.1-190.1l95.46,55.21L498.11,574.92z"/>
	<path class="st31" d="M427.83,1624.09L427.81,1024L92.04,1217.85c-56.92,32.87-91.99,93.6-91.99,159.32l-0.02,389.27l0.03,1.64
		c2.3,215.77,236.55,349.88,424.04,241.64l335.77-193.85C612.27,1901.08,427.82,1794.51,427.83,1624.09z"/>
	
		<linearGradient id="SVGID_00000086661729311241184400000013353591478746953901_" gradientUnits="userSpaceOnUse" x1="-920.2917" y1="-2561.1812" x2="-477.8723" y2="-2561.1812" gradientTransform="matrix(0.866 -0.5 0.5 0.866 2521.0017 3468.8748)">
		<stop  offset="0" style="stop-color:#131590"/>
		<stop  offset="1" style="stop-color:#3B60F6"/>
	</linearGradient>
	<path style="fill:url(#SVGID_00000086661729311241184400000013353591478746953901_);" d="M737.19,1334.97l103.55,179.35
		c60.95,105.57,24.78,240.59-80.79,301.54c-111.89,64.6-245.05,18.92-302.82-81.15c-18.47-31.99-29.27-69.51-29.3-110.53l0-110.6
		l0.08-81.29c0.68,36.02,40.07,58.12,71.45,39.99L737.19,1334.97z"/>
	<path class="st31" d="M1707.38,1268.8l-335.84,193.9c-105.56,60.95-240.55,24.78-301.49-80.78l-103.51-179.29l309.27-178.65
		l95.78-55.3c147.45-85.13,147.58-297.98,0.13-383.27l337.31,194.7C1895.78,889.55,1895.27,1160.31,1707.38,1268.8z"/>
	
		<linearGradient id="SVGID_00000147204638851949293310000014161599636154285740_" gradientUnits="userSpaceOnUse" x1="187.8093" y1="-2739.918" x2="187.8093" y2="-3163.9866" gradientTransform="matrix(0.866 -0.5 0.5 0.866 2521.0017 3468.8748)">
		<stop  offset="0" style="stop-color:#131590"/>
		<stop  offset="1" style="stop-color:#3B60F6"/>
	</linearGradient>
	<path style="fill:url(#SVGID_00000147204638851949293310000014161599636154285740_);" d="M1371.63,968.68l-167.32,96.6
		c31.79-18.36,31.68-64.21-0.11-82.55L851.86,779.1l335.66-193.79c56.86-32.83,127.18-32.93,183.98,0.03l0.12,0.2
		C1519.18,670.73,1518.99,883.6,1371.63,968.68z"/>
</g>
</svg>
