<?xml version="1.0" encoding="UTF-8"?>
<svg id="Layer_2" data-name="Layer 2" xmlns="http://www.w3.org/2000/svg" viewBox="0 0 255.98 56.51">
  <defs>
    <style>
      .cls-1 {
        fill: #2089e2;
      }

      .cls-2 {
        fill: #036;
      }
    </style>
  </defs>
  <g id="Layer_1-2" data-name="Layer 1">
    <g id="Wistia">
      <path class="cls-2" d="m110.75,42.76h.06v-12.85c-.16-7.47-6.26-13.45-13.74-13.46h-6.88c-7.35.19-13.25,6.11-13.41,13.46h0v12.85c0,7.46,5.96,13.56,13.42,13.75h6.88c7.56-.04,13.67-6.19,13.68-13.75m-27.62,0h0v-12.57c0-4.08,3.31-7.38,7.39-7.39h6.55c4.08,0,7.38,3.31,7.39,7.39v12.57h-.07c0,4.08-3.3,7.39-7.38,7.4h-6.49c-4.08-.01-7.38-3.32-7.39-7.4"/>
      <path class="cls-2" d="m194.48,55.67h0v-19.55h3.85l16.69,20c.2.22.47.35.76.38h6.59c.36,0,1.17-.13.74-.84h0l-19.53-23.3,18.3-15.11h0c.44-.71-.36-.83-.73-.85h-7.48c-.26.02-.51.14-.68.33l-15.1,12.72h-3.41V.84c0-.46-.37-.83-.83-.84h-4.65c-.46,0-.83.38-.83.84v54.83c0,.43.33.79.76.84h4.84c.43-.05.75-.41.75-.84"/>
      <path class="cls-1" d="m4.33,8.68c2.4,0,4.34-1.93,4.35-4.33S6.75,0,4.35,0,0,1.93,0,4.33h0c0,2.4,1.95,4.34,4.34,4.35"/>
      <path class="cls-2" d="m125.77,55.67h0c0,.43-.32.79-.75.84h-4.85c-.43-.05-.75-.41-.75-.84h0V.84h0c0-.46.37-.83.83-.84h4.69c.46,0,.83.38.83.84v54.83Z"/>
      <path class="cls-2" d="m61,21.85v33.91c-.03.41-.37.73-.78.75h-4.52c-.44-.01-.78-.36-.79-.8h0V12.61C55.25,5.56,61.06,0,68.12,0h3.52c.44,0,.79.34.81.78v4.53c0,.42-.35.76-.77.77h-3.56c-3.92,0-7.1,3.17-7.12,7.09v8.68Z"/>
      <path class="cls-2" d="m33.54,16.45h-4.54c-7.06.02-12.78,5.74-12.8,12.8v14.26c0,.09,0,.17,0,.26v2.13c-.01,2.33-1.88,4.22-4.2,4.26h-.19c-2.35-.01-4.24-1.91-4.25-4.26v-9.45h0v-19.15h0c0-.46-.36-.83-.82-.85H2c-.44.02-.8.38-.82.82v19.18h0v9.57c.02,5.78,4.7,10.45,10.48,10.47h.47c5.77-.02,10.45-4.7,10.46-10.47v-16c.06-4.06,3.35-7.32,7.41-7.34h2.6c4.06.03,7.36,3.31,7.4,7.37v25.6h0c0,.46.35.83.81.85h4.72c.44-.01.8-.37.82-.81v-26.45c-.03-7.06-5.75-12.77-12.81-12.79"/>
      <path class="cls-1" d="m137.59,8.68c2.4,0,4.34-1.94,4.34-4.34S139.99,0,137.59,0s-4.34,1.94-4.34,4.34h0c0,2.4,1.94,4.34,4.34,4.34"/>
      <path class="cls-2" d="m166.8,16.45h-4.54c-7.06.02-12.77,5.74-12.79,12.8v16.65c0,2.35-1.9,4.25-4.25,4.26h-.22c-2.35-.01-4.25-1.91-4.26-4.26v-9.45h0v-19.21h0c0-.47-.36-.85-.83-.86h-4.71c-.44.02-.8.38-.82.82v19.25h0v9.57c.02,5.77,4.7,10.45,10.47,10.47h.47c5.78-.02,10.46-4.69,10.48-10.47v-16c.03-4.06,3.33-7.35,7.39-7.37h2.62c4.06.03,7.36,3.31,7.4,7.37v25.6h0c0,.46.36.83.82.85h4.72c.44-.01.8-.37.81-.81v-26.42c-.03-7.04-5.72-12.75-12.76-12.79"/>
      <path class="cls-2" d="m244.92,33.27h-10.35c-2.91,0-5.27-2.36-5.27-5.27s2.36-5.27,5.27-5.27h16.12c.47-.01.85-.4.85-.87v-4.63c0-.47-.37-.85-.84-.86,0,0,0,0-.01,0h-16.12c-6.42.19-11.47,5.55-11.28,11.97.18,6.16,5.13,11.1,11.28,11.28h9.95c2.91,0,5.27,2.36,5.27,5.27s-2.36,5.27-5.27,5.27h-16.24c-.46,0-.83.37-.85.83v4.69c0,.45.36.81.81.83h16.49c6.42-.21,11.45-5.58,11.25-12-.2-6.05-5.01-10.94-11.06-11.24"/>
      <path class="cls-2" d="m59.76,22.73h11.86c.46,0,.83-.35.86-.81v-4.73c-.02-.44-.37-.79-.81-.82h-11.48"/>
    </g>
  </g>
</svg>