<svg version="1.2" xmlns="http://www.w3.org/2000/svg" viewBox="0 0 1569 1549" width="1569" height="1549">
	<title>Outbrain_logo-svg</title>
	<style>
		.s0 { fill: #ee6513 } 
	</style>
	<g id="Layer">
		<g id="Layer">
			<g id="Layer">
				<g id="Layer">
					<path id="Layer" fill-rule="evenodd" class="s0" d="m1568.8 774.5c0 110.1-20 212.1-59.9 306.4-40.1 94.4-95.3 176-166.1 245.4-70.7 69.3-153.5 123.5-248.4 162.8-95.1 39.3-198.2 58.9-309.6 58.9-111.4 0-214.6-19.6-309.6-58.9-95-39.3-177.9-93.5-248.5-162.8-70.7-69.4-126.1-151-166-245.4-40.1-94.3-60-196.3-60-306.4 0-109.9 19.9-212.1 60-306.4 39.9-94.3 95.3-176 166-245.3 70.6-69.4 153.5-123.6 248.5-162.8 95-39.4 198.2-59 309.6-59 111.4 0 214.5 19.6 309.6 59 94.9 39.2 177.7 93.4 248.4 162.8 70.8 69.3 126 151 166.1 245.3 39.9 94.3 59.9 196.5 59.9 306.4zm-886.2 108.6c-5.6-13.3-13.4-24.8-23.5-34.6-10.1-9.8-21.7-17.5-35.1-23-13.5-5.5-28-8.3-43.7-8.3-15.8 0-30.4 2.8-43.8 8.3-13.4 5.5-25.1 13.2-35.1 23-10.1 9.8-17.9 21.3-23.4 34.6-5.7 13.4-8.5 27.9-8.5 43.3 0 15.6 2.8 30 8.5 43.4 5.5 13.2 13.3 24.7 23.4 34.6 10 9.9 21.7 17.5 35.1 23 13.4 5.6 28 8.4 43.8 8.4 15.7 0 30.2-2.8 43.7-8.4 13.4-5.5 25-13.1 35.1-23 10.1-9.9 17.9-21.4 23.5-34.6 5.6-13.4 8.4-27.8 8.4-43.4 0-15.4-2.8-29.9-8.4-43.3zm409 0c-5.6-13.3-13.4-24.8-23.4-34.6-10-9.8-21.8-17.5-35.2-23q-20-8.3-43.7-8.3c-15.7 0-30.3 2.8-43.7 8.3-13.5 5.5-25.2 13.2-35.1 23-10 9.8-17.8 21.3-23.5 34.6-5.7 13.4-8.5 27.9-8.5 43.3 0 15.6 2.8 30 8.5 43.4 5.7 13.2 13.5 24.7 23.5 34.6 9.9 9.9 21.6 17.5 35.1 23 13.4 5.6 28 8.4 43.7 8.4q23.7 0 43.7-8.4c13.4-5.5 25.2-13.1 35.2-23 10-9.9 17.8-21.4 23.4-34.6 5.7-13.4 8.5-27.8 8.5-43.4 0-15.4-2.8-29.9-8.5-43.3zm-781.2-151.8c-16.8 39.5-28.1 81.1-34.1 124.6h130.8c0.4-0.8 0.6-1.6 0.9-2.3 9.5-22.5 22.7-41.9 39.5-58.4 16.8-16.5 36.5-29.4 59.1-38.8 22.6-9.3 47.2-13.9 73.7-13.9 26.5 0 50.9 4.6 73.6 13.9 22.6 9.4 42.4 22.3 59.1 38.8 16.8 16.5 30.1 35.9 39.5 58.4 3.1 7.1 5.6 14.3 7.6 21.7h49.4c2.1-7.4 4.6-14.6 7.6-21.7 9.5-22.5 22.6-41.9 39.5-58.4 16.7-16.5 36.5-29.4 59.1-38.8 22.6-9.3 47.1-13.9 73.6-13.9 26.5 0 51.1 4.6 73.6 13.9 22.6 9.4 42.4 22.3 59.2 38.8 16.8 16.5 30 35.9 39.5 58.4l0.9 2.3h130.8c-6-43.5-17.4-85.1-34.1-124.6-4.2-10-9.1-19.4-13.9-28.8-95.1-34.4-197.4-68.1-197.4-68.1-185-63.2-238.7-159.1-238.7-159.1 0 0-34.1 95.9-289.1 177 0 0-115.9 36.7-203.2 65.5-2.1 4.6-4.5 8.9-6.5 13.5zm948.8 401.5c25.3-59.7 38.4-124.2 39.1-193.4h-122.8c-1.4 21.3-6 41.2-13.9 59.9-9.5 22.5-22.7 42-39.5 58.4-16.8 16.5-36.6 29.5-59.2 38.7-22.5 9.4-47.1 14.1-73.6 14.1-26.5 0-51-4.7-73.6-14.1-22.6-9.2-42.4-22.2-59.1-38.7-16.9-16.4-30-35.9-39.5-58.4-6.4-14.8-10.5-30.5-12.6-46.9h-39.4c-2.1 16.4-6.3 32.1-12.6 46.9-9.4 22.5-22.7 42-39.5 58.4-16.7 16.5-36.5 29.5-59.1 38.7-22.7 9.4-47.1 14.1-73.6 14.1-26.5 0-51.1-4.7-73.7-14.1-22.6-9.2-42.3-22.2-59.1-38.7-16.8-16.4-30-35.9-39.5-58.4-7.9-18.7-12.5-38.6-13.8-59.9h-123.1c1 69.2 14 133.7 39.3 193.4 26.1 61.8 62.4 115.4 108.7 160.7 46.3 45.5 100.6 81 162.9 106.9 62.2 25.6 129.8 38.5 202.8 38.5 72.9 0 140.6-12.9 202.8-38.5 62.3-25.9 116.5-61.4 162.8-106.9 46.3-45.3 82.6-98.9 108.8-160.7z"/>
				</g>
			</g>
		</g>
	</g>
</svg>