<svg xmlns="http://www.w3.org/2000/svg" width="512" height="512" viewBox="0 0 512 512" version="1.1"><path id="svg_1" fill-rule="evenodd" fill="#040404" d="m27,64.816c0,0.862 124.522,230.039 125.547,231.064c0.561,0.561 13.883,-7.489 15.381,-9.293c1.366,-1.647 -4.368,-22.003 -36.081,-128.087c-22.8,-76.27 -24.772,-82.266 -27.249,-82.879c-1.154,-0.286 -17.398,-2.795 -36.098,-5.576c-18.7,-2.781 -35.687,-5.319 -37.75,-5.639c-2.204,-0.342 -3.75,-0.173 -3.75,0.41m237,231.633l0,9.474l5.25,1.568c9.604,2.869 114.886,32.351 138.75,38.854c16.232,4.423 23.698,6.056 24.14,5.279c0.352,-0.618 2.729,-11.024 5.282,-23.124c2.553,-12.1 4.811,-22.788 5.017,-23.75c0.205,-0.962 0.014,-1.75 -0.427,-1.75c-0.44,0 -5.235,-0.446 -10.656,-0.991c-5.421,-0.544 -43.606,-3.907 -84.856,-7.473c-41.25,-3.566 -76.687,-6.725 -78.75,-7.021l-3.75,-0.539l0,9.473m-68.811,94.301c-3.479,5.15 -24.002,36.504 -43.829,66.963l-7.3,11.213l18.22,14.331c24.851,19.546 34.782,27.014 35.271,26.525c1.43,-1.429 17.992,-113.925 17.111,-116.22c-0.468,-1.221 -13.416,-8.562 -15.1,-8.562c-0.268,0 -2.236,2.587 -4.373,5.75"/>
  <path id="svg_2" fill-rule="evenodd" fill="#0cb384" d="m106.424,2.602c0.394,1.594 16.626,57.123 36.072,123.398c19.445,66.275 38.371,130.822 42.057,143.437c4.26,14.583 6.382,23.404 5.824,24.22c-0.482,0.706 -40.386,26.913 -88.675,58.238c-48.29,31.326 -87.774,57.327 -87.744,57.78c0.062,0.943 -0.69,0.012 44.565,55.197l33.927,41.372l3.361,-3.872c3.416,-3.935 17.316,-24.654 68.527,-102.148l28.6,-43.276l5.281,2.916c2.904,1.604 36.556,19.81 74.781,40.458c38.225,20.648 96.5,52.182 129.5,70.075l60,32.533l17.764,-53.215c9.77,-29.268 17.645,-53.848 17.5,-54.623c-0.162,-0.861 -4.726,-2.718 -11.764,-4.786c-6.325,-1.858 -62.8,-18.356 -125.5,-36.661l-114,-33.282l-0.723,-3.431c-0.397,-1.888 -2.782,-63.732 -5.298,-137.432c-2.517,-73.7 -4.847,-139.908 -5.177,-147.128l-0.6,-13.128l-7.101,-1.174c-10.768,-1.781 -110.332,-16.888 -116.497,-17.676l-5.395,-0.69l0.715,2.898m49.326,508.148"/></svg>