<svg xmlns="http://www.w3.org/2000/svg" class="icon fadeUp delay-3" x="0px" y="0px" viewBox="0 0 205 165" style="enable-background:new 0 0 205 165;" xml:space="preserve"><style type="text/css">
                                        .st13{fill:#004A7A;}
                                    </style><g><g><g><path class="st13" d="M56.46,31.88C42.36,31.8,40.4,45.51,40.34,55.84c-0.06,10.34,1.74,24.26,15.83,24.35
				c14.09,0.08,16.06-13.81,16.12-24.16C72.36,45.69,70.56,31.96,56.46,31.88 M56.02,107.25C19.37,107.04,2.97,82.69,3.13,55.63
				C3.29,28.56,19.96,4.6,56.62,4.82c36.65,0.2,53.05,24.35,52.89,51.42C109.35,83.31,92.67,107.46,56.02,107.25"></path><path class="st13" d="M148.81,31.88c-14.09-0.09-16.05,13.63-16.11,23.97c-0.07,10.34,1.73,24.25,15.83,24.34
				c14.08,0.08,16.05-13.81,16.11-24.15C164.71,45.69,162.91,31.96,148.81,31.88 M148.37,107.25
				c-36.64-0.22-53.04-24.57-52.88-51.63c0.15-27.06,16.83-51.02,53.48-50.8c36.65,0.21,53.05,24.36,52.9,51.42
				C201.7,83.31,185.02,107.46,148.37,107.25"></path><path class="st13" d="M17.09,107.25c26.42,11.8,53.84,17.05,83.72,17.22c31.38,0.19,55.18-5.74,85.31-17.22l-0.18,32.51
				c-26.97,13.37-56.21,20.58-85.35,20.42c-31.76-0.19-54.65-6.71-83.7-20.42L17.09,107.25z M17.09,107.25"></path></g></g></g></svg>