<?xml version="1.0" encoding="utf-8"?>
<!-- Generator: Adobe Illustrator 27.2.0, SVG Export Plug-In . SVG Version: 6.00 Build 0)  -->
<svg version="1.1" id="Layer_1" xmlns="http://www.w3.org/2000/svg" xmlns:xlink="http://www.w3.org/1999/xlink" x="0px" y="0px"
	 viewBox="0 0 512 512" style="enable-background:new 0 0 512 512;" xml:space="preserve">
<style type="text/css">
	.st0{fill:#FFFFFF;}
	.st1{fill:#0080FF;}
	.st2{fill:none;stroke:#D1D3D4;stroke-width:3.5181;stroke-linecap:round;stroke-miterlimit:10;}
	.st3{fill:url(#SVGID_1_);}
	.st4{fill:#D1D3D4;}
	.st5{fill:url(#SVGID_00000089565025691907620400000013153717111576082082_);}
	.st6{fill:url(#SVGID_00000029756367284876581650000009779793304490322600_);}
	.st7{fill:url(#SVGID_00000143580882456085901790000000341669796358763161_);}
	.st8{fill:url(#SVGID_00000004507251615151205100000012037629473792350881_);}
	.st9{fill:url(#SVGID_00000103977081959662360470000018379247070623163823_);}
	.st10{fill:url(#SVGID_00000052803150990169721250000007693966056485477003_);}
	.st11{fill:url(#SVGID_00000162324606170403341520000011244498850009585042_);}
	.st12{fill:url(#SVGID_00000139978697007710898440000013340658692317445278_);}
	.st13{fill:url(#SVGID_00000170972501428149767980000018396585736416397988_);}
	.st14{fill:url(#SVGID_00000037688794462574251610000005286714900125031062_);}
	.st15{fill:url(#SVGID_00000009587119516186734820000004319607237910869389_);}
	.st16{fill:url(#SVGID_00000065068355221298348540000000471887096000237982_);}
	.st17{fill:url(#SVGID_00000158743602453080275560000000436887823003124897_);}
	.st18{fill:url(#SVGID_00000173135762198421602730000017942235566043387287_);}
	.st19{fill:url(#SVGID_00000139276867284860238160000005336920082994984068_);}
	.st20{fill:url(#SVGID_00000144324393237233555410000012823267582196698526_);}
	.st21{fill:url(#SVGID_00000008124342661113034900000004135918699717362590_);}
	.st22{fill:url(#SVGID_00000073698889463826425080000016405803964733339525_);}
	.st23{fill:url(#SVGID_00000108989573153455355590000017757566605519786170_);}
	.st24{fill:url(#SVGID_00000134965088787734545560000006979181578165983635_);}
	.st25{fill:url(#SVGID_00000169529465158367207760000008390318322273102255_);}
	.st26{fill:url(#SVGID_00000045603083359554175080000010097016299324287372_);}
	.st27{fill:url(#SVGID_00000127736261727778809500000011422997516819244441_);}
	.st28{fill:url(#SVGID_00000055693523258365056060000003603403340248564644_);}
	.st29{fill:url(#SVGID_00000121980190192136113080000001757790656614702720_);}
	.st30{fill:url(#SVGID_00000082329409529029782460000002365942315545581442_);}
	.st31{fill:url(#SVGID_00000028292723419721172960000006887341416608337822_);}
	.st32{fill:url(#SVGID_00000138555634549401403880000002380627219958820281_);}
	.st33{fill:url(#SVGID_00000084527585116999341590000007974135541332297131_);}
	.st34{fill:url(#SVGID_00000155120623547801462110000013713245974310612620_);}
	.st35{fill:url(#SVGID_00000078755254813591477840000012430957319451572115_);}
	.st36{fill:url(#SVGID_00000091702643676986057220000004126902947000419730_);}
</style>
<g>
	<path class="st0" d="M479.11,512H32.89C14.73,512,0,497.27,0,479.11V32.89C0,14.73,14.73,0,32.89,0h446.21
		C497.27,0,512,14.73,512,32.89v446.21C512,497.27,497.27,512,479.11,512z"/>
	<linearGradient id="SVGID_1_" gradientUnits="userSpaceOnUse" x1="49.6698" y1="289.627" x2="462.3301" y2="289.627">
		<stop  offset="0" style="stop-color:#131590"/>
		<stop  offset="1" style="stop-color:#3B60F6"/>
	</linearGradient>
	<path class="st3" d="M452.73,388.91H59.27c-5.3,0-9.6-4.3-9.6-9.6V199.94c0-5.3,4.3-9.6,9.6-9.6h393.47c5.3,0,9.6,4.3,9.6,9.6
		v179.38C462.33,384.62,458.03,388.91,452.73,388.91z"/>
	<g>
		<g>
			<g>
				<path class="st0" d="M208.08,292.86c-1.79,0-3.24-1.45-3.24-3.24c0-28.2,22.95-51.15,51.17-51.15
					c14.13,0,27.76,5.93,37.41,16.28c1.22,1.31,1.14,3.35-0.16,4.57c-1.3,1.22-3.35,1.15-4.57-0.16
					c-8.55-9.17-20.15-14.22-32.68-14.22c-24.64,0-44.69,20.04-44.69,44.68C211.32,291.41,209.87,292.86,208.08,292.86z"/>
			</g>
			<g>
				<g>
					<polygon class="st0" points="256.62,263.71 256.4,257.24 288.29,256.2 284.92,224.47 291.36,223.8 295.45,262.44 					"/>
				</g>
			</g>
		</g>
		<g>
			<g>
				<path class="st0" d="M256.01,340.77c-14.14,0-27.78-5.93-37.43-16.28c-1.22-1.31-1.15-3.35,0.16-4.57
					c1.31-1.22,3.36-1.15,4.57,0.16c8.43,9.04,20.35,14.22,32.7,14.22c24.63,0,44.67-20.04,44.67-44.67c0-1.79,1.45-3.24,3.24-3.24
					c1.79,0,3.24,1.45,3.24,3.24C307.16,317.83,284.21,340.77,256.01,340.77z"/>
			</g>
			<g>
				<g>
					<polygon class="st0" points="255.38,315.53 255.6,322 223.71,323.05 227.09,354.78 220.65,355.46 216.55,316.81 					"/>
				</g>
			</g>
		</g>
	</g>
	<path class="st1" d="M325.12,68.86H59.27c-5.3,0-9.6-4.3-9.6-9.6v0c0-5.3,4.3-9.6,9.6-9.6h265.85c5.3,0,9.6,4.3,9.6,9.6v0
		C334.72,64.57,330.42,68.86,325.12,68.86z"/>
	<path class="st1" d="M452.73,68.86L452.73,68.86c-5.3,0-9.6-4.3-9.6-9.6v0c0-5.3,4.3-9.6,9.6-9.6h0c5.3,0,9.6,4.3,9.6,9.6v0
		C462.33,64.57,458.03,68.86,452.73,68.86z"/>
	<line class="st2" x1="49.67" y1="100.75" x2="462.33" y2="100.75"/>
	<path class="st4" d="M452.73,168.66H59.27c-5.3,0-9.6-4.3-9.6-9.6v-32.54c0-5.3,4.3-9.6,9.6-9.6h393.47c5.3,0,9.6,4.3,9.6,9.6
		v32.54C462.33,164.36,458.03,168.66,452.73,168.66z"/>
	<path class="st4" d="M452.73,462.33H59.27c-5.3,0-9.6-4.3-9.6-9.6v-32.54c0-5.3,4.3-9.6,9.6-9.6h393.47c5.3,0,9.6,4.3,9.6,9.6
		v32.54C462.33,458.03,458.03,462.33,452.73,462.33z"/>
</g>
</svg>
