<?xml version="1.0" encoding="utf-8"?>
<!-- Generator: Adobe Illustrator 27.2.0, SVG Export Plug-In . SVG Version: 6.00 Build 0)  -->
<svg version="1.1" id="Layer_1" xmlns="http://www.w3.org/2000/svg" xmlns:xlink="http://www.w3.org/1999/xlink" x="0px" y="0px"
	 viewBox="0 0 512 512" style="enable-background:new 0 0 512 512;" xml:space="preserve">
<style type="text/css">
	.st0{fill:#FFFFFF;}
	.st1{fill:#0080FF;}
	.st2{fill:none;stroke:#D1D3D4;stroke-width:3.5181;stroke-linecap:round;stroke-miterlimit:10;}
	.st3{fill:url(#SVGID_1_);}
	.st4{fill:#D1D3D4;}
	.st5{fill:url(#SVGID_00000176755799948654277930000003016695108341552519_);}
	.st6{fill:url(#SVGID_00000054975988402446460420000011164834464367013255_);}
	.st7{fill:url(#SVGID_00000089562223111444567870000010969995161532813736_);}
	.st8{fill:url(#SVGID_00000057136460400086391370000017822968400940418487_);}
	.st9{fill:url(#SVGID_00000010999509235714201980000017805018961955884459_);}
	.st10{fill:url(#SVGID_00000019647903314244600300000007188956460576934073_);}
	.st11{fill:url(#SVGID_00000044154048000874680510000017619420278878769300_);}
	.st12{fill:url(#SVGID_00000165227046344507100450000006010534931714168754_);}
	.st13{fill:url(#SVGID_00000125589312677648946590000008659133108791553428_);}
	.st14{fill:url(#SVGID_00000013915221564321684710000008193527215413783218_);}
	.st15{fill:url(#SVGID_00000039825764320031203370000015296596154790895019_);}
	.st16{fill:url(#SVGID_00000100342625348951523390000017829381027336494270_);}
	.st17{fill:url(#SVGID_00000129928073791598926580000009657437786490547339_);}
	.st18{fill:url(#SVGID_00000054965625522839095060000005262014141756889503_);}
	.st19{fill:url(#SVGID_00000116212254745641951030000008688108078820130441_);}
	.st20{fill:url(#SVGID_00000172427799377985198470000003632176021980178602_);}
	.st21{fill:url(#SVGID_00000096758633511491727720000016322998059399729590_);}
	.st22{fill:url(#SVGID_00000168803922285559709050000007895681335076866180_);}
	.st23{fill:url(#SVGID_00000111887365184151824300000008296226501061590961_);}
	.st24{fill:url(#SVGID_00000127028899364253981200000010773472976216717971_);}
	.st25{fill:url(#SVGID_00000030455828569894968390000002633244698887244934_);}
	.st26{fill:url(#SVGID_00000119818138713089663210000015143779211082459829_);}
	.st27{fill:url(#SVGID_00000044177168147251728020000008388066867542714765_);}
	.st28{fill:url(#SVGID_00000039836892036538730090000014748255615290723718_);}
	.st29{fill:url(#SVGID_00000174600243583668539950000015017427822945071551_);}
	.st30{fill:url(#SVGID_00000096040888526455087380000012908808424120865933_);}
	.st31{fill:url(#SVGID_00000127018305579829661330000005097229185314795922_);}
	.st32{fill:url(#SVGID_00000180352055763008673820000015861029348667838907_);}
	.st33{fill:url(#SVGID_00000050627475175106513870000000431378517789214351_);}
	.st34{fill:url(#SVGID_00000018216282993281231470000012903983672092157093_);}
	.st35{fill:url(#SVGID_00000174589358379415565610000009528078187364609937_);}
	.st36{fill:url(#SVGID_00000142874994829842783260000011288878736498843824_);}
</style>
<g>
	<path class="st0" d="M479.11,512H32.89C14.73,512,0,497.27,0,479.11V32.89C0,14.73,14.73,0,32.89,0h446.21
		C497.27,0,512,14.73,512,32.89v446.21C512,497.27,497.27,512,479.11,512z"/>
	<path class="st1" d="M325.12,68.86H59.27c-5.3,0-9.6-4.3-9.6-9.6v0c0-5.3,4.3-9.6,9.6-9.6h265.85c5.3,0,9.6,4.3,9.6,9.6v0
		C334.72,64.57,330.42,68.86,325.12,68.86z"/>
	<path class="st1" d="M452.73,68.86L452.73,68.86c-5.3,0-9.6-4.3-9.6-9.6v0c0-5.3,4.3-9.6,9.6-9.6h0c5.3,0,9.6,4.3,9.6,9.6v0
		C462.33,64.57,458.03,68.86,452.73,68.86z"/>
	<line class="st2" x1="49.67" y1="100.75" x2="462.33" y2="100.75"/>
	<path class="st4" d="M452.73,168.66H59.27c-5.3,0-9.6-4.3-9.6-9.6v-32.54c0-5.3,4.3-9.6,9.6-9.6h393.47c5.3,0,9.6,4.3,9.6,9.6
		v32.54C462.33,164.36,458.03,168.66,452.73,168.66z"/>
	<linearGradient id="SVGID_1_" gradientUnits="userSpaceOnUse" x1="49.6698" y1="363.0449" x2="462.3301" y2="363.0449">
		<stop  offset="0" style="stop-color:#131590"/>
		<stop  offset="1" style="stop-color:#3B60F6"/>
	</linearGradient>
	<path class="st3" d="M452.73,388.91H59.27c-5.3,0-9.6-4.3-9.6-9.6v-32.54c0-5.3,4.3-9.6,9.6-9.6h393.47c5.3,0,9.6,4.3,9.6,9.6
		v32.54C462.33,384.62,458.03,388.91,452.73,388.91z"/>
	<path class="st4" d="M452.73,462.33H59.27c-5.3,0-9.6-4.3-9.6-9.6v-32.54c0-5.3,4.3-9.6,9.6-9.6h393.47c5.3,0,9.6,4.3,9.6,9.6
		v32.54C462.33,458.03,458.03,462.33,452.73,462.33z"/>
	<g>
		<path class="st4" d="M358.21,315.49H153.79c-5.3,0-9.6-4.3-9.6-9.6V199.94c0-5.3,4.3-9.6,9.6-9.6h204.42c5.3,0,9.6,4.3,9.6,9.6
			V305.9C367.81,311.2,363.51,315.49,358.21,315.49z"/>
		
			<linearGradient id="SVGID_00000010275037206644481640000007071091322705522623_" gradientUnits="userSpaceOnUse" x1="245.3299" y1="305.1632" x2="245.3299" y2="221.0027">
			<stop  offset="0" style="stop-color:#FFFFFF;stop-opacity:0"/>
			<stop  offset="0.8603" style="stop-color:#FFFFFF"/>
		</linearGradient>
		<path style="fill:url(#SVGID_00000010275037206644481640000007071091322705522623_);" d="M178.59,305.16
			c0,0,11.03-82.98,34.82-84.14s29.51,61.27,43.52,62.09c9.87,0.58,35.98-54.55,55.13,22.05H178.59z"/>
		
			<linearGradient id="SVGID_00000023256687242700061270000012655802025647617446_" gradientUnits="userSpaceOnUse" x1="329.5769" y1="245.5712" x2="329.5769" y2="210.5479">
			<stop  offset="0" style="stop-color:#FFFFFF;stop-opacity:0"/>
			<stop  offset="0.8603" style="stop-color:#FFFFFF"/>
		</linearGradient>
		<circle style="fill:url(#SVGID_00000023256687242700061270000012655802025647617446_);" cx="329.58" cy="228.06" r="17.51"/>
	</g>
</g>
</svg>
