<?xml version="1.0" encoding="utf-8"?>
<!-- Generator: Adobe Illustrator 27.2.0, SVG Export Plug-In . SVG Version: 6.00 Build 0)  -->
<svg version="1.1" id="Layer_1" xmlns="http://www.w3.org/2000/svg" xmlns:xlink="http://www.w3.org/1999/xlink" x="0px" y="0px"
	 viewBox="0 0 512 512" style="enable-background:new 0 0 512 512;" xml:space="preserve">
<style type="text/css">
	.st0{fill:#FFFFFF;}
	.st1{fill:#0080FF;}
	.st2{fill:none;stroke:#D1D3D4;stroke-width:3.5181;stroke-linecap:round;stroke-miterlimit:10;}
	.st3{fill:url(#SVGID_1_);}
	.st4{fill:#D1D3D4;}
	.st5{fill:url(#SVGID_00000088855720139958410580000002376796075160464310_);}
	.st6{fill:url(#SVGID_00000124150545223777725600000010852966981829852831_);}
	.st7{fill:url(#SVGID_00000145018326465522182500000008818729619829154977_);}
	.st8{fill:url(#SVGID_00000064338033275911004920000010370913319041520286_);}
	.st9{fill:url(#SVGID_00000051369983180848546570000013847064725448404392_);}
	.st10{fill:url(#SVGID_00000161610366996933792610000017088076522090289071_);}
	.st11{fill:url(#SVGID_00000052099020146966626730000015879849742271311001_);}
	.st12{fill:url(#SVGID_00000116932941314459407910000008020957456722778017_);}
	.st13{fill:url(#SVGID_00000043459336381595616760000003919041338495764660_);}
	.st14{fill:url(#SVGID_00000074428470380772524240000004736892685444913801_);}
	.st15{fill:url(#SVGID_00000073708407702904456270000000281621308748750234_);}
	.st16{fill:url(#SVGID_00000171711651761228842200000001259868040884973447_);}
	.st17{fill:url(#SVGID_00000127757119809350707020000009699957599251827078_);}
	.st18{fill:url(#SVGID_00000141420546811877547180000004606356058374359732_);}
	.st19{fill:url(#SVGID_00000133529015264967056560000014942496243775373224_);}
	.st20{fill:url(#SVGID_00000020395339613747998950000011419010836920674742_);}
	.st21{fill:url(#SVGID_00000028291077720249887150000017590279551680818853_);}
	.st22{fill:url(#SVGID_00000028288509933757490670000003606652449814186116_);}
	.st23{fill:url(#SVGID_00000160169547482307654780000017898123456145176450_);}
	.st24{fill:url(#SVGID_00000168083842653990768330000006511836077158554288_);}
	.st25{fill:url(#SVGID_00000159437745363436889070000005227337115741178263_);}
	.st26{fill:url(#SVGID_00000044892786491173789640000015927071335177003672_);}
	.st27{fill:url(#SVGID_00000137846880661532509720000001912639554671251121_);}
	.st28{fill:url(#SVGID_00000173132608855128517760000012605035827192475039_);}
	.st29{fill:url(#SVGID_00000054963579545390294150000012195702373177003403_);}
	.st30{fill:url(#SVGID_00000157266023657581170820000004597778160626611878_);}
	.st31{fill:url(#SVGID_00000067952150889257615860000002613527657509939357_);}
	.st32{fill:url(#SVGID_00000158004093303787319500000014970154851208139165_);}
	.st33{fill:url(#SVGID_00000062895812947832412610000011888790228844578966_);}
	.st34{fill:url(#SVGID_00000084488705730593278680000016728899322057025927_);}
	.st35{fill:url(#SVGID_00000059272098686168369620000018436739435208268420_);}
	.st36{fill:url(#SVGID_00000177458448377142114330000014658085840410826929_);}
</style>
<g>
	<path class="st0" d="M479.11,512H32.89C14.73,512,0,497.27,0,479.11V32.89C0,14.73,14.73,0,32.89,0h446.21
		C497.27,0,512,14.73,512,32.89v446.21C512,497.27,497.27,512,479.11,512z"/>
	<path class="st1" d="M325.12,68.86H59.27c-5.3,0-9.6-4.3-9.6-9.6v0c0-5.3,4.3-9.6,9.6-9.6h265.85c5.3,0,9.6,4.3,9.6,9.6v0
		C334.72,64.57,330.42,68.86,325.12,68.86z"/>
	<path class="st1" d="M452.73,68.86L452.73,68.86c-5.3,0-9.6-4.3-9.6-9.6v0c0-5.3,4.3-9.6,9.6-9.6h0c5.3,0,9.6,4.3,9.6,9.6v0
		C462.33,64.57,458.03,68.86,452.73,68.86z"/>
	<line class="st2" x1="49.67" y1="100.75" x2="462.33" y2="100.75"/>
	<path class="st4" d="M452.73,168.66H59.27c-5.3,0-9.6-4.3-9.6-9.6v-32.54c0-5.3,4.3-9.6,9.6-9.6h393.47c5.3,0,9.6,4.3,9.6,9.6
		v32.54C462.33,164.36,458.03,168.66,452.73,168.66z"/>
	<linearGradient id="SVGID_1_" gradientUnits="userSpaceOnUse" x1="49.6698" y1="216.2091" x2="462.3301" y2="216.2091">
		<stop  offset="0" style="stop-color:#131590"/>
		<stop  offset="1" style="stop-color:#3B60F6"/>
	</linearGradient>
	<path class="st3" d="M452.73,242.08H59.27c-5.3,0-9.6-4.3-9.6-9.6v-32.54c0-5.3,4.3-9.6,9.6-9.6h393.47c5.3,0,9.6,4.3,9.6,9.6
		v32.54C462.33,237.78,458.03,242.08,452.73,242.08z"/>
	<path class="st4" d="M452.73,315.49H59.27c-5.3,0-9.6-4.3-9.6-9.6v-32.54c0-5.3,4.3-9.6,9.6-9.6h393.47c5.3,0,9.6,4.3,9.6,9.6
		v32.54C462.33,311.2,458.03,315.49,452.73,315.49z"/>
	
		<linearGradient id="SVGID_00000056393404453038402790000004814081552600517558_" gradientUnits="userSpaceOnUse" x1="49.6698" y1="363.0449" x2="462.3301" y2="363.0449">
		<stop  offset="0" style="stop-color:#131590"/>
		<stop  offset="1" style="stop-color:#3B60F6"/>
	</linearGradient>
	<path style="fill:url(#SVGID_00000056393404453038402790000004814081552600517558_);" d="M452.73,388.91H59.27
		c-5.3,0-9.6-4.3-9.6-9.6v-32.54c0-5.3,4.3-9.6,9.6-9.6h393.47c5.3,0,9.6,4.3,9.6,9.6v32.54
		C462.33,384.62,458.03,388.91,452.73,388.91z"/>
	<path class="st4" d="M452.73,462.33H59.27c-5.3,0-9.6-4.3-9.6-9.6v-32.54c0-5.3,4.3-9.6,9.6-9.6h393.47c5.3,0,9.6,4.3,9.6,9.6
		v32.54C462.33,458.03,458.03,462.33,452.73,462.33z"/>
</g>
</svg>
