<?xml version="1.0" encoding="utf-8"?>
<!-- Generator: Adobe Illustrator 27.2.0, SVG Export Plug-In . SVG Version: 6.00 Build 0)  -->
<svg version="1.1" id="Layer_1" xmlns="http://www.w3.org/2000/svg" xmlns:xlink="http://www.w3.org/1999/xlink" x="0px" y="0px"
	 viewBox="0 0 512 512" style="enable-background:new 0 0 512 512;" xml:space="preserve">
<style type="text/css">
	.st0{fill:#FFFFFF;}
	.st1{fill:#0080FF;}
	.st2{fill:none;stroke:#D1D3D4;stroke-width:3.5181;stroke-linecap:round;stroke-miterlimit:10;}
	.st3{fill:url(#SVGID_1_);}
	.st4{fill:#D1D3D4;}
	.st5{fill:url(#SVGID_00000140724910711698249130000012412607282203963024_);}
	.st6{fill:url(#SVGID_00000112630109808721643270000006654333795183543440_);}
	.st7{fill:url(#SVGID_00000049925336020658489330000017835166187724255875_);}
	.st8{fill:url(#SVGID_00000059992381395188991670000011626323246628012426_);}
	.st9{fill:url(#SVGID_00000088101839644041067770000002973117359056815805_);}
	.st10{fill:url(#SVGID_00000045586675195894007440000011837205364660015790_);}
	.st11{fill:url(#SVGID_00000144336210378563101180000003589402808857221766_);}
	.st12{fill:url(#SVGID_00000080187973636540745480000017975936906977155507_);}
	.st13{fill:url(#SVGID_00000018196626294002856140000014096366892822979475_);}
	.st14{fill:url(#SVGID_00000164500574365307678580000013075907209799091847_);}
	.st15{fill:url(#SVGID_00000036234985839326480690000012481051773702428307_);}
	.st16{fill:url(#SVGID_00000036937407913445387960000001950218823721584820_);}
	.st17{fill:url(#SVGID_00000074402587669503604570000016462370503970647189_);}
	.st18{fill:url(#SVGID_00000158003589276027768560000015350745822477923489_);}
	.st19{fill:url(#SVGID_00000054254316417492369800000009181522205859667365_);}
	.st20{fill:url(#SVGID_00000122692637824441555390000004107631315921622944_);}
	.st21{fill:url(#SVGID_00000101089269163847666540000002365824168372446110_);}
	.st22{fill:url(#SVGID_00000057105709321952931090000015607924932502416005_);}
	.st23{fill:url(#SVGID_00000174578307511643532530000009899187201680320674_);}
	.st24{fill:url(#SVGID_00000044158572221978984800000008780230562241931691_);}
	.st25{fill:url(#SVGID_00000183961808960505834020000002354354612235825286_);}
	.st26{fill:url(#SVGID_00000045577276249033964770000005388751925835441835_);}
	.st27{fill:url(#SVGID_00000088837440307716189470000008514196740455755661_);}
	.st28{fill:url(#SVGID_00000010295287689578043240000011306813988427741595_);}
	.st29{fill:url(#SVGID_00000094614705221765186390000012634398621564381075_);}
	.st30{fill:url(#SVGID_00000088849250000114114790000009635051940854303111_);}
	.st31{fill:url(#SVGID_00000174582157942724064870000001649496543453932176_);}
	.st32{fill:url(#SVGID_00000158007858033595699130000008900867697696906667_);}
	.st33{fill:url(#SVGID_00000077290744499238165570000008544158227442003885_);}
	.st34{fill:url(#SVGID_00000052067875536153357510000014121933622407591570_);}
	.st35{fill:url(#SVGID_00000129909476318179190510000017862593952208023231_);}
	.st36{fill:url(#SVGID_00000099624291768282654380000016732485024748258201_);}
</style>
<g>
	<g>
		<path class="st0" d="M479.11,512H32.89C14.73,512,0,497.27,0,479.11V32.89C0,14.73,14.73,0,32.89,0h446.21
			C497.27,0,512,14.73,512,32.89v446.21C512,497.27,497.27,512,479.11,512z"/>
		<path class="st1" d="M325.12,68.86H59.27c-5.3,0-9.6-4.3-9.6-9.6v0c0-5.3,4.3-9.6,9.6-9.6h265.85c5.3,0,9.6,4.3,9.6,9.6v0
			C334.72,64.57,330.42,68.86,325.12,68.86z"/>
		<path class="st1" d="M452.73,68.86L452.73,68.86c-5.3,0-9.6-4.3-9.6-9.6v0c0-5.3,4.3-9.6,9.6-9.6h0c5.3,0,9.6,4.3,9.6,9.6v0
			C462.33,64.57,458.03,68.86,452.73,68.86z"/>
		<line class="st2" x1="49.67" y1="100.75" x2="462.33" y2="100.75"/>
		<path class="st4" d="M452.73,168.66H59.27c-5.3,0-9.6-4.3-9.6-9.6v-32.54c0-5.3,4.3-9.6,9.6-9.6h393.47c5.3,0,9.6,4.3,9.6,9.6
			v32.54C462.33,164.36,458.03,168.66,452.73,168.66z"/>
		<linearGradient id="SVGID_1_" gradientUnits="userSpaceOnUse" x1="49.6698" y1="363.0449" x2="462.3301" y2="363.0449">
			<stop  offset="0" style="stop-color:#131590"/>
			<stop  offset="1" style="stop-color:#3B60F6"/>
		</linearGradient>
		<path class="st3" d="M452.73,388.91H59.27c-5.3,0-9.6-4.3-9.6-9.6v-32.54c0-5.3,4.3-9.6,9.6-9.6h393.47c5.3,0,9.6,4.3,9.6,9.6
			v32.54C462.33,384.62,458.03,388.91,452.73,388.91z"/>
		<path class="st4" d="M452.73,462.33H59.27c-5.3,0-9.6-4.3-9.6-9.6v-32.54c0-5.3,4.3-9.6,9.6-9.6h393.47c5.3,0,9.6,4.3,9.6,9.6
			v32.54C462.33,458.03,458.03,462.33,452.73,462.33z"/>
	</g>
	<g>
		<path d="M101.9,262.96l-23.5,9.07l23.5,9.07v5.5l-29.66-11.72v-5.69l29.66-11.72V262.96z"/>
		<path d="M112.17,294.38c-0.84-0.81-1.26-1.82-1.26-3.01c0-1.19,0.42-2.2,1.26-3.01c0.84-0.82,1.88-1.23,3.11-1.23
			c1.23,0,2.25,0.41,3.04,1.23c0.79,0.81,1.19,1.82,1.19,3.01c0,1.19-0.41,2.2-1.23,3.01c-0.82,0.82-1.82,1.23-3.01,1.23
			C114.04,295.61,113,295.2,112.17,294.38z M111.5,248.86h7.48l-1.26,31.71h-5.03L111.5,248.86z"/>
		<path d="M127.85,274.29h17.81v5.49h-17.81V274.29z"/>
		<path d="M153.41,274.29h17.81v5.49h-17.81V274.29z"/>
		<path d="M235.4,263.63c2.58,2.56,3.88,6.36,3.88,11.39v20.19h-6.36v-19.47c0-3.4-0.79-5.96-2.35-7.68
			c-1.57-1.72-3.81-2.58-6.72-2.58c-3.22,0-5.79,1-7.68,3.01c-1.9,2.01-2.84,4.89-2.84,8.64v18.08h-6.36v-19.47
			c0-3.4-0.79-5.96-2.35-7.68c-1.57-1.72-3.81-2.58-6.72-2.58c-3.22,0-5.79,1-7.68,3.01c-1.9,2.01-2.84,4.89-2.84,8.64v18.08h-6.36
			v-35.09h6.09v5.23c1.28-1.81,2.96-3.19,5.03-4.14s4.44-1.43,7.08-1.43c2.73,0,5.16,0.55,7.28,1.66c2.12,1.1,3.75,2.71,4.9,4.83
			c1.32-2.03,3.16-3.62,5.53-4.77c2.36-1.15,5.02-1.72,7.98-1.72C229.32,259.79,232.82,261.07,235.4,263.63z"/>
		<path d="M256.82,293.29c-2.78-1.54-4.96-3.67-6.52-6.39c-1.57-2.72-2.35-5.8-2.35-9.24c0-3.44,0.78-6.52,2.35-9.24
			c1.57-2.71,3.74-4.83,6.52-6.36c2.78-1.52,5.91-2.28,9.4-2.28s6.61,0.76,9.37,2.28s4.92,3.64,6.49,6.36
			c1.57,2.71,2.35,5.79,2.35,9.24c0,3.44-0.78,6.52-2.35,9.24c-1.57,2.71-3.73,4.84-6.49,6.39c-2.76,1.55-5.88,2.32-9.37,2.32
			S259.6,294.83,256.82,293.29z M272.28,288.49c1.79-1.04,3.19-2.49,4.21-4.37c1.01-1.88,1.52-4.03,1.52-6.46
			c0-2.43-0.51-4.58-1.52-6.46c-1.02-1.87-2.42-3.32-4.21-4.34c-1.79-1.01-3.81-1.52-6.06-1.52s-4.27,0.51-6.06,1.52
			c-1.79,1.02-3.2,2.46-4.24,4.34c-1.04,1.88-1.55,4.03-1.55,6.46c0,2.43,0.52,4.58,1.55,6.46c1.04,1.88,2.45,3.33,4.24,4.37
			c1.79,1.04,3.81,1.56,6.06,1.56S270.49,289.52,272.28,288.49z"/>
		<path d="M304.23,261.38c2.16-1.06,4.79-1.59,7.88-1.59v6.16c-0.35-0.04-0.84-0.07-1.46-0.07c-3.44,0-6.15,1.03-8.11,3.08
			c-1.97,2.05-2.94,4.98-2.94,8.77v17.48h-6.36v-35.09h6.09v5.89C300.43,263.98,302.06,262.43,304.23,261.38z"/>
		<path d="M351.17,279.78H322.7c0.4,3.09,1.76,5.57,4.07,7.45c2.32,1.88,5.2,2.81,8.64,2.81c4.19,0,7.57-1.41,10.13-4.24l3.51,4.1
			c-1.59,1.86-3.57,3.27-5.93,4.24c-2.36,0.97-5,1.46-7.91,1.46c-3.71,0-7-0.76-9.86-2.28c-2.87-1.52-5.09-3.65-6.65-6.39
			c-1.57-2.73-2.35-5.83-2.35-9.27c0-3.4,0.76-6.47,2.28-9.2c1.52-2.74,3.62-4.87,6.29-6.39c2.67-1.52,5.68-2.28,9.04-2.28
			c3.35,0,6.35,0.76,8.97,2.28c2.63,1.52,4.68,3.65,6.16,6.39c1.48,2.73,2.22,5.87,2.22,9.4
			C351.3,278.35,351.25,278.99,351.17,279.78z M326.31,267.93c-2.05,1.85-3.26,4.28-3.61,7.28h22.51c-0.35-2.95-1.56-5.37-3.61-7.25
			c-2.05-1.88-4.6-2.81-7.65-2.81C330.91,265.15,328.36,266.08,326.31,267.93z"/>
		<path d="M358.51,274.29h17.81v5.49h-17.81V274.29z"/>
		<path d="M384.06,274.29h17.81v5.49h-17.81V274.29z"/>
		<path d="M439.74,269.19v5.69l-29.66,11.72v-5.5l23.57-9.07l-23.57-9.07v-5.49L439.74,269.19z"/>
	</g>
	<g>
		<path d="M227.23,219.42c-0.88-0.86-1.33-1.95-1.33-3.28c0-1.28,0.44-2.35,1.33-3.21c0.88-0.86,1.94-1.29,3.18-1.29
			c1.23,0,2.27,0.42,3.11,1.26c0.83,0.84,1.26,1.92,1.26,3.24s-0.43,2.42-1.29,3.28c-0.86,0.86-1.89,1.29-3.08,1.29
			C229.17,220.71,228.11,220.28,227.23,219.42z"/>
		<path d="M252.85,219.42c-0.88-0.86-1.33-1.95-1.33-3.28c0-1.28,0.44-2.35,1.33-3.21c0.88-0.86,1.94-1.29,3.18-1.29
			c1.23,0,2.27,0.42,3.11,1.26c0.83,0.84,1.26,1.92,1.26,3.24s-0.43,2.42-1.29,3.28c-0.86,0.86-1.89,1.29-3.08,1.29
			C254.79,220.71,253.73,220.28,252.85,219.42z"/>
		<path d="M278.47,219.42c-0.88-0.86-1.33-1.95-1.33-3.28c0-1.28,0.44-2.35,1.33-3.21c0.88-0.86,1.94-1.29,3.18-1.29
			c1.23,0,2.27,0.42,3.11,1.26c0.83,0.84,1.26,1.92,1.26,3.24s-0.43,2.42-1.29,3.28c-0.86,0.86-1.89,1.29-3.08,1.29
			C280.41,220.71,279.36,220.28,278.47,219.42z"/>
	</g>
</g>
</svg>
