<?xml version="1.0" encoding="utf-8"?>
<!-- Generator: Adobe Illustrator 27.2.0, SVG Export Plug-In . SVG Version: 6.00 Build 0)  -->
<svg version="1.1" id="Layer_1" xmlns="http://www.w3.org/2000/svg" xmlns:xlink="http://www.w3.org/1999/xlink" x="0px" y="0px"
	 viewBox="0 0 512 512" style="enable-background:new 0 0 512 512;" xml:space="preserve">
<style type="text/css">
	.st0{fill:#FFFFFF;}
	.st1{fill:#0080FF;}
	.st2{fill:none;stroke:#D1D3D4;stroke-width:3.5181;stroke-linecap:round;stroke-miterlimit:10;}
	.st3{fill:url(#SVGID_1_);}
	.st4{fill:#D1D3D4;}
	.st5{fill:url(#SVGID_00000109009371593880728580000012347270651629178766_);}
	.st6{fill:url(#SVGID_00000017512417568614639830000008092488222236639412_);}
	.st7{fill:url(#SVGID_00000134249663533332122600000006591193541635382168_);}
	.st8{fill:url(#SVGID_00000120544048347280124900000013978656184043823778_);}
	.st9{fill:url(#SVGID_00000027599469181096971060000006988267368741061514_);}
	.st10{fill:url(#SVGID_00000086689212747319712450000007809130320975418026_);}
	.st11{fill:url(#SVGID_00000082333574068697793100000017230131691556955315_);}
	.st12{fill:url(#SVGID_00000120538673203885753040000008003493520559183766_);}
	.st13{fill:url(#SVGID_00000040564641256196584210000010591184281235835305_);}
	.st14{fill:url(#SVGID_00000155124778511377948290000012147999285471093399_);}
	.st15{fill:url(#SVGID_00000080911627243291894190000001948191227311447700_);}
	.st16{fill:url(#SVGID_00000133502866113980417530000016285824801098281117_);}
	.st17{fill:url(#SVGID_00000038407617016809150540000015626439207029246881_);}
	.st18{fill:url(#SVGID_00000085946706804872031950000010106649435757132679_);}
	.st19{fill:url(#SVGID_00000155827110135744124900000016183808707192348565_);}
	.st20{fill:url(#SVGID_00000039815830232829862570000014949698833427074238_);}
	.st21{fill:url(#SVGID_00000141457732307217940060000006039433858763340723_);}
	.st22{fill:url(#SVGID_00000062185521983529771670000006661148493305296290_);}
	.st23{fill:url(#SVGID_00000052065055451518180570000013415416316851102863_);}
	.st24{fill:url(#SVGID_00000038372008819195945040000005111116800233801088_);}
	.st25{fill:url(#SVGID_00000080916531641503167370000009504796289111409048_);}
	.st26{fill:url(#SVGID_00000180342756995291072440000009087979627430427552_);}
	.st27{fill:url(#SVGID_00000076564753528524693570000008928850392811392132_);}
	.st28{fill:url(#SVGID_00000103251694214411131020000000706354060763740833_);}
	.st29{fill:url(#SVGID_00000004524876506181667200000018182372238023842454_);}
	.st30{fill:url(#SVGID_00000023979149070269823560000017562927119192009881_);}
	.st31{fill:url(#SVGID_00000015326859097388906460000000060481393515499186_);}
	.st32{fill:url(#SVGID_00000039849553544689689370000002566742714173912995_);}
	.st33{fill:url(#SVGID_00000023998846904161991100000009156710550963797672_);}
	.st34{fill:url(#SVGID_00000088845373630491384210000014372176941257369730_);}
	.st35{fill:url(#SVGID_00000101790069429764207340000005093986719310809007_);}
	.st36{fill:url(#SVGID_00000131348140201703627720000008162789615707424135_);}
</style>
<g>
	<path class="st0" d="M479.11,512H32.89C14.73,512,0,497.27,0,479.11V32.89C0,14.73,14.73,0,32.89,0h446.21
		C497.27,0,512,14.73,512,32.89v446.21C512,497.27,497.27,512,479.11,512z"/>
	<path class="st1" d="M325.12,68.86H59.27c-5.3,0-9.6-4.3-9.6-9.6v0c0-5.3,4.3-9.6,9.6-9.6h265.85c5.3,0,9.6,4.3,9.6,9.6v0
		C334.72,64.57,330.42,68.86,325.12,68.86z"/>
	<path class="st1" d="M452.73,68.86L452.73,68.86c-5.3,0-9.6-4.3-9.6-9.6v0c0-5.3,4.3-9.6,9.6-9.6h0c5.3,0,9.6,4.3,9.6,9.6v0
		C462.33,64.57,458.03,68.86,452.73,68.86z"/>
	<line class="st2" x1="49.67" y1="100.75" x2="462.33" y2="100.75"/>
	<path class="st4" d="M452.73,168.66H59.27c-5.3,0-9.6-4.3-9.6-9.6v-32.54c0-5.3,4.3-9.6,9.6-9.6h393.47c5.3,0,9.6,4.3,9.6,9.6
		v32.54C462.33,164.36,458.03,168.66,452.73,168.66z"/>
	<linearGradient id="SVGID_1_" gradientUnits="userSpaceOnUse" x1="49.6698" y1="363.0449" x2="462.3301" y2="363.0449">
		<stop  offset="0" style="stop-color:#131590"/>
		<stop  offset="1" style="stop-color:#3B60F6"/>
	</linearGradient>
	<path class="st3" d="M452.73,388.91H59.27c-5.3,0-9.6-4.3-9.6-9.6v-32.54c0-5.3,4.3-9.6,9.6-9.6h393.47c5.3,0,9.6,4.3,9.6,9.6
		v32.54C462.33,384.62,458.03,388.91,452.73,388.91z"/>
	<path class="st4" d="M452.73,462.33H59.27c-5.3,0-9.6-4.3-9.6-9.6v-32.54c0-5.3,4.3-9.6,9.6-9.6h393.47c5.3,0,9.6,4.3,9.6,9.6
		v32.54C462.33,458.03,458.03,462.33,452.73,462.33z"/>
	<g>
		<path d="M213.62,234.37l-33.13,18.54l33.13,18.38v18.99l-47.36-27.5v-19.75l47.36-27.5V234.37z"/>
		<path d="M268.19,190.31h17.74l-42.13,125.18h-17.74L268.19,190.31z"/>
		<path d="M345.74,243.02v19.75l-47.36,27.5v-18.99l33.13-18.38l-33.13-18.54v-18.84L345.74,243.02z"/>
	</g>
</g>
</svg>
