<?xml version="1.0" encoding="utf-8"?>
<!-- Generator: Adobe Illustrator 27.2.0, SVG Export Plug-In . SVG Version: 6.00 Build 0)  -->
<svg version="1.1" id="Layer_1" xmlns="http://www.w3.org/2000/svg" xmlns:xlink="http://www.w3.org/1999/xlink" x="0px" y="0px"
	 viewBox="0 0 512 512" style="enable-background:new 0 0 512 512;" xml:space="preserve">
<style type="text/css">
	.st0{fill:#FFFFFF;}
	.st1{fill:#0080FF;}
	.st2{fill:none;stroke:#D1D3D4;stroke-width:3.5181;stroke-linecap:round;stroke-miterlimit:10;}
	.st3{fill:url(#SVGID_1_);}
	.st4{fill:#D1D3D4;}
	.st5{fill:url(#SVGID_00000145035868987045304240000008841018861437361055_);}
	.st6{fill:url(#SVGID_00000026871169857173669340000014060967358485713826_);}
	.st7{fill:url(#SVGID_00000092445648855675471710000012779985413365850246_);}
	.st8{fill:url(#SVGID_00000109029516548114025330000001272718432404097192_);}
	.st9{fill:url(#SVGID_00000004504711091429302190000011756595537453599915_);}
	.st10{fill:url(#SVGID_00000182525074328662595150000016996887509943347621_);}
	.st11{fill:url(#SVGID_00000165192783017779342570000012949329528816916357_);}
	.st12{fill:url(#SVGID_00000112599663690682533790000015532057959323613574_);}
	.st13{fill:url(#SVGID_00000127755775337486734380000008405167856527614368_);}
	.st14{fill:url(#SVGID_00000085942666375489300830000003673993454607507089_);}
	.st15{fill:url(#SVGID_00000159439545564251481410000005512420595254998205_);}
	.st16{fill:url(#SVGID_00000070840931879840277000000004447076271944056747_);}
	.st17{fill:url(#SVGID_00000075159299655648513690000017180883992989771161_);}
	.st18{fill:url(#SVGID_00000145030208160326448680000009672254980757673869_);}
	.st19{fill:url(#SVGID_00000017497693742992294580000004973052405742699710_);}
	.st20{fill:url(#SVGID_00000142898469920582866040000011414954065262283697_);}
	.st21{fill:url(#SVGID_00000055669637699152208630000000955083272247508111_);}
	.st22{fill:url(#SVGID_00000028311064640133897490000010276774416027068852_);}
	.st23{fill:url(#SVGID_00000152973610669531316810000000615799489483537045_);}
	.st24{fill:url(#SVGID_00000149341797845804605610000017704405686208671899_);}
	.st25{fill:url(#SVGID_00000177455877232583067970000014329664159617813142_);}
	.st26{fill:url(#SVGID_00000118378544575065343600000010269874674343775363_);}
	.st27{fill:url(#SVGID_00000047031863782729161390000008323181324799677599_);}
	.st28{fill:url(#SVGID_00000127002939817664464660000003967619664618269060_);}
	.st29{fill:url(#SVGID_00000090997122629358005000000011499079259066858423_);}
	.st30{fill:url(#SVGID_00000011753850107857233850000013251829658859776402_);}
	.st31{fill:url(#SVGID_00000061438138443053695790000004220562323221266591_);}
	.st32{fill:url(#SVGID_00000034789094076395250470000003250995538374921377_);}
	.st33{fill:url(#SVGID_00000088837219553139207000000013516696517018363316_);}
	.st34{fill:url(#SVGID_00000175314575713717589130000002525429631846023846_);}
	.st35{fill:url(#SVGID_00000136382661670650313640000015122686856390067125_);}
	.st36{fill:url(#SVGID_00000048481211173305581430000007376868904646931366_);}
</style>
<g>
	<path class="st0" d="M479.11,512H32.89C14.73,512,0,497.27,0,479.11V32.89C0,14.73,14.73,0,32.89,0h446.21
		C497.27,0,512,14.73,512,32.89v446.21C512,497.27,497.27,512,479.11,512z"/>
	<path class="st1" d="M325.12,68.86H59.27c-5.3,0-9.6-4.3-9.6-9.6v0c0-5.3,4.3-9.6,9.6-9.6h265.85c5.3,0,9.6,4.3,9.6,9.6v0
		C334.72,64.57,330.42,68.86,325.12,68.86z"/>
	<path class="st1" d="M452.73,68.86L452.73,68.86c-5.3,0-9.6-4.3-9.6-9.6v0c0-5.3,4.3-9.6,9.6-9.6h0c5.3,0,9.6,4.3,9.6,9.6v0
		C462.33,64.57,458.03,68.86,452.73,68.86z"/>
	<line class="st2" x1="49.67" y1="100.75" x2="462.33" y2="100.75"/>
	<path class="st4" d="M452.73,168.66H59.27c-5.3,0-9.6-4.3-9.6-9.6v-32.54c0-5.3,4.3-9.6,9.6-9.6h393.47c5.3,0,9.6,4.3,9.6,9.6
		v32.54C462.33,164.36,458.03,168.66,452.73,168.66z"/>
	<linearGradient id="SVGID_1_" gradientUnits="userSpaceOnUse" x1="266.8416" y1="289.627" x2="462.3301" y2="289.627">
		<stop  offset="0" style="stop-color:#131590"/>
		<stop  offset="1" style="stop-color:#3B60F6"/>
	</linearGradient>
	<path class="st3" d="M452.73,388.91H276.44c-5.3,0-9.6-4.3-9.6-9.6V199.94c0-5.3,4.3-9.6,9.6-9.6h176.29c5.3,0,9.6,4.3,9.6,9.6
		v179.38C462.33,384.62,458.03,388.91,452.73,388.91z"/>
	<path class="st4" d="M452.73,462.33H59.27c-5.3,0-9.6-4.3-9.6-9.6v-32.54c0-5.3,4.3-9.6,9.6-9.6h393.47c5.3,0,9.6,4.3,9.6,9.6
		v32.54C462.33,458.03,458.03,462.33,452.73,462.33z"/>
	<g>
		<g>
			<path d="M60.68,285c-7.34-8.46-11.01-19.54-11.01-33.27c0-13.72,3.67-24.81,11.01-33.27c7.34-8.46,17-12.69,28.96-12.69
				s21.66,4.19,29.08,12.57c7.42,8.38,11.13,19.51,11.13,33.39s-3.71,25.01-11.13,33.39c-7.42,8.38-17.11,12.57-29.08,12.57
				S68.02,293.46,60.68,285z M104.84,273.28c3.59-5.11,5.39-12.29,5.39-21.54c0-9.25-1.79-16.43-5.39-21.54
				c-3.59-5.11-8.66-7.66-15.2-7.66c-6.22,0-11.21,2.6-14.96,7.78c-3.75,5.19-5.62,12.33-5.62,21.42s1.87,16.24,5.62,21.42
				c3.75,5.19,8.74,7.78,14.96,7.78C96.18,280.93,101.25,278.38,104.84,273.28z M190.17,207.45h23.46L99.22,375H75.76L190.17,207.45
				z M170.54,363.99c-7.34-8.46-11.01-19.54-11.01-33.27s3.67-24.81,11.01-33.27c7.34-8.46,17-12.68,28.96-12.68
				s21.66,4.23,29.08,12.68c7.42,8.46,11.13,19.55,11.13,33.27s-3.71,24.81-11.13,33.27c-7.42,8.46-17.11,12.69-29.08,12.69
				S177.88,372.45,170.54,363.99z M214.58,352.14c3.67-5.18,5.51-12.33,5.51-21.42s-1.84-16.24-5.51-21.42
				c-3.67-5.18-8.7-7.78-15.08-7.78c-6.39,0-11.41,2.56-15.08,7.66c-3.67,5.11-5.5,12.29-5.5,21.54c0,9.25,1.83,16.44,5.5,21.54
				c3.67,5.11,8.69,7.66,15.08,7.66C205.89,359.92,210.91,357.33,214.58,352.14z"/>
		</g>
	</g>
</g>
</svg>
