<?xml version="1.0" encoding="utf-8"?>
<!-- Generator: Adobe Illustrator 27.2.0, SVG Export Plug-In . SVG Version: 6.00 Build 0)  -->
<svg version="1.1" id="Layer_1" xmlns="http://www.w3.org/2000/svg" xmlns:xlink="http://www.w3.org/1999/xlink" x="0px" y="0px"
	 viewBox="0 0 512 512" style="enable-background:new 0 0 512 512;" xml:space="preserve">
<style type="text/css">
	.st0{fill:#FFFFFF;}
	.st1{fill:#0080FF;}
	.st2{fill:none;stroke:#D1D3D4;stroke-width:3.5181;stroke-linecap:round;stroke-miterlimit:10;}
	.st3{fill:url(#SVGID_1_);}
	.st4{fill:#D1D3D4;}
	.st5{fill:url(#SVGID_00000178170188327348667880000000264476190528922297_);}
	.st6{fill:url(#SVGID_00000110447498945026356940000016725216468657307808_);}
	.st7{fill:url(#SVGID_00000100362998561525120020000017883847184582002581_);}
	.st8{fill:url(#SVGID_00000181792839266827187260000008694318658532207032_);}
	.st9{fill:url(#SVGID_00000124845834251528038850000001456647309524620947_);}
	.st10{fill:url(#SVGID_00000054260447280940532860000002968280257239438977_);}
	.st11{fill:url(#SVGID_00000124847238403365478050000009382258753310542976_);}
	.st12{fill:url(#SVGID_00000101814619815107517410000016929639353327332515_);}
	.st13{fill:url(#SVGID_00000106144214675819336080000001344459375731333507_);}
	.st14{fill:url(#SVGID_00000056424780413849581850000007608993153576216510_);}
	.st15{fill:url(#SVGID_00000022528737531266678410000011387486751329890439_);}
	.st16{fill:url(#SVGID_00000018210891765977335500000016644014463063338165_);}
	.st17{fill:url(#SVGID_00000062164020517457260150000012266023708565644465_);}
	.st18{fill:url(#SVGID_00000039816301480786522090000009101552002146591887_);}
	.st19{fill:url(#SVGID_00000122695443038791678200000017842792261795266494_);}
	.st20{fill:url(#SVGID_00000125600310543698858200000005483205306463635620_);}
	.st21{fill:url(#SVGID_00000145755120784884791440000004381444475423422897_);}
	.st22{fill:url(#SVGID_00000101823275254780690740000014225663668869094546_);}
	.st23{fill:url(#SVGID_00000053508630210645352010000013046881164014059697_);}
	.st24{fill:url(#SVGID_00000102533549980524317190000008049495965177138355_);}
	.st25{fill:url(#SVGID_00000102539890386136178820000006964318053711066012_);}
	.st26{fill:url(#SVGID_00000004519890444913925310000008931678587814582707_);}
	.st27{fill:url(#SVGID_00000116954107883350988600000015309623237896727981_);}
	.st28{fill:url(#SVGID_00000013159911209966896040000004481421267113051795_);}
	.st29{fill:url(#SVGID_00000178915055471982759430000000727830324690775440_);}
	.st30{fill:url(#SVGID_00000067945228832385246030000014673771680506960821_);}
	.st31{fill:url(#SVGID_00000060732115092999924090000013677369545793446543_);}
	.st32{fill:url(#SVGID_00000047766885351512103780000015786214228128033188_);}
	.st33{fill:url(#SVGID_00000015352315539859830490000015998184853031432882_);}
	.st34{fill:url(#SVGID_00000024716071692654846380000001299748378301542063_);}
	.st35{fill:url(#SVGID_00000042694470338999094040000000626199612795996583_);}
	.st36{fill:url(#SVGID_00000019649951904342256730000009975015309932713613_);}
</style>
<g>
	<path class="st0" d="M479.11,512H32.89C14.73,512,0,497.27,0,479.11V32.89C0,14.73,14.73,0,32.89,0h446.21
		C497.27,0,512,14.73,512,32.89v446.21C512,497.27,497.27,512,479.11,512z"/>
	<path class="st1" d="M325.12,68.86H59.27c-5.3,0-9.6-4.3-9.6-9.6v0c0-5.3,4.3-9.6,9.6-9.6h265.85c5.3,0,9.6,4.3,9.6,9.6v0
		C334.72,64.57,330.42,68.86,325.12,68.86z"/>
	<path class="st1" d="M452.73,68.86L452.73,68.86c-5.3,0-9.6-4.3-9.6-9.6v0c0-5.3,4.3-9.6,9.6-9.6h0c5.3,0,9.6,4.3,9.6,9.6v0
		C462.33,64.57,458.03,68.86,452.73,68.86z"/>
	<line class="st2" x1="49.67" y1="100.75" x2="462.33" y2="100.75"/>
	<path class="st4" d="M452.73,168.66H59.27c-5.3,0-9.6-4.3-9.6-9.6v-32.54c0-5.3,4.3-9.6,9.6-9.6h393.47c5.3,0,9.6,4.3,9.6,9.6
		v32.54C462.33,164.36,458.03,168.66,452.73,168.66z"/>
	<path class="st4" d="M452.73,242.08H59.27c-5.3,0-9.6-4.3-9.6-9.6v-32.54c0-5.3,4.3-9.6,9.6-9.6h393.47c5.3,0,9.6,4.3,9.6,9.6
		v32.54C462.33,237.78,458.03,242.08,452.73,242.08z"/>
	<path class="st4" d="M255.13,315.49H59.27c-5.3,0-9.6-4.3-9.6-9.6v-32.54c0-5.3,4.3-9.6,9.6-9.6h195.86c5.3,0,9.6,4.3,9.6,9.6
		v32.54C264.73,311.2,260.43,315.49,255.13,315.49z"/>
	<linearGradient id="SVGID_1_" gradientUnits="userSpaceOnUse" x1="49.6698" y1="363.0449" x2="462.3301" y2="363.0449">
		<stop  offset="0" style="stop-color:#131590"/>
		<stop  offset="1" style="stop-color:#3B60F6"/>
	</linearGradient>
	<path class="st3" d="M452.73,388.91H59.27c-5.3,0-9.6-4.3-9.6-9.6v-32.54c0-5.3,4.3-9.6,9.6-9.6h393.47c5.3,0,9.6,4.3,9.6,9.6
		v32.54C462.33,384.62,458.03,388.91,452.73,388.91z"/>
	<path class="st4" d="M452.73,462.33H59.27c-5.3,0-9.6-4.3-9.6-9.6v-32.54c0-5.3,4.3-9.6,9.6-9.6h393.47c5.3,0,9.6,4.3,9.6,9.6
		v32.54C462.33,458.03,458.03,462.33,452.73,462.33z"/>
</g>
</svg>
