<?xml version="1.0" encoding="utf-8"?>
<!-- Generator: Adobe Illustrator 27.2.0, SVG Export Plug-In . SVG Version: 6.00 Build 0)  -->
<svg version="1.1" id="Layer_1" xmlns="http://www.w3.org/2000/svg" xmlns:xlink="http://www.w3.org/1999/xlink" x="0px" y="0px"
	 viewBox="0 0 512 512" style="enable-background:new 0 0 512 512;" xml:space="preserve">
<style type="text/css">
	.st0{fill:#FFFFFF;}
	.st1{fill:#0080FF;}
	.st2{fill:none;stroke:#D1D3D4;stroke-width:3.5181;stroke-linecap:round;stroke-miterlimit:10;}
	.st3{fill:url(#SVGID_1_);}
	.st4{fill:#D1D3D4;}
	.st5{fill:url(#SVGID_00000178898779437426352330000002429430664106053817_);}
	.st6{fill:url(#SVGID_00000021098523556191624070000009373259518321157776_);}
	.st7{fill:url(#SVGID_00000071531498786491546020000011059476712146521520_);}
	.st8{fill:url(#SVGID_00000038394303311882225500000012185357823802359435_);}
	.st9{fill:url(#SVGID_00000152974722324431112870000011769471681121600444_);}
	.st10{fill:url(#SVGID_00000148625894286752796720000009514441276476042638_);}
	.st11{fill:url(#SVGID_00000176726547171821889710000004800704936343654802_);}
	.st12{fill:url(#SVGID_00000018950682401220582070000013460241429759325114_);}
	.st13{fill:url(#SVGID_00000176001496801844666080000007890339715918996119_);}
	.st14{fill:url(#SVGID_00000044878614608206925140000004437545823680966549_);}
	.st15{fill:url(#SVGID_00000054964678519880644550000003896575840277211543_);}
	.st16{fill:url(#SVGID_00000181051979761708597660000008290591356025092532_);}
	.st17{fill:url(#SVGID_00000038387913629157556880000001005840319391107469_);}
	.st18{fill:url(#SVGID_00000030464085272369552600000016261628159913140137_);}
	.st19{fill:url(#SVGID_00000101822464425247504670000007431372559039934119_);}
	.st20{fill:url(#SVGID_00000153670776615828652270000016800918688237576092_);}
	.st21{fill:url(#SVGID_00000031894530098941038140000003215118502661673143_);}
	.st22{fill:url(#SVGID_00000104701190302798315420000011850155035348096424_);}
	.st23{fill:url(#SVGID_00000004526981978720234730000012015461286522006402_);}
	.st24{fill:url(#SVGID_00000098183521423456217810000006842997963833488570_);}
	.st25{fill:url(#SVGID_00000093158529598256861970000003023942233817916071_);}
	.st26{fill:url(#SVGID_00000127728630552368338030000006565885858504290983_);}
	.st27{fill:url(#SVGID_00000048465614159636541800000006908638452820793497_);}
	.st28{fill:url(#SVGID_00000183214864064391280530000004133806247678321854_);}
	.st29{fill:url(#SVGID_00000160869404291635259960000013351237312245257656_);}
	.st30{fill:url(#SVGID_00000137099225869131552680000010839759492078796429_);}
	.st31{fill:url(#SVGID_00000124122877064334427870000006941407737487556777_);}
	.st32{fill:url(#SVGID_00000054962917427296774740000009200042477414297767_);}
	.st33{fill:url(#SVGID_00000062908527333046040820000014824753851844972192_);}
	.st34{fill:url(#SVGID_00000039091384353691231100000013650794153361306775_);}
	.st35{fill:url(#SVGID_00000047771736842091319610000013308727452907987849_);}
	.st36{fill:url(#SVGID_00000023962193058361692860000002231109148040848563_);}
</style>
<g>
	<path class="st0" d="M479.11,512H32.89C14.73,512,0,497.27,0,479.11V32.89C0,14.73,14.73,0,32.89,0h446.21
		C497.27,0,512,14.73,512,32.89v446.21C512,497.27,497.27,512,479.11,512z"/>
	<path class="st1" d="M325.12,68.86H59.27c-5.3,0-9.6-4.3-9.6-9.6v0c0-5.3,4.3-9.6,9.6-9.6h265.85c5.3,0,9.6,4.3,9.6,9.6v0
		C334.72,64.57,330.42,68.86,325.12,68.86z"/>
	<path class="st1" d="M452.73,68.86L452.73,68.86c-5.3,0-9.6-4.3-9.6-9.6v0c0-5.3,4.3-9.6,9.6-9.6h0c5.3,0,9.6,4.3,9.6,9.6v0
		C462.33,64.57,458.03,68.86,452.73,68.86z"/>
	<line class="st2" x1="49.67" y1="100.75" x2="462.33" y2="100.75"/>
	<path class="st4" d="M452.73,168.66H59.27c-5.3,0-9.6-4.3-9.6-9.6v-32.54c0-5.3,4.3-9.6,9.6-9.6h393.47c5.3,0,9.6,4.3,9.6,9.6
		v32.54C462.33,164.36,458.03,168.66,452.73,168.66z"/>
	<linearGradient id="SVGID_1_" gradientUnits="userSpaceOnUse" x1="49.6698" y1="216.2091" x2="462.3301" y2="216.2091">
		<stop  offset="0" style="stop-color:#131590"/>
		<stop  offset="1" style="stop-color:#3B60F6"/>
	</linearGradient>
	<path class="st3" d="M452.73,242.08H59.27c-5.3,0-9.6-4.3-9.6-9.6v-32.54c0-5.3,4.3-9.6,9.6-9.6h393.47c5.3,0,9.6,4.3,9.6,9.6
		v32.54C462.33,237.78,458.03,242.08,452.73,242.08z"/>
	<path class="st4" d="M452.73,462.33H59.27c-5.3,0-9.6-4.3-9.6-9.6v-32.54c0-5.3,4.3-9.6,9.6-9.6h393.47c5.3,0,9.6,4.3,9.6,9.6
		v32.54C462.33,458.03,458.03,462.33,452.73,462.33z"/>
	<g>
		<path d="M213.62,307.82l-33.13,18.54l33.13,18.38v18.99l-47.36-27.5v-19.75l47.36-27.5V307.82z"/>
		<path d="M268.19,263.76h17.74l-42.13,125.18h-17.74L268.19,263.76z"/>
		<path d="M345.74,316.47v19.75l-47.36,27.5v-18.99l33.13-18.38l-33.13-18.54v-18.84L345.74,316.47z"/>
	</g>
</g>
</svg>
