<?xml version="1.0" encoding="utf-8"?>
<!-- Generator: Adobe Illustrator 27.2.0, SVG Export Plug-In . SVG Version: 6.00 Build 0)  -->
<svg version="1.1" id="Layer_1" xmlns="http://www.w3.org/2000/svg" xmlns:xlink="http://www.w3.org/1999/xlink" x="0px" y="0px"
	 viewBox="0 0 512 512" style="enable-background:new 0 0 512 512;" xml:space="preserve">
<style type="text/css">
	.st0{fill:#FFFFFF;}
	.st1{fill:#0080FF;}
	.st2{fill:none;stroke:#D1D3D4;stroke-width:3.5181;stroke-linecap:round;stroke-miterlimit:10;}
	.st3{fill:url(#SVGID_1_);}
	.st4{fill:#D1D3D4;}
	.st5{fill:url(#SVGID_00000007396219603938587360000011408259165583319452_);}
	.st6{fill:url(#SVGID_00000137102958062244882040000006657807599168602249_);}
	.st7{fill:url(#SVGID_00000031889162228508417730000006759440342570461576_);}
	.st8{fill:url(#SVGID_00000151530890479083045800000017155297627363830416_);}
	.st9{fill:url(#SVGID_00000078025451841775089860000001397564395778274707_);}
	.st10{fill:url(#SVGID_00000086658126459431685540000011467205032552683936_);}
	.st11{fill:url(#SVGID_00000025423043820477087670000013966027154770983357_);}
	.st12{fill:url(#SVGID_00000132811065504457915730000016044008158314018205_);}
	.st13{fill:url(#SVGID_00000005235374136818726530000005576631653931020963_);}
	.st14{fill:url(#SVGID_00000145037607375751801290000017767553540726902153_);}
	.st15{fill:url(#SVGID_00000128485787597902551780000012177584338764794293_);}
	.st16{fill:url(#SVGID_00000147183457824823100740000015407057339552865702_);}
	.st17{fill:url(#SVGID_00000054962099681570457060000002058468317842532281_);}
	.st18{fill:url(#SVGID_00000017487094014829723640000015904990274292597662_);}
	.st19{fill:url(#SVGID_00000057866744646144518510000002796711102408606911_);}
	.st20{fill:url(#SVGID_00000147185366572266315520000010264126503253579664_);}
	.st21{fill:url(#SVGID_00000088836586416519125470000011334721989430943929_);}
	.st22{fill:url(#SVGID_00000116921045450764726050000017674556940589422257_);}
	.st23{fill:url(#SVGID_00000019680629212390324150000014480072904812803237_);}
	.st24{fill:url(#SVGID_00000033330790272353414100000006301101710029061029_);}
	.st25{fill:url(#SVGID_00000023270061977955751660000009891013077421430437_);}
	.st26{fill:url(#SVGID_00000021808414093162599060000010264290115651700625_);}
	.st27{fill:url(#SVGID_00000102504849618528210490000002754302747369910421_);}
	.st28{fill:url(#SVGID_00000057836304512423268560000013548989733652215977_);}
	.st29{fill:url(#SVGID_00000004539400896666673790000016393279527062712970_);}
	.st30{fill:url(#SVGID_00000045596034448995879550000009516813437247054521_);}
	.st31{fill:url(#SVGID_00000057833300769829033880000008937468250795337881_);}
	.st32{fill:url(#SVGID_00000042698526284174362850000009434744750427384253_);}
	.st33{fill:url(#SVGID_00000094604727484140686910000008052428322006173594_);}
	.st34{fill:url(#SVGID_00000022527323020112719960000007461651037836504983_);}
	.st35{fill:url(#SVGID_00000139976939514046274560000003294844833304274363_);}
	.st36{fill:url(#SVGID_00000069396318448810971120000006683183328809042065_);}
</style>
<g>
	<path class="st0" d="M479.11,512H32.89C14.73,512,0,497.27,0,479.11V32.89C0,14.73,14.73,0,32.89,0h446.21
		C497.27,0,512,14.73,512,32.89v446.21C512,497.27,497.27,512,479.11,512z"/>
	<path class="st1" d="M325.12,68.86H59.27c-5.3,0-9.6-4.3-9.6-9.6v0c0-5.3,4.3-9.6,9.6-9.6h265.85c5.3,0,9.6,4.3,9.6,9.6v0
		C334.72,64.57,330.42,68.86,325.12,68.86z"/>
	<path class="st1" d="M452.73,68.86L452.73,68.86c-5.3,0-9.6-4.3-9.6-9.6v0c0-5.3,4.3-9.6,9.6-9.6h0c5.3,0,9.6,4.3,9.6,9.6v0
		C462.33,64.57,458.03,68.86,452.73,68.86z"/>
	<line class="st2" x1="49.67" y1="100.75" x2="462.33" y2="100.75"/>
	<path class="st4" d="M452.73,168.66H59.27c-5.3,0-9.6-4.3-9.6-9.6v-32.54c0-5.3,4.3-9.6,9.6-9.6h393.47c5.3,0,9.6,4.3,9.6,9.6
		v32.54C462.33,164.36,458.03,168.66,452.73,168.66z"/>
	<linearGradient id="SVGID_1_" gradientUnits="userSpaceOnUse" x1="49.6698" y1="216.2091" x2="462.3301" y2="216.2091">
		<stop  offset="0" style="stop-color:#131590"/>
		<stop  offset="1" style="stop-color:#3B60F6"/>
	</linearGradient>
	<path class="st3" d="M452.73,242.08H59.27c-5.3,0-9.6-4.3-9.6-9.6v-32.54c0-5.3,4.3-9.6,9.6-9.6h393.47c5.3,0,9.6,4.3,9.6,9.6
		v32.54C462.33,237.78,458.03,242.08,452.73,242.08z"/>
	<path class="st4" d="M452.73,462.33H59.27c-5.3,0-9.6-4.3-9.6-9.6v-32.54c0-5.3,4.3-9.6,9.6-9.6h393.47c5.3,0,9.6,4.3,9.6,9.6
		v32.54C462.33,458.03,458.03,462.33,452.73,462.33z"/>
	<g>
		<path class="st4" d="M358.21,388.91H153.79c-5.3,0-9.6-4.3-9.6-9.6V273.36c0-5.3,4.3-9.6,9.6-9.6h204.42c5.3,0,9.6,4.3,9.6,9.6
			v105.96C367.81,384.62,363.51,388.91,358.21,388.91z"/>
		
			<linearGradient id="SVGID_00000023247167335438040730000011890109199105555382_" gradientUnits="userSpaceOnUse" x1="245.3299" y1="378.5811" x2="245.3299" y2="294.4206">
			<stop  offset="0" style="stop-color:#FFFFFF;stop-opacity:0"/>
			<stop  offset="0.8603" style="stop-color:#FFFFFF"/>
		</linearGradient>
		<path style="fill:url(#SVGID_00000023247167335438040730000011890109199105555382_);" d="M178.59,378.58
			c0,0,11.03-82.98,34.82-84.14s29.51,61.27,43.52,62.09c9.87,0.58,35.98-54.55,55.13,22.05H178.59z"/>
		
			<linearGradient id="SVGID_00000026885792055476167710000016723296186830175412_" gradientUnits="userSpaceOnUse" x1="329.5769" y1="318.9891" x2="329.5769" y2="283.9657">
			<stop  offset="0" style="stop-color:#FFFFFF;stop-opacity:0"/>
			<stop  offset="0.8603" style="stop-color:#FFFFFF"/>
		</linearGradient>
		<circle style="fill:url(#SVGID_00000026885792055476167710000016723296186830175412_);" cx="329.58" cy="301.48" r="17.51"/>
	</g>
</g>
</svg>
