<?xml version="1.0" encoding="utf-8"?>
<!-- Generator: Adobe Illustrator 27.2.0, SVG Export Plug-In . SVG Version: 6.00 Build 0)  -->
<svg version="1.1" id="Layer_1" xmlns="http://www.w3.org/2000/svg" xmlns:xlink="http://www.w3.org/1999/xlink" x="0px" y="0px"
	 viewBox="0 0 512 512" style="enable-background:new 0 0 512 512;" xml:space="preserve">
<style type="text/css">
	.st0{fill:#FFFFFF;}
	.st1{fill:#0080FF;}
	.st2{fill:none;stroke:#D1D3D4;stroke-width:3.5181;stroke-linecap:round;stroke-miterlimit:10;}
	.st3{fill:url(#SVGID_1_);}
	.st4{fill:#D1D3D4;}
	.st5{fill:url(#SVGID_00000106121643991177402380000017828744532742600841_);}
	.st6{fill:url(#SVGID_00000179611094337150676180000017207745133534416575_);}
	.st7{fill:url(#SVGID_00000044863377573845527090000015259466751849695897_);}
	.st8{fill:url(#SVGID_00000061465893378539494230000010254862542790897835_);}
	.st9{fill:url(#SVGID_00000016787838751277857280000018116384346611903158_);}
	.st10{fill:url(#SVGID_00000178178363345700140810000015101694201561759148_);}
	.st11{fill:url(#SVGID_00000052094990488810917300000011872619921437776771_);}
	.st12{fill:url(#SVGID_00000086669660581221693430000014882939088756534194_);}
	.st13{fill:url(#SVGID_00000056409075549378189460000010316010104500711607_);}
	.st14{fill:url(#SVGID_00000018915830880077712400000009798135625765512597_);}
	.st15{fill:url(#SVGID_00000049925559808937762910000015390648819339607729_);}
	.st16{fill:url(#SVGID_00000093165488842423557520000014555534964251898280_);}
	.st17{fill:url(#SVGID_00000104667016510746901350000000882244047070079112_);}
	.st18{fill:url(#SVGID_00000066482118768556347710000012136060498109262739_);}
	.st19{fill:url(#SVGID_00000012444878701937057700000016275734311706535334_);}
	.st20{fill:url(#SVGID_00000098221319029618378410000008937767738054198695_);}
	.st21{fill:url(#SVGID_00000079468842495847321650000004741591951677055931_);}
	.st22{fill:url(#SVGID_00000034088280764204394370000010721320509384202910_);}
	.st23{fill:url(#SVGID_00000173860829266937369460000011974585114216357803_);}
	.st24{fill:url(#SVGID_00000042719956739247251260000009496521002620332469_);}
	.st25{fill:url(#SVGID_00000050642790060776463420000009846307783964605076_);}
	.st26{fill:url(#SVGID_00000050642832770673362140000008079951436215693185_);}
	.st27{fill:url(#SVGID_00000114772800522254149210000005368843532090189735_);}
	.st28{fill:url(#SVGID_00000092432074063259604870000008041542380589415093_);}
	.st29{fill:url(#SVGID_00000104700728042346499500000002918057793460179899_);}
	.st30{fill:url(#SVGID_00000023279002376382152730000017379240793612976302_);}
	.st31{fill:url(#SVGID_00000147911308426593744700000005353822966021597360_);}
	.st32{fill:url(#SVGID_00000082343026979513175450000011784837932836560275_);}
	.st33{fill:url(#SVGID_00000108281965240910872190000017051812492765078453_);}
	.st34{fill:url(#SVGID_00000008850991299217805690000002661082512629795470_);}
	.st35{fill:url(#SVGID_00000146458863355153961250000013198655154074970776_);}
	.st36{fill:url(#SVGID_00000107572165402333205850000005026845172398932112_);}
</style>
<g>
	<path class="st0" d="M479.15,512.05H32.94c-18.17,0-32.89-14.73-32.89-32.89V32.94c0-18.17,14.73-32.89,32.89-32.89h446.21
		c18.17,0,32.89,14.73,32.89,32.89v446.21C512.05,497.32,497.32,512.05,479.15,512.05z"/>
	<path class="st1" d="M325.17,68.91H59.32c-5.3,0-9.6-4.3-9.6-9.6v0c0-5.3,4.3-9.6,9.6-9.6h265.85c5.3,0,9.6,4.3,9.6,9.6v0
		C334.77,64.62,330.47,68.91,325.17,68.91z"/>
	<path class="st1" d="M452.78,68.91L452.78,68.91c-5.3,0-9.6-4.3-9.6-9.6v0c0-5.3,4.3-9.6,9.6-9.6l0,0c5.3,0,9.6,4.3,9.6,9.6v0
		C462.38,64.62,458.08,68.91,452.78,68.91z"/>
	<line class="st2" x1="49.72" y1="100.8" x2="462.38" y2="100.8"/>
	<linearGradient id="SVGID_1_" gradientUnits="userSpaceOnUse" x1="49.7188" y1="142.8402" x2="462.3792" y2="142.8402">
		<stop  offset="0" style="stop-color:#131590"/>
		<stop  offset="1" style="stop-color:#3B60F6"/>
	</linearGradient>
	<path class="st3" d="M452.78,168.71H59.32c-5.3,0-9.6-4.3-9.6-9.6v-32.54c0-5.3,4.3-9.6,9.6-9.6h393.47c5.3,0,9.6,4.3,9.6,9.6
		v32.54C462.38,164.41,458.08,168.71,452.78,168.71z"/>
	<path class="st4" d="M452.78,242.13H59.32c-5.3,0-9.6-4.3-9.6-9.6v-32.54c0-5.3,4.3-9.6,9.6-9.6h393.47c5.3,0,9.6,4.3,9.6,9.6
		v32.54C462.38,237.83,458.08,242.13,452.78,242.13z"/>
	<path class="st4" d="M452.78,315.54H59.32c-5.3,0-9.6-4.3-9.6-9.6v-32.54c0-5.3,4.3-9.6,9.6-9.6h393.47c5.3,0,9.6,4.3,9.6,9.6
		v32.54C462.38,311.25,458.08,315.54,452.78,315.54z"/>
	<path class="st4" d="M452.78,388.96H59.32c-5.3,0-9.6-4.3-9.6-9.6v-32.54c0-5.3,4.3-9.6,9.6-9.6h393.47c5.3,0,9.6,4.3,9.6,9.6
		v32.54C462.38,384.66,458.08,388.96,452.78,388.96z"/>
	<path class="st4" d="M452.78,462.38H59.32c-5.3,0-9.6-4.3-9.6-9.6v-32.54c0-5.3,4.3-9.6,9.6-9.6h393.47c5.3,0,9.6,4.3,9.6,9.6
		v32.54C462.38,458.08,458.08,462.38,452.78,462.38z"/>
</g>
</svg>
