<?xml version="1.0" encoding="utf-8"?>
<!-- Generator: Adobe Illustrator 27.2.0, SVG Export Plug-In . SVG Version: 6.00 Build 0)  -->
<svg version="1.1" id="Layer_1" xmlns="http://www.w3.org/2000/svg" xmlns:xlink="http://www.w3.org/1999/xlink" x="0px" y="0px"
	 viewBox="0 0 512 512" style="enable-background:new 0 0 512 512;" xml:space="preserve">
<style type="text/css">
	.st0{fill:#FFFFFF;}
	.st1{fill:#0080FF;}
	.st2{fill:none;stroke:#D1D3D4;stroke-width:3.5181;stroke-linecap:round;stroke-miterlimit:10;}
	.st3{fill:url(#SVGID_1_);}
	.st4{fill:#D1D3D4;}
	.st5{fill:url(#SVGID_00000073700175593570245220000002742522670033071531_);}
	.st6{fill:url(#SVGID_00000142176381874718060390000001980527783409269391_);}
	.st7{fill:url(#SVGID_00000065049741001064563610000000917623155002349205_);}
	.st8{fill:url(#SVGID_00000178175957717952135720000009471979824158934912_);}
	.st9{fill:url(#SVGID_00000132786594541628122180000011947511448445252279_);}
	.st10{fill:url(#SVGID_00000034083840869370793660000000260837697307663506_);}
	.st11{fill:url(#SVGID_00000068661111239965455190000016980495403502087341_);}
	.st12{fill:url(#SVGID_00000053525734326517446300000007519077869341929863_);}
	.st13{fill:url(#SVGID_00000130618507729194284780000005032924005471213187_);}
	.st14{fill:url(#SVGID_00000013911445019401648610000008585970031687266238_);}
	.st15{fill:url(#SVGID_00000016057444694026218210000018008478423020023995_);}
	.st16{fill:url(#SVGID_00000133520206003061959740000004739607735032699830_);}
	.st17{fill:url(#SVGID_00000053509441490427742740000000807534260191081905_);}
	.st18{fill:url(#SVGID_00000089538341577320422100000005779327097117103031_);}
	.st19{fill:url(#SVGID_00000068652529180920142350000014750786501322391220_);}
	.st20{fill:url(#SVGID_00000166675832966073988630000007518838734551409556_);}
	.st21{fill:url(#SVGID_00000101084778420772487080000004338718018986740353_);}
	.st22{fill:url(#SVGID_00000038386192704249694910000006709153272504766889_);}
	.st23{fill:url(#SVGID_00000166673726435887054620000001267552317687485580_);}
	.st24{fill:url(#SVGID_00000055667953115097275090000007129952267311598739_);}
	.st25{fill:url(#SVGID_00000073708841454117737130000006718092392438539941_);}
	.st26{fill:url(#SVGID_00000025410742002228282250000002145998441226703011_);}
	.st27{fill:url(#SVGID_00000108297473863680132850000002439655411434700987_);}
	.st28{fill:url(#SVGID_00000080208866480228921030000009766472940861080986_);}
	.st29{fill:url(#SVGID_00000153704831449836125480000004825428304951190434_);}
	.st30{fill:url(#SVGID_00000183250558324491348240000011214465825897258120_);}
	.st31{fill:url(#SVGID_00000096741667249372497600000006343003789969014674_);}
	.st32{fill:url(#SVGID_00000022553803510428722980000017429472619104051333_);}
	.st33{fill:url(#SVGID_00000155125961705186253060000009324819369810987405_);}
	.st34{fill:url(#SVGID_00000023273284852942512310000011217495726722678155_);}
	.st35{fill:url(#SVGID_00000112630497432942907720000010565942750882821278_);}
	.st36{fill:url(#SVGID_00000039102337763641665420000006136029603207888533_);}
</style>
<g>
	<path class="st0" d="M479.11,512H32.89C14.73,512,0,497.27,0,479.11V32.89C0,14.73,14.73,0,32.89,0h446.21
		C497.27,0,512,14.73,512,32.89v446.21C512,497.27,497.27,512,479.11,512z"/>
	<path class="st1" d="M325.12,68.86H59.27c-5.3,0-9.6-4.3-9.6-9.6v0c0-5.3,4.3-9.6,9.6-9.6h265.85c5.3,0,9.6,4.3,9.6,9.6v0
		C334.72,64.57,330.42,68.86,325.12,68.86z"/>
	<path class="st1" d="M452.73,68.86L452.73,68.86c-5.3,0-9.6-4.3-9.6-9.6v0c0-5.3,4.3-9.6,9.6-9.6h0c5.3,0,9.6,4.3,9.6,9.6v0
		C462.33,64.57,458.03,68.86,452.73,68.86z"/>
	<line class="st2" x1="49.67" y1="100.75" x2="462.33" y2="100.75"/>
	<linearGradient id="SVGID_1_" gradientUnits="userSpaceOnUse" x1="49.6698" y1="142.7912" x2="462.3301" y2="142.7912">
		<stop  offset="0" style="stop-color:#131590"/>
		<stop  offset="1" style="stop-color:#3B60F6"/>
	</linearGradient>
	<path class="st3" d="M452.73,168.66H59.27c-5.3,0-9.6-4.3-9.6-9.6v-32.54c0-5.3,4.3-9.6,9.6-9.6h393.47c5.3,0,9.6,4.3,9.6,9.6
		v32.54C462.33,164.36,458.03,168.66,452.73,168.66z"/>
	<path class="st4" d="M452.73,462.33H59.27c-5.3,0-9.6-4.3-9.6-9.6v-32.54c0-5.3,4.3-9.6,9.6-9.6h393.47c5.3,0,9.6,4.3,9.6,9.6
		v32.54C462.33,458.03,458.03,462.33,452.73,462.33z"/>
	<g>
		<g>
			<path d="M222.79,245.99l-25.82,77.89h-15.35l-19.25-57.64l-19.58,57.64h-15.47l-25.82-77.89h15.02l19.36,59.2l20.14-59.2h13.35
				l19.69,59.53l19.92-59.53H222.79z"/>
			<path d="M239.26,320.76c-4.82-2.59-8.59-6.21-11.29-10.85c-2.71-4.63-4.06-9.88-4.06-15.74c0-5.86,1.35-11.09,4.06-15.69
				c2.71-4.6,6.47-8.19,11.29-10.79c4.82-2.6,10.24-3.9,16.25-3.9c6.08,0,11.53,1.3,16.35,3.9c4.82,2.6,8.59,6.19,11.3,10.79
				c2.71,4.6,4.06,9.83,4.06,15.69c0,5.86-1.35,11.11-4.06,15.74c-2.71,4.64-6.47,8.26-11.3,10.85c-4.82,2.6-10.27,3.9-16.35,3.9
				C249.5,324.66,244.08,323.36,239.26,320.76z M268.19,307.63c3.34-3.41,5.01-7.9,5.01-13.46c0-5.57-1.67-10.05-5.01-13.46
				c-3.34-3.41-7.57-5.12-12.68-5.12c-5.12,0-9.33,1.71-12.63,5.12c-3.3,3.41-4.95,7.9-4.95,13.46c0,5.56,1.65,10.05,4.95,13.46
				c3.3,3.42,7.51,5.12,12.63,5.12C260.62,312.75,264.85,311.05,268.19,307.63z"/>
			<path d="M334.95,263.79v13.24c-1.19-0.22-2.26-0.33-3.23-0.33c-5.41,0-9.64,1.58-12.68,4.73c-3.04,3.15-4.56,7.7-4.56,13.63
				v28.82h-13.91v-59.42h13.24v8.68C317.81,266.91,324.86,263.79,334.95,263.79z"/>
			<path d="M404.38,241.32v82.56h-13.35v-7.68c-2.3,2.82-5.14,4.93-8.51,6.34c-3.38,1.41-7.1,2.12-11.18,2.12
				c-5.71,0-10.85-1.26-15.41-3.78c-4.56-2.52-8.14-6.1-10.74-10.74c-2.6-4.63-3.89-9.96-3.89-15.97c0-6.01,1.3-11.31,3.89-15.91
				c2.6-4.6,6.18-8.16,10.74-10.68c4.56-2.52,9.7-3.78,15.41-3.78c3.93,0,7.53,0.67,10.79,2c3.26,1.34,6.04,3.34,8.35,6.01v-30.49
				H404.38z M382.01,310.47c2.67-1.52,4.79-3.69,6.34-6.51c1.56-2.82,2.34-6.08,2.34-9.79c0-3.71-0.78-6.97-2.34-9.79
				c-1.56-2.82-3.67-4.99-6.34-6.51c-2.67-1.52-5.67-2.28-9.01-2.28s-6.34,0.76-9.01,2.28c-2.67,1.52-4.79,3.69-6.34,6.51
				c-1.56,2.82-2.34,6.08-2.34,9.79c0,3.71,0.78,6.97,2.34,9.79c1.56,2.82,3.67,4.99,6.34,6.51c2.67,1.52,5.67,2.28,9.01,2.28
				S379.34,311.99,382.01,310.47z"/>
		</g>
	</g>
</g>
</svg>
