<?xml version="1.0" encoding="utf-8"?>
<!-- Generator: Adobe Illustrator 27.2.0, SVG Export Plug-In . SVG Version: 6.00 Build 0)  -->
<svg version="1.1" id="Layer_1" xmlns="http://www.w3.org/2000/svg" xmlns:xlink="http://www.w3.org/1999/xlink" x="0px" y="0px"
	 viewBox="0 0 512 512" style="enable-background:new 0 0 512 512;" xml:space="preserve">
<style type="text/css">
	.st0{fill:#FFFFFF;}
	.st1{fill:#0080FF;}
	.st2{fill:none;stroke:#D1D3D4;stroke-width:3.5181;stroke-linecap:round;stroke-miterlimit:10;}
	.st3{fill:url(#SVGID_1_);}
	.st4{fill:#D1D3D4;}
	.st5{fill:url(#SVGID_00000017479488049239035690000002208449168902274723_);}
	.st6{fill:url(#SVGID_00000044875986981766301670000018012787890082198931_);}
	.st7{fill:url(#SVGID_00000150100392319238117320000008054804180991557524_);}
	.st8{fill:url(#SVGID_00000130615810354867027300000015560807245378060971_);}
	.st9{fill:url(#SVGID_00000170960126579974926780000015131388127953922987_);}
	.st10{fill:url(#SVGID_00000060719645384021393090000012287018702488502412_);}
	.st11{fill:url(#SVGID_00000111180781269732813530000005792438851015114412_);}
	.st12{fill:url(#SVGID_00000108282067645291296430000018285583813581511610_);}
	.st13{fill:url(#SVGID_00000135692230065249985900000002456198414142973362_);}
	.st14{fill:url(#SVGID_00000160909778006592744040000016539099364250392747_);}
	.st15{fill:url(#SVGID_00000134241927929875543410000002348480244588691358_);}
	.st16{fill:url(#SVGID_00000038371237181787693430000008370096425107833487_);}
	.st17{fill:url(#SVGID_00000164506792518181280860000000089547467983500930_);}
	.st18{fill:url(#SVGID_00000081638912291298049290000015450916410861277870_);}
	.st19{fill:url(#SVGID_00000097501327212634835860000002847884611421313962_);}
	.st20{fill:url(#SVGID_00000079474757559726070310000002151332536140224161_);}
	.st21{fill:url(#SVGID_00000002367743870038310710000001886720210185294760_);}
	.st22{fill:url(#SVGID_00000129203406926638376500000009589815846393302440_);}
	.st23{fill:url(#SVGID_00000143600514235767464120000005795741944195872703_);}
	.st24{fill:url(#SVGID_00000092414464239673374770000016615902330390849678_);}
	.st25{fill:url(#SVGID_00000092458507062828036870000009304597868117211274_);}
	.st26{fill:url(#SVGID_00000023272814340238265850000003373382617274909598_);}
	.st27{fill:url(#SVGID_00000012469785228841126560000000306198845335758003_);}
	.st28{fill:url(#SVGID_00000095298453530932340540000011065479799960773765_);}
	.st29{fill:url(#SVGID_00000177446242651904944350000002133600401915727029_);}
	.st30{fill:url(#SVGID_00000035491650268929020680000010337628545663168401_);}
	.st31{fill:url(#SVGID_00000145049786103360148050000009539017179410964916_);}
	.st32{fill:url(#SVGID_00000128463797517977624940000013759411660858562991_);}
	.st33{fill:url(#SVGID_00000090993379108352680850000005912123508045154973_);}
	.st34{fill:url(#SVGID_00000091005138196994997390000015985722422027869612_);}
	.st35{fill:url(#SVGID_00000135662508417116190930000005714195473403210113_);}
	.st36{fill:url(#SVGID_00000122688121640853805050000015481331839971700647_);}
</style>
<g>
	<path class="st0" d="M479.11,512H32.89C14.73,512,0,497.27,0,479.11V32.89C0,14.73,14.73,0,32.89,0h446.21
		C497.27,0,512,14.73,512,32.89v446.21C512,497.27,497.27,512,479.11,512z"/>
	<path class="st1" d="M325.12,68.86H59.27c-5.3,0-9.6-4.3-9.6-9.6v0c0-5.3,4.3-9.6,9.6-9.6h265.85c5.3,0,9.6,4.3,9.6,9.6v0
		C334.72,64.57,330.42,68.86,325.12,68.86z"/>
	<path class="st1" d="M452.73,68.86L452.73,68.86c-5.3,0-9.6-4.3-9.6-9.6v0c0-5.3,4.3-9.6,9.6-9.6h0c5.3,0,9.6,4.3,9.6,9.6v0
		C462.33,64.57,458.03,68.86,452.73,68.86z"/>
	<line class="st2" x1="49.67" y1="100.75" x2="462.33" y2="100.75"/>
	<path class="st4" d="M452.73,168.66H59.27c-5.3,0-9.6-4.3-9.6-9.6v-32.54c0-5.3,4.3-9.6,9.6-9.6h393.47c5.3,0,9.6,4.3,9.6,9.6
		v32.54C462.33,164.36,458.03,168.66,452.73,168.66z"/>
	<path class="st4" d="M452.73,242.08H59.27c-5.3,0-9.6-4.3-9.6-9.6v-32.54c0-5.3,4.3-9.6,9.6-9.6h393.47c5.3,0,9.6,4.3,9.6,9.6
		v32.54C462.33,237.78,458.03,242.08,452.73,242.08z"/>
	<path class="st4" d="M452.73,315.49H59.27c-5.3,0-9.6-4.3-9.6-9.6v-32.54c0-5.3,4.3-9.6,9.6-9.6h393.47c5.3,0,9.6,4.3,9.6,9.6
		v32.54C462.33,311.2,458.03,315.49,452.73,315.49z"/>
	<path class="st4" d="M452.73,388.91H59.27c-5.3,0-9.6-4.3-9.6-9.6v-32.54c0-5.3,4.3-9.6,9.6-9.6h393.47c5.3,0,9.6,4.3,9.6,9.6
		v32.54C462.33,384.62,458.03,388.91,452.73,388.91z"/>
	<linearGradient id="SVGID_1_" gradientUnits="userSpaceOnUse" x1="49.6698" y1="436.4628" x2="462.3301" y2="436.4628">
		<stop  offset="0" style="stop-color:#131590"/>
		<stop  offset="1" style="stop-color:#3B60F6"/>
	</linearGradient>
	<path class="st3" d="M452.73,462.33H59.27c-5.3,0-9.6-4.3-9.6-9.6v-32.54c0-5.3,4.3-9.6,9.6-9.6h393.47c5.3,0,9.6,4.3,9.6,9.6
		v32.54C462.33,458.03,458.03,462.33,452.73,462.33z"/>
</g>
</svg>
