<?xml version="1.0" encoding="utf-8"?>
<!-- Generator: Adobe Illustrator 27.2.0, SVG Export Plug-In . SVG Version: 6.00 Build 0)  -->
<svg version="1.1" id="Layer_1" xmlns="http://www.w3.org/2000/svg" xmlns:xlink="http://www.w3.org/1999/xlink" x="0px" y="0px"
	 viewBox="0 0 512 512" style="enable-background:new 0 0 512 512;" xml:space="preserve">
<style type="text/css">
	.st0{fill:#FFFFFF;}
	.st1{fill:#0080FF;}
	.st2{fill:none;stroke:#D1D3D4;stroke-width:3.5181;stroke-linecap:round;stroke-miterlimit:10;}
	.st3{fill:url(#SVGID_1_);}
	.st4{fill:#D1D3D4;}
	.st5{fill:url(#SVGID_00000179641848326749345680000017795932691169963401_);}
	.st6{fill:url(#SVGID_00000143575953463714249010000005613209386235201469_);}
	.st7{fill:url(#SVGID_00000097493934695210540990000014555194530364719761_);}
	.st8{fill:url(#SVGID_00000095307492143594137850000012259183288737027716_);}
	.st9{fill:url(#SVGID_00000069374744660284406190000003799919344797301648_);}
	.st10{fill:url(#SVGID_00000130646641853417137020000014695126416096541316_);}
	.st11{fill:url(#SVGID_00000025419266380235267490000001160156867447798450_);}
	.st12{fill:url(#SVGID_00000123428483813566717090000007521511760434628524_);}
	.st13{fill:url(#SVGID_00000064321405163349186020000012651168165743394471_);}
	.st14{fill:url(#SVGID_00000179625574107931665020000017630616629415503254_);}
	.st15{fill:url(#SVGID_00000080926852443034542810000005666413826143101885_);}
	.st16{fill:url(#SVGID_00000150083421787977213490000017469401369976810641_);}
	.st17{fill:url(#SVGID_00000082334542047519993120000016560562458742238655_);}
	.st18{fill:url(#SVGID_00000044160361338649839920000008079736620337552301_);}
	.st19{fill:url(#SVGID_00000158014622227984034910000011648003451463127734_);}
	.st20{fill:url(#SVGID_00000061473920002024351490000015793166083543985591_);}
	.st21{fill:url(#SVGID_00000117638391460618988890000015590557747520245916_);}
	.st22{fill:url(#SVGID_00000152262912316261872200000010992972014517969825_);}
	.st23{fill:url(#SVGID_00000140015513846249613790000009367713501131732915_);}
	.st24{fill:url(#SVGID_00000091713627548386691470000009332355879249161108_);}
	.st25{fill:url(#SVGID_00000181806452001351773450000007544440164499915680_);}
	.st26{fill:url(#SVGID_00000077326247543036843130000007333044950457950625_);}
	.st27{fill:url(#SVGID_00000115505491610187943720000000307195719853407893_);}
	.st28{fill:url(#SVGID_00000011001456526887028640000010537726951514308480_);}
	.st29{fill:url(#SVGID_00000155113130319183925880000011715788879569949089_);}
	.st30{fill:url(#SVGID_00000125587856838223939140000000873728339743693231_);}
	.st31{fill:url(#SVGID_00000067950744425558243670000000462934266234112181_);}
	.st32{fill:url(#SVGID_00000119833631413536245150000007213192780042236345_);}
	.st33{fill:url(#SVGID_00000127010368191732133350000003529906417806079653_);}
	.st34{fill:url(#SVGID_00000052819645028858364140000005891790041939435394_);}
	.st35{fill:url(#SVGID_00000076601833790862891470000013620017696231711882_);}
	.st36{fill:url(#SVGID_00000176735962650462151040000016219703845918915982_);}
</style>
<g>
	<path class="st0" d="M479.15,512.05H32.94c-18.17,0-32.89-14.73-32.89-32.89V32.94c0-18.17,14.73-32.89,32.89-32.89h446.21
		c18.17,0,32.89,14.73,32.89,32.89v446.21C512.05,497.32,497.32,512.05,479.15,512.05z"/>
	<path class="st1" d="M325.17,68.91H59.32c-5.3,0-9.6-4.3-9.6-9.6v0c0-5.3,4.3-9.6,9.6-9.6h265.85c5.3,0,9.6,4.3,9.6,9.6v0
		C334.77,64.62,330.47,68.91,325.17,68.91z"/>
	<path class="st1" d="M452.78,68.91L452.78,68.91c-5.3,0-9.6-4.3-9.6-9.6v0c0-5.3,4.3-9.6,9.6-9.6l0,0c5.3,0,9.6,4.3,9.6,9.6v0
		C462.38,64.62,458.08,68.91,452.78,68.91z"/>
	<line class="st2" x1="49.72" y1="100.8" x2="462.38" y2="100.8"/>
	<path class="st4" d="M452.78,168.71H59.32c-5.3,0-9.6-4.3-9.6-9.6v-32.54c0-5.3,4.3-9.6,9.6-9.6h393.47c5.3,0,9.6,4.3,9.6,9.6
		v32.54C462.38,164.41,458.08,168.71,452.78,168.71z"/>
	<path class="st4" d="M452.78,242.13H59.32c-5.3,0-9.6-4.3-9.6-9.6v-32.54c0-5.3,4.3-9.6,9.6-9.6h393.47c5.3,0,9.6,4.3,9.6,9.6
		v32.54C462.38,237.83,458.08,242.13,452.78,242.13z"/>
	<linearGradient id="SVGID_1_" gradientUnits="userSpaceOnUse" x1="49.7188" y1="289.676" x2="462.3792" y2="289.676">
		<stop  offset="0" style="stop-color:#131590"/>
		<stop  offset="1" style="stop-color:#3B60F6"/>
	</linearGradient>
	<path class="st3" d="M452.78,315.54H59.32c-5.3,0-9.6-4.3-9.6-9.6v-32.54c0-5.3,4.3-9.6,9.6-9.6h393.47c5.3,0,9.6,4.3,9.6,9.6
		v32.54C462.38,311.25,458.08,315.54,452.78,315.54z"/>
	<path class="st4" d="M452.78,388.96H59.32c-5.3,0-9.6-4.3-9.6-9.6v-32.54c0-5.3,4.3-9.6,9.6-9.6h393.47c5.3,0,9.6,4.3,9.6,9.6
		v32.54C462.38,384.66,458.08,388.96,452.78,388.96z"/>
	<path class="st4" d="M452.78,462.38H59.32c-5.3,0-9.6-4.3-9.6-9.6v-32.54c0-5.3,4.3-9.6,9.6-9.6h393.47c5.3,0,9.6,4.3,9.6,9.6
		v32.54C462.38,458.08,458.08,462.38,452.78,462.38z"/>
</g>
</svg>
