<?xml version="1.0" encoding="utf-8"?>
<!-- Generator: Adobe Illustrator 27.2.0, SVG Export Plug-In . SVG Version: 6.00 Build 0)  -->
<svg version="1.1" id="Layer_1" xmlns="http://www.w3.org/2000/svg" xmlns:xlink="http://www.w3.org/1999/xlink" x="0px" y="0px"
	 viewBox="0 0 512 512" style="enable-background:new 0 0 512 512;" xml:space="preserve">
<style type="text/css">
	.st0{fill:#FFFFFF;}
	.st1{fill:#0080FF;}
	.st2{fill:none;stroke:#D1D3D4;stroke-width:3.5181;stroke-linecap:round;stroke-miterlimit:10;}
	.st3{fill:url(#SVGID_1_);}
	.st4{fill:#D1D3D4;}
	.st5{fill:url(#SVGID_00000018210133784685758580000005387690677971622786_);}
	.st6{fill:url(#SVGID_00000029047784204519984410000008717225650712568973_);}
	.st7{fill:url(#SVGID_00000094614884877424479250000011303550182013281963_);}
	.st8{fill:url(#SVGID_00000005957295545642224390000003451651419915949981_);}
	.st9{fill:url(#SVGID_00000181775652598832025870000017530722477230597258_);}
	.st10{fill:url(#SVGID_00000096779960869164639210000010223461508318518422_);}
	.st11{fill:url(#SVGID_00000114773085476981402430000002821160543354024349_);}
	.st12{fill:url(#SVGID_00000174590259641735016070000006328639010556332933_);}
	.st13{fill:url(#SVGID_00000013192585690516226180000003682586831271263626_);}
	.st14{fill:url(#SVGID_00000155113237275081249870000013757950005429767600_);}
	.st15{fill:url(#SVGID_00000165915773050448302700000008059589932417631383_);}
	.st16{fill:url(#SVGID_00000116930600175501956410000004741749549589513109_);}
	.st17{fill:url(#SVGID_00000168801856741799936590000016675365406426393250_);}
	.st18{fill:url(#SVGID_00000175294487630268010910000004864538001795811479_);}
	.st19{fill:url(#SVGID_00000078745536538745119500000014617050577419321988_);}
	.st20{fill:url(#SVGID_00000103236388535601718650000009669426281414166972_);}
	.st21{fill:url(#SVGID_00000106869198600337218490000005979525935879051941_);}
	.st22{fill:url(#SVGID_00000152950400508191585080000011589454854710834333_);}
	.st23{fill:url(#SVGID_00000093141548999947569620000005987390202158865837_);}
	.st24{fill:url(#SVGID_00000167368238925891200200000016730152151380145058_);}
	.st25{fill:url(#SVGID_00000173131646427910620820000004623844805599704968_);}
	.st26{fill:url(#SVGID_00000164509391763396483860000016575354199562819247_);}
	.st27{fill:url(#SVGID_00000034077285931477223960000007291812743057088905_);}
	.st28{fill:url(#SVGID_00000125560703429422941040000017552662768707492028_);}
	.st29{fill:url(#SVGID_00000077320005411131517580000000192610346333543569_);}
	.st30{fill:url(#SVGID_00000127726565072953813590000001487729492876998273_);}
	.st31{fill:url(#SVGID_00000117670685748605395210000004877708365357858973_);}
	.st32{fill:url(#SVGID_00000083778973504866237330000013871711918413456514_);}
	.st33{fill:url(#SVGID_00000038413563787802577700000002420620812804110498_);}
	.st34{fill:url(#SVGID_00000059296131091070193450000015898457595056598974_);}
	.st35{fill:url(#SVGID_00000143595760339004876290000004164353209002678459_);}
	.st36{fill:url(#SVGID_00000119832198078477085950000007795033241049615503_);}
</style>
<g>
	<path class="st0" d="M479.11,512H32.89C14.73,512,0,497.27,0,479.11V32.89C0,14.73,14.73,0,32.89,0h446.21
		C497.27,0,512,14.73,512,32.89v446.21C512,497.27,497.27,512,479.11,512z"/>
	<path class="st1" d="M325.12,68.86H59.27c-5.3,0-9.6-4.3-9.6-9.6v0c0-5.3,4.3-9.6,9.6-9.6h265.85c5.3,0,9.6,4.3,9.6,9.6v0
		C334.72,64.57,330.42,68.86,325.12,68.86z"/>
	<path class="st1" d="M452.73,68.86L452.73,68.86c-5.3,0-9.6-4.3-9.6-9.6v0c0-5.3,4.3-9.6,9.6-9.6h0c5.3,0,9.6,4.3,9.6,9.6v0
		C462.33,64.57,458.03,68.86,452.73,68.86z"/>
	<line class="st2" x1="49.67" y1="100.75" x2="462.33" y2="100.75"/>
	<path class="st4" d="M452.73,168.66H59.27c-5.3,0-9.6-4.3-9.6-9.6v-32.54c0-5.3,4.3-9.6,9.6-9.6h393.47c5.3,0,9.6,4.3,9.6,9.6
		v32.54C462.33,164.36,458.03,168.66,452.73,168.66z"/>
	<path class="st4" d="M452.73,462.33H59.27c-5.3,0-9.6-4.3-9.6-9.6v-32.54c0-5.3,4.3-9.6,9.6-9.6h393.47c5.3,0,9.6,4.3,9.6,9.6
		v32.54C462.33,458.03,458.03,462.33,452.73,462.33z"/>
	<g>
		<g>
			<linearGradient id="SVGID_1_" gradientUnits="userSpaceOnUse" x1="55.4356" y1="290.2877" x2="456.5641" y2="290.2877">
				<stop  offset="0" style="stop-color:#131590"/>
				<stop  offset="1" style="stop-color:#3B60F6"/>
			</linearGradient>
			<path class="st3" d="M55.44,264.98h11.49v4.34h-6.21v42.75h6.21v4.34H55.44V264.98z"/>
			
				<linearGradient id="SVGID_00000177470676310236635350000005782518519757029532_" gradientUnits="userSpaceOnUse" x1="55.4356" y1="290.2877" x2="456.5641" y2="290.2877">
				<stop  offset="0" style="stop-color:#131590"/>
				<stop  offset="1" style="stop-color:#3B60F6"/>
			</linearGradient>
			<path style="fill:url(#SVGID_00000177470676310236635350000005782518519757029532_);" d="M92.33,279.32
				c2.14,1.98,3.22,4.93,3.22,8.85v17.58h-5v-3.85c-0.88,1.36-2.13,2.39-3.76,3.11c-1.63,0.71-3.56,1.07-5.8,1.07
				c-3.26,0-5.87-0.79-7.83-2.36c-1.96-1.57-2.94-3.65-2.94-6.21c0-2.56,0.93-4.62,2.8-6.18c1.87-1.56,4.84-2.34,8.9-2.34h8.35
				v-1.04c0-2.27-0.66-4.01-1.98-5.22c-1.32-1.21-3.26-1.81-5.83-1.81c-1.72,0-3.4,0.29-5.05,0.85s-3.04,1.33-4.18,2.28l-2.2-3.95
				c1.5-1.21,3.29-2.13,5.38-2.78c2.09-0.64,4.3-0.96,6.65-0.96C87.11,276.36,90.19,277.35,92.33,279.32z M87.09,300.67
				c1.46-0.9,2.53-2.17,3.18-3.82v-4.07h-8.13c-4.47,0-6.7,1.5-6.7,4.51c0,1.47,0.57,2.62,1.7,3.46c1.13,0.84,2.71,1.26,4.72,1.26
				C83.88,302.02,85.62,301.57,87.09,300.67z"/>
			
				<linearGradient id="SVGID_00000000906670379404060370000014391420095893289353_" gradientUnits="userSpaceOnUse" x1="55.4356" y1="290.2877" x2="456.5641" y2="290.2877">
				<stop  offset="0" style="stop-color:#131590"/>
				<stop  offset="1" style="stop-color:#3B60F6"/>
			</linearGradient>
			<path style="fill:url(#SVGID_00000000906670379404060370000014391420095893289353_);" d="M126.93,301.41v4.34h-24.4v-3.41
				l17.2-21.37h-16.87v-4.34h23.63v3.46l-17.2,21.32H126.93z"/>
			
				<linearGradient id="SVGID_00000126323523242375739290000005123139596454399413_" gradientUnits="userSpaceOnUse" x1="55.4356" y1="290.2877" x2="456.5641" y2="290.2877">
				<stop  offset="0" style="stop-color:#131590"/>
				<stop  offset="1" style="stop-color:#3B60F6"/>
			</linearGradient>
			<path style="fill:url(#SVGID_00000126323523242375739290000005123139596454399413_);" d="M138.19,304.16
				c-2.31-1.28-4.11-3.05-5.41-5.3c-1.3-2.25-1.95-4.81-1.95-7.67c0-2.86,0.65-5.41,1.95-7.66c1.3-2.25,3.1-4.01,5.41-5.28
				c2.31-1.26,4.91-1.9,7.8-1.9s5.49,0.63,7.77,1.9c2.29,1.26,4.09,3.02,5.39,5.28c1.3,2.25,1.95,4.81,1.95,7.66
				c0,2.86-0.65,5.41-1.95,7.67c-1.3,2.25-3.1,4.02-5.39,5.3c-2.29,1.28-4.88,1.92-7.77,1.92S140.5,305.45,138.19,304.16z
				 M151.02,300.18c1.48-0.86,2.65-2.07,3.49-3.63c0.84-1.56,1.26-3.34,1.26-5.36c0-2.02-0.42-3.8-1.26-5.36
				c-0.84-1.56-2.01-2.76-3.49-3.6c-1.48-0.85-3.16-1.26-5.03-1.26s-3.55,0.42-5.03,1.26c-1.48,0.84-2.66,2.04-3.52,3.6
				c-0.86,1.56-1.29,3.34-1.29,5.36c0,2.01,0.43,3.8,1.29,5.36c0.86,1.56,2.03,2.77,3.52,3.63c1.48,0.86,3.16,1.29,5.03,1.29
				S149.54,301.04,151.02,300.18z"/>
			
				<linearGradient id="SVGID_00000121243440084880586720000003936362738199656614_" gradientUnits="userSpaceOnUse" x1="55.4356" y1="290.2877" x2="456.5641" y2="290.2877">
				<stop  offset="0" style="stop-color:#131590"/>
				<stop  offset="1" style="stop-color:#3B60F6"/>
			</linearGradient>
			<path style="fill:url(#SVGID_00000121243440084880586720000003936362738199656614_);" d="M188,279.32
				c2.14,1.98,3.22,4.93,3.22,8.85v17.58h-5v-3.85c-0.88,1.36-2.13,2.39-3.76,3.11c-1.63,0.71-3.56,1.07-5.8,1.07
				c-3.26,0-5.87-0.79-7.83-2.36c-1.96-1.57-2.94-3.65-2.94-6.21c0-2.56,0.93-4.62,2.8-6.18c1.87-1.56,4.84-2.34,8.9-2.34h8.35
				v-1.04c0-2.27-0.66-4.01-1.98-5.22c-1.32-1.21-3.26-1.81-5.83-1.81c-1.72,0-3.4,0.29-5.05,0.85s-3.04,1.33-4.18,2.28l-2.2-3.95
				c1.5-1.21,3.29-2.13,5.38-2.78c2.09-0.64,4.3-0.96,6.65-0.96C182.77,276.36,185.86,277.35,188,279.32z M182.75,300.67
				c1.46-0.9,2.53-2.17,3.18-3.82v-4.07h-8.13c-4.47,0-6.7,1.5-6.7,4.51c0,1.47,0.57,2.62,1.7,3.46c1.13,0.84,2.71,1.26,4.72,1.26
				C179.55,302.02,181.29,301.57,182.75,300.67z"/>
			
				<linearGradient id="SVGID_00000099639077280643509400000013299363987782465695_" gradientUnits="userSpaceOnUse" x1="55.4356" y1="290.2877" x2="456.5641" y2="290.2877">
				<stop  offset="0" style="stop-color:#131590"/>
				<stop  offset="1" style="stop-color:#3B60F6"/>
			</linearGradient>
			<path style="fill:url(#SVGID_00000099639077280643509400000013299363987782465695_);" d="M228.63,264.98v40.77h-5.05v-4.61
				c-1.17,1.61-2.66,2.84-4.45,3.68c-1.79,0.85-3.77,1.26-5.93,1.26c-2.82,0-5.35-0.62-7.58-1.87c-2.24-1.24-3.99-2.99-5.25-5.25
				c-1.26-2.25-1.9-4.84-1.9-7.77c0-2.93,0.63-5.51,1.9-7.75c1.26-2.24,3.01-3.98,5.25-5.22c2.23-1.24,4.76-1.87,7.58-1.87
				c2.09,0,4.01,0.4,5.77,1.18c1.76,0.79,3.23,1.95,4.4,3.49v-16.04H228.63z M218.63,300.18c1.5-0.86,2.68-2.07,3.52-3.63
				s1.26-3.34,1.26-5.36c0-2.02-0.42-3.8-1.26-5.36c-0.84-1.56-2.01-2.76-3.52-3.6c-1.5-0.85-3.17-1.26-5-1.26
				c-1.87,0-3.55,0.42-5.03,1.26c-1.48,0.84-2.66,2.04-3.52,3.6c-0.86,1.56-1.29,3.34-1.29,5.36c0,2.01,0.43,3.8,1.29,5.36
				c0.86,1.56,2.03,2.77,3.52,3.63c1.48,0.86,3.16,1.29,5.03,1.29C215.47,301.47,217.13,301.04,218.63,300.18z"/>
			
				<linearGradient id="SVGID_00000127759336273838028050000015907159880725357994_" gradientUnits="userSpaceOnUse" x1="55.4356" y1="290.2877" x2="456.5641" y2="290.2877">
				<stop  offset="0" style="stop-color:#131590"/>
				<stop  offset="1" style="stop-color:#3B60F6"/>
			</linearGradient>
			<path style="fill:url(#SVGID_00000127759336273838028050000015907159880725357994_);" d="M240.12,305.12
				c-2.2-0.64-3.92-1.46-5.16-2.45l2.2-4.17c1.28,0.91,2.84,1.65,4.67,2.2c1.83,0.55,3.68,0.82,5.55,0.82
				c4.62,0,6.93-1.32,6.93-3.95c0-0.88-0.31-1.57-0.93-2.09c-0.63-0.51-1.4-0.89-2.34-1.13c-0.93-0.24-2.26-0.5-3.99-0.8
				c-2.34-0.36-4.26-0.79-5.74-1.26c-1.48-0.48-2.76-1.28-3.82-2.42c-1.07-1.14-1.59-2.73-1.59-4.78c0-2.64,1.1-4.75,3.29-6.35
				c2.2-1.59,5.15-2.39,8.85-2.39c1.94,0,3.88,0.24,5.83,0.71c1.94,0.48,3.54,1.12,4.78,1.92l-2.25,4.18
				c-2.38-1.54-5.18-2.31-8.41-2.31c-2.23,0-3.94,0.37-5.11,1.1c-1.17,0.73-1.76,1.7-1.76,2.91c0,0.96,0.33,1.7,0.99,2.25
				c0.66,0.55,1.47,0.95,2.45,1.21c0.97,0.26,2.34,0.55,4.09,0.88c2.35,0.4,4.24,0.83,5.69,1.29c1.45,0.46,2.68,1.24,3.71,2.33
				c1.03,1.1,1.54,2.64,1.54,4.62c0,2.64-1.13,4.73-3.38,6.29c-2.25,1.56-5.32,2.34-9.2,2.34
				C244.61,306.08,242.32,305.76,240.12,305.12z"/>
			
				<linearGradient id="SVGID_00000124122632870049906010000006211562092433439152_" gradientUnits="userSpaceOnUse" x1="55.4356" y1="290.2877" x2="456.5641" y2="290.2877">
				<stop  offset="0" style="stop-color:#131590"/>
				<stop  offset="1" style="stop-color:#3B60F6"/>
			</linearGradient>
			<path style="fill:url(#SVGID_00000124122632870049906010000006211562092433439152_);" d="M281.03,270.04
				c-0.68-0.66-1.01-1.46-1.01-2.42c0-0.95,0.34-1.77,1.01-2.44c0.68-0.68,1.53-1.02,2.56-1.02c1.03,0,1.88,0.32,2.56,0.96
				c0.68,0.64,1.02,1.44,1.02,2.39c0,0.99-0.34,1.82-1.02,2.5c-0.68,0.68-1.53,1.02-2.56,1.02
				C282.56,271.03,281.71,270.7,281.03,270.04z M280.95,276.63h5.28v29.12h-5.28V276.63z"/>
			
				<linearGradient id="SVGID_00000116228703440620743060000004798596573793211803_" gradientUnits="userSpaceOnUse" x1="55.4356" y1="290.2877" x2="456.5641" y2="290.2877">
				<stop  offset="0" style="stop-color:#131590"/>
				<stop  offset="1" style="stop-color:#3B60F6"/>
			</linearGradient>
			<path style="fill:url(#SVGID_00000116228703440620743060000004798596573793211803_);" d="M323.75,264.98v40.77h-5.05v-4.61
				c-1.17,1.61-2.66,2.84-4.45,3.68c-1.79,0.85-3.77,1.26-5.93,1.26c-2.82,0-5.35-0.62-7.58-1.87c-2.24-1.24-3.99-2.99-5.25-5.25
				c-1.26-2.25-1.9-4.84-1.9-7.77c0-2.93,0.63-5.51,1.9-7.75c1.26-2.24,3.01-3.98,5.25-5.22c2.23-1.24,4.76-1.87,7.58-1.87
				c2.09,0,4.01,0.4,5.77,1.18c1.76,0.79,3.23,1.95,4.4,3.49v-16.04H323.75z M313.75,300.18c1.5-0.86,2.68-2.07,3.52-3.63
				s1.26-3.34,1.26-5.36c0-2.02-0.42-3.8-1.26-5.36c-0.84-1.56-2.01-2.76-3.52-3.6c-1.5-0.85-3.17-1.26-5-1.26
				c-1.87,0-3.55,0.42-5.03,1.26c-1.48,0.84-2.66,2.04-3.52,3.6c-0.86,1.56-1.29,3.34-1.29,5.36c0,2.01,0.43,3.8,1.29,5.36
				c0.86,1.56,2.03,2.77,3.52,3.63c1.48,0.86,3.16,1.29,5.03,1.29C310.58,301.47,312.25,301.04,313.75,300.18z"/>
			
				<linearGradient id="SVGID_00000000192287261065456060000013749515066605219466_" gradientUnits="userSpaceOnUse" x1="55.4356" y1="290.2877" x2="456.5641" y2="290.2877">
				<stop  offset="0" style="stop-color:#131590"/>
				<stop  offset="1" style="stop-color:#3B60F6"/>
			</linearGradient>
			<path style="fill:url(#SVGID_00000000192287261065456060000013749515066605219466_);" d="M332.44,277.84h24.62v4.34h-24.62
				V277.84z M332.44,290.86h24.62v4.34h-24.62V290.86z"/>
			
				<linearGradient id="SVGID_00000178897996836682110310000012007667734254224260_" gradientUnits="userSpaceOnUse" x1="55.4356" y1="290.2877" x2="456.5641" y2="290.2877">
				<stop  offset="0" style="stop-color:#131590"/>
				<stop  offset="1" style="stop-color:#3B60F6"/>
			</linearGradient>
			<path style="fill:url(#SVGID_00000178897996836682110310000012007667734254224260_);" d="M375.29,267.29v38.47h-5.44v-33.68
				h-8.68v-4.78H375.29z"/>
			
				<linearGradient id="SVGID_00000042013087012739162020000003484751158654781880_" gradientUnits="userSpaceOnUse" x1="55.4356" y1="290.2877" x2="456.5641" y2="290.2877">
				<stop  offset="0" style="stop-color:#131590"/>
				<stop  offset="1" style="stop-color:#3B60F6"/>
			</linearGradient>
			<path style="fill:url(#SVGID_00000042013087012739162020000003484751158654781880_);" d="M410.74,300.98v4.78H383.1v-3.74
				l15.66-15.11c1.9-1.83,3.19-3.42,3.85-4.75c0.66-1.34,0.99-2.68,0.99-4.04c0-2.01-0.7-3.58-2.11-4.7
				c-1.41-1.12-3.44-1.68-6.07-1.68c-4.25,0-7.53,1.39-9.84,4.17l-3.73-3.24c1.5-1.83,3.47-3.26,5.91-4.29
				c2.44-1.02,5.16-1.54,8.16-1.54c4.03,0,7.24,0.96,9.62,2.89s3.57,4.54,3.57,7.83c0,2.05-0.44,3.99-1.32,5.83
				c-0.88,1.83-2.55,3.92-5,6.26l-11.76,11.32H410.74z"/>
			
				<linearGradient id="SVGID_00000095328784392760707760000011962418592205455775_" gradientUnits="userSpaceOnUse" x1="55.4356" y1="290.2877" x2="456.5641" y2="290.2877">
				<stop  offset="0" style="stop-color:#131590"/>
				<stop  offset="1" style="stop-color:#3B60F6"/>
			</linearGradient>
			<path style="fill:url(#SVGID_00000095328784392760707760000011962418592205455775_);" d="M438.6,286.93
				c1.98,1.96,2.97,4.46,2.97,7.5c0,2.2-0.55,4.19-1.65,5.96c-1.1,1.78-2.74,3.18-4.92,4.23c-2.18,1.04-4.84,1.57-7.99,1.57
				c-2.75,0-5.38-0.41-7.91-1.24c-2.53-0.82-4.6-1.97-6.21-3.44l2.53-4.34c1.32,1.25,3,2.24,5.05,3c2.05,0.75,4.23,1.13,6.54,1.13
				c2.86,0,5.08-0.6,6.68-1.81c1.59-1.21,2.39-2.88,2.39-5c0-2.12-0.79-3.77-2.36-4.94c-1.58-1.17-3.96-1.76-7.15-1.76h-3.07v-3.85
				l9.67-11.87h-18.52v-4.78h25.39v3.74l-10.06,12.42C433.74,283.81,436.62,284.98,438.6,286.93z"/>
			
				<linearGradient id="SVGID_00000062887291692369254140000018028661002792764573_" gradientUnits="userSpaceOnUse" x1="55.4356" y1="290.2877" x2="456.5641" y2="290.2877">
				<stop  offset="0" style="stop-color:#131590"/>
				<stop  offset="1" style="stop-color:#3B60F6"/>
			</linearGradient>
			<path style="fill:url(#SVGID_00000062887291692369254140000018028661002792764573_);" d="M445.08,316.42v-4.34h6.21v-42.75h-6.21
				v-4.34h11.49v51.43H445.08z"/>
		</g>
	</g>
</g>
</svg>
