<?xml version="1.0" encoding="utf-8"?>
<!-- Generator: Adobe Illustrator 27.2.0, SVG Export Plug-In . SVG Version: 6.00 Build 0)  -->
<svg version="1.1" id="Layer_1" xmlns="http://www.w3.org/2000/svg" xmlns:xlink="http://www.w3.org/1999/xlink" x="0px" y="0px"
	 viewBox="0 0 512 512" style="enable-background:new 0 0 512 512;" xml:space="preserve">
<style type="text/css">
	.st0{fill:#FFFFFF;}
	.st1{fill:#0080FF;}
	.st2{fill:none;stroke:#D1D3D4;stroke-width:3.5181;stroke-linecap:round;stroke-miterlimit:10;}
	.st3{fill:url(#SVGID_1_);}
	.st4{fill:#D1D3D4;}
	.st5{fill:url(#SVGID_00000081619710572598537800000006206507906871844770_);}
	.st6{fill:url(#SVGID_00000083066159735905706780000013207151828531341960_);}
	.st7{fill:url(#SVGID_00000151522758660254943950000007791401928544485818_);}
	.st8{fill:url(#SVGID_00000116206840474726410100000001788995142102622080_);}
	.st9{fill:url(#SVGID_00000148639967102501916290000002439332165404026814_);}
	.st10{fill:url(#SVGID_00000021840732024701511440000012540231692874864812_);}
	.st11{fill:url(#SVGID_00000075132173042296093400000009489668152232425864_);}
	.st12{fill:url(#SVGID_00000072277706399968423580000009295669859820792738_);}
	.st13{fill:url(#SVGID_00000049179699711139026300000006077283972799842728_);}
	.st14{fill:url(#SVGID_00000034065314882102306710000007169209261852744358_);}
	.st15{fill:url(#SVGID_00000055665901027916351440000014895899143944915869_);}
	.st16{fill:url(#SVGID_00000049184694129979794450000011210038116796019355_);}
	.st17{fill:url(#SVGID_00000157266798743520976600000010651514537575317143_);}
	.st18{fill:url(#SVGID_00000026140042125447096600000011366071416218599601_);}
	.st19{fill:url(#SVGID_00000019641747870949307380000005468784692132253345_);}
	.st20{fill:url(#SVGID_00000084516459729790542800000014116527338914274751_);}
	.st21{fill:url(#SVGID_00000101822152139673071330000000238162067378613644_);}
	.st22{fill:url(#SVGID_00000036972430067641295990000007103832661469383046_);}
	.st23{fill:url(#SVGID_00000180327297219106546000000012814702384966996632_);}
	.st24{fill:url(#SVGID_00000038371959799838244010000007547416821787110063_);}
	.st25{fill:url(#SVGID_00000070079297335350570610000016073985032649026469_);}
	.st26{fill:url(#SVGID_00000083775313852117628950000011959623920251889847_);}
	.st27{fill:url(#SVGID_00000037686372842741407460000012852254371658849941_);}
	.st28{fill:url(#SVGID_00000168830589208338210420000004663544185602148284_);}
	.st29{fill:url(#SVGID_00000118374067772495073510000007251424911762797196_);}
	.st30{fill:url(#SVGID_00000152983486972665460390000010699371531444998028_);}
	.st31{fill:url(#SVGID_00000013187066755795806540000006374222106853158835_);}
	.st32{fill:url(#SVGID_00000062192346389236438230000013423725200514228880_);}
	.st33{fill:url(#SVGID_00000130630867876477084330000000082565134928983967_);}
	.st34{fill:url(#SVGID_00000180327800330946610590000014079425624461173137_);}
	.st35{fill:url(#SVGID_00000013195440185208159190000005842052968203120296_);}
	.st36{fill:url(#SVGID_00000130632536011832959900000018424691965628835242_);}
</style>
<g>
	<path class="st0" d="M479.11,512H32.89C14.73,512,0,497.27,0,479.11V32.89C0,14.73,14.73,0,32.89,0h446.21
		C497.27,0,512,14.73,512,32.89v446.21C512,497.27,497.27,512,479.11,512z"/>
	<path class="st1" d="M325.12,68.86H59.27c-5.3,0-9.6-4.3-9.6-9.6v0c0-5.3,4.3-9.6,9.6-9.6h265.85c5.3,0,9.6,4.3,9.6,9.6v0
		C334.72,64.57,330.42,68.86,325.12,68.86z"/>
	<path class="st1" d="M452.73,68.86L452.73,68.86c-5.3,0-9.6-4.3-9.6-9.6v0c0-5.3,4.3-9.6,9.6-9.6h0c5.3,0,9.6,4.3,9.6,9.6v0
		C462.33,64.57,458.03,68.86,452.73,68.86z"/>
	<line class="st2" x1="49.67" y1="100.75" x2="462.33" y2="100.75"/>
	<path class="st4" d="M452.73,168.66H59.27c-5.3,0-9.6-4.3-9.6-9.6v-32.54c0-5.3,4.3-9.6,9.6-9.6h393.47c5.3,0,9.6,4.3,9.6,9.6
		v32.54C462.33,164.36,458.03,168.66,452.73,168.66z"/>
	<path class="st4" d="M452.73,242.08H59.27c-5.3,0-9.6-4.3-9.6-9.6v-32.54c0-5.3,4.3-9.6,9.6-9.6h393.47c5.3,0,9.6,4.3,9.6,9.6
		v32.54C462.33,237.78,458.03,242.08,452.73,242.08z"/>
	<path class="st4" d="M452.73,315.49H59.27c-5.3,0-9.6-4.3-9.6-9.6v-32.54c0-5.3,4.3-9.6,9.6-9.6h393.47c5.3,0,9.6,4.3,9.6,9.6
		v32.54C462.33,311.2,458.03,315.49,452.73,315.49z"/>
	<linearGradient id="SVGID_1_" gradientUnits="userSpaceOnUse" x1="49.6698" y1="399.7538" x2="462.3301" y2="399.7538">
		<stop  offset="0" style="stop-color:#131590"/>
		<stop  offset="1" style="stop-color:#3B60F6"/>
	</linearGradient>
	<path class="st3" d="M452.73,462.33H59.27c-5.3,0-9.6-4.3-9.6-9.6V346.77c0-5.3,4.3-9.6,9.6-9.6h393.47c5.3,0,9.6,4.3,9.6,9.6
		v105.96C462.33,458.03,458.03,462.33,452.73,462.33z"/>
	<path class="st0" d="M260.54,429.39c4.9-6.8,5.88-15.56,2.94-23.14l9.82-9.82l1.21,1.21c2.6,2.6,6.81,2.6,9.41,0s2.6-6.81,0-9.41
		l-16.4-16.4c-2.6-2.6-6.81-2.6-9.41,0c-2.6,2.6-2.6,6.81,0,9.41l1.21,1.21l-9.82,9.82c-7.59-2.94-16.34-1.96-23.14,2.94
		c-1.71,1.23-1.86,3.73-0.37,5.22l12.99,12.99l-12.91,12.91c-0.92,0.92-0.92,2.42,0,3.34c0.92,0.92,2.42,0.92,3.34,0l12.91-12.91
		l12.99,12.99C256.8,431.25,259.3,431.1,260.54,429.39z"/>
</g>
</svg>
