<?xml version="1.0" encoding="utf-8"?>
<!-- Generator: Adobe Illustrator 27.2.0, SVG Export Plug-In . SVG Version: 6.00 Build 0)  -->
<svg version="1.1" id="Layer_1" xmlns="http://www.w3.org/2000/svg" xmlns:xlink="http://www.w3.org/1999/xlink" x="0px" y="0px"
	 viewBox="0 0 512 512" style="enable-background:new 0 0 512 512;" xml:space="preserve">
<style type="text/css">
	.st0{fill:url(#SVGID_1_);}
	.st1{fill:url(#SVGID_00000054966496415497403200000003358567283499983758_);}
	.st2{fill:#0080FF;}
	.st3{fill:url(#SVGID_00000154421995033165169130000004120211365558021504_);}
	.st4{fill:url(#SVGID_00000176033432903130473430000017897107584812735655_);}
	.st5{fill:url(#SVGID_00000127041065233840526870000009906532589719483562_);}
	.st6{fill:url(#SVGID_00000129885098513239857990000011141849164348375683_);}
	.st7{fill:url(#SVGID_00000090258159869938540480000006249844993823849120_);}
	.st8{fill:url(#SVGID_00000161619551054398426730000012903134308486168970_);}
	.st9{fill:url(#SVGID_00000018930759344828603160000000643276737817755809_);}
	.st10{fill:#FFFFFF;}
	.st11{fill:url(#SVGID_00000124842273798761748330000003482304877573939886_);}
	.st12{fill:url(#SVGID_00000083805751772142714510000011966453075992688800_);}
	.st13{fill:url(#SVGID_00000014598472082918198770000010819757503574752189_);}
	.st14{fill:url(#SVGID_00000100373185988846553180000014170389884205882527_);}
	.st15{fill:url(#SVGID_00000116937651921308930200000014712565218495758209_);}
	.st16{fill:url(#SVGID_00000159440729717225158000000008217301028453828765_);}
	.st17{fill:url(#SVGID_00000099652121802284100460000004799613366788632239_);}
	.st18{fill:url(#SVGID_00000174582979846426191300000018112437509628694203_);}
	.st19{fill:url(#SVGID_00000011740169544972731800000009613007197529208482_);}
	.st20{fill:url(#SVGID_00000047031305331703969210000008710724967410225315_);}
	.st21{fill:url(#SVGID_00000170279176625716773070000015614001209109217190_);}
	.st22{fill:url(#SVGID_00000148660729599846490630000016326214510704230567_);}
	.st23{fill:url(#SVGID_00000033350743368785558950000003232189615269076661_);}
	.st24{fill:url(#SVGID_00000156553163692574320310000001405224496962560906_);}
	.st25{fill:url(#SVGID_00000057870162601629557970000016249816098802337924_);}
</style>
<linearGradient id="SVGID_1_" gradientUnits="userSpaceOnUse" x1="0.8232" y1="256" x2="511.1768" y2="256">
	<stop  offset="0" style="stop-color:#131590"/>
	<stop  offset="1" style="stop-color:#3B60F6"/>
</linearGradient>
<path class="st0" d="M437.51,338.89c4.67,4.67,4.67,12.24,0,16.91c-2.34,2.34-5.39,3.5-8.46,3.5c-3.07,0-6.12-1.17-8.46-3.5
	l-87.14-87.14l-78.83,77.83l28.18,28.18c4.67,4.67,4.67,12.24,0,16.91c-2.34,2.34-5.39,3.5-8.46,3.5c-3.07,0-6.12-1.17-8.46-3.5
	l-87.14-87.14l-87.39,86.28c-4.7,4.64-12.29,4.58-16.91-0.09c-4.64-4.7-4.59-12.27,0.09-16.91l95.85-94.65
	c4.69-4.63,12.21-4.59,16.87,0.05l50.45,50.45l87.38-86.29c4.7-4.63,12.23-4.59,16.87,0.05L437.51,338.89z M133.61,154.73
	c0-24.84,20.2-45.04,45.03-45.04c24.84,0,45.04,20.2,45.04,45.04c0,24.83-20.2,45.03-45.04,45.03
	C153.81,199.76,133.61,179.56,133.61,154.73z M157.54,154.73c0,11.63,9.47,21.1,21.1,21.1c11.65,0,21.12-9.47,21.12-21.1
	c0-11.65-9.47-21.12-21.12-21.12C167.01,133.61,157.54,143.08,157.54,154.73z M511.18,69.71v372.59c0,38.04-30.84,68.88-68.88,68.88
	H69.71c-38.05,0-68.89-30.84-68.89-68.88V69.71c0-38.04,30.84-68.88,68.89-68.88h372.59C480.34,0.82,511.18,31.66,511.18,69.71z
	 M487.25,69.71c0-24.79-20.17-44.96-44.96-44.96H69.71c-24.79,0-44.96,20.17-44.96,44.96v372.59c0,24.79,20.17,44.96,44.96,44.96
	h372.59c24.79,0,44.96-20.17,44.96-44.96V69.71z"/>
</svg>
