<?xml version="1.0" encoding="utf-8"?>
<!-- Generator: Adobe Illustrator 27.2.0, SVG Export Plug-In . SVG Version: 6.00 Build 0)  -->
<svg version="1.1" id="Layer_1" xmlns="http://www.w3.org/2000/svg" xmlns:xlink="http://www.w3.org/1999/xlink" x="0px" y="0px"
	 viewBox="0 0 512 512" style="enable-background:new 0 0 512 512;" xml:space="preserve">
<style type="text/css">
	.st0{fill:url(#SVGID_1_);}
	.st1{fill:url(#SVGID_00000031897669594882264590000001304744502390448298_);}
	.st2{fill:#0080FF;}
	.st3{fill:url(#SVGID_00000130626421817500700530000000419991026773367715_);}
	.st4{fill:url(#SVGID_00000083054551058949323350000014529398987484395429_);}
	.st5{fill:url(#SVGID_00000001640406723998069360000003289406288045910662_);}
	.st6{fill:url(#SVGID_00000014601664312362827460000016833910278649052093_);}
	.st7{fill:url(#SVGID_00000135674397321619856040000002967604917494962091_);}
	.st8{fill:url(#SVGID_00000117670658801709340820000006256165777027390887_);}
	.st9{fill:url(#SVGID_00000087390139062711688180000009741278879317656501_);}
	.st10{fill:#FFFFFF;}
	.st11{fill:url(#SVGID_00000124132946124522041040000012903186203103384759_);}
	.st12{fill:url(#SVGID_00000139989454975562502960000011568887552374444954_);}
	.st13{fill:url(#SVGID_00000064334481754467296480000011186744802538312117_);}
	.st14{fill:url(#SVGID_00000085218390531097120090000000981963936210493602_);}
	.st15{fill:url(#SVGID_00000085233015955595522050000002734740909172261816_);}
	.st16{fill:url(#SVGID_00000042707732486292019260000011287195611734867636_);}
	.st17{fill:url(#SVGID_00000018927022035361817740000006044147180257073570_);}
	.st18{fill:url(#SVGID_00000131354620813419089980000014432611888339343523_);}
	.st19{fill:url(#SVGID_00000156576027168461290040000005548891036955346601_);}
	.st20{fill:url(#SVGID_00000005248259849752016890000013721356910207669395_);}
	.st21{fill:url(#SVGID_00000173870416341859311960000013159321269106684592_);}
	.st22{fill:url(#SVGID_00000066492800975658029160000007886643967093231014_);}
	.st23{fill:url(#SVGID_00000152958093110761699930000000678783418031486885_);}
	.st24{fill:url(#SVGID_00000045612137527153675900000006232627149994871999_);}
	.st25{fill:url(#SVGID_00000144321023289180239480000008751809688786573707_);}
</style>
<g>
	<g>
		<linearGradient id="SVGID_1_" gradientUnits="userSpaceOnUse" x1="59.3551" y1="256" x2="452.6449" y2="256">
			<stop  offset="0" style="stop-color:#131590"/>
			<stop  offset="1" style="stop-color:#3B60F6"/>
		</linearGradient>
		<path class="st0" d="M452.64,176.42V335.9c0,11.8-9.57,21.37-21.37,21.37H81.04c-12.12,0-21.69-9.57-21.69-21.37V176.42
			c0-12.12,9.57-21.69,21.69-21.69h350.23C443.08,154.73,452.64,164.3,452.64,176.42z"/>
	</g>
	<g>
		<g>
			<path class="st2" d="M442.26,24.79c24.79,0,44.95,20.16,44.95,44.95v372.52c0,24.79-20.16,44.95-44.95,44.95H69.74
				c-24.79,0-44.95-20.16-44.95-44.95V69.74c0-24.79,20.16-44.95,44.95-44.95H442.26 M442.26,0.87H69.74
				C31.7,0.87,0.87,31.7,0.87,69.74v372.52c0,38.04,30.84,68.87,68.87,68.87h372.52c38.04,0,68.87-30.84,68.87-68.87V69.74
				C511.13,31.7,480.3,0.87,442.26,0.87L442.26,0.87z"/>
		</g>
	</g>
	<g>
		<g>
			<circle class="st2" cx="73.93" cy="54.78" r="13.02"/>
		</g>
		<g>
			<circle class="st2" cx="124.49" cy="54.78" r="13.02"/>
		</g>
		<g>
			<circle class="st2" cx="175.05" cy="54.78" r="13.02"/>
		</g>
	</g>
	<g>
		<rect x="60.91" y="110.72" class="st2" width="391.78" height="15.95"/>
	</g>
	<g>
		<rect x="59.31" y="419.69" class="st2" width="393.34" height="15.95"/>
	</g>
	<g>
		<rect x="59.31" y="378.17" class="st2" width="393.34" height="15.95"/>
	</g>
	<g>
		<g>
			<path class="st10" d="M396.28,296.25c-2.04,0-4.08-0.78-5.64-2.34l-59.42-59.4l-59.57,58.81c-3.15,3.08-8.18,3.08-11.28-0.06
				c-3.1-3.15-3.07-8.19,0.06-11.28l65.21-64.39c3.15-3.05,8.16-3.05,11.24,0.03l65.02,65.01c3.11,3.11,3.11,8.16,0,11.28
				C400.36,295.47,398.32,296.25,396.28,296.25z"/>
		</g>
		<g>
			<path class="st10" d="M291.01,320.6c-2.04,0-4.08-0.78-5.64-2.34l-59.4-59.4l-59.59,58.81c-3.13,3.08-8.18,3.08-11.28-0.06
				c-3.1-3.15-3.07-8.19,0.06-11.28l65.23-64.39c3.15-3.05,8.16-3.05,11.24,0.03l65.01,65.01c3.11,3.11,3.11,8.16,0,11.28
				C295.09,319.83,293.05,320.6,291.01,320.6z"/>
		</g>
	</g>
	<g>
		<circle class="st10" cx="142.63" cy="216.36" r="18.14"/>
	</g>
</g>
</svg>
