<?xml version="1.0" encoding="utf-8"?>
<!-- Generator: Adobe Illustrator 27.2.0, SVG Export Plug-In . SVG Version: 6.00 Build 0)  -->
<svg version="1.1" id="Layer_1" xmlns="http://www.w3.org/2000/svg" xmlns:xlink="http://www.w3.org/1999/xlink" x="0px" y="0px"
	 viewBox="0 0 512 512" style="enable-background:new 0 0 512 512;" xml:space="preserve">
<style type="text/css">
	.st0{fill:url(#SVGID_1_);}
	.st1{fill:url(#SVGID_00000106136097217973961070000005940670380761303976_);}
	.st2{fill:#0080FF;}
	.st3{fill:url(#SVGID_00000142861476341323449840000003137163388435887752_);}
	.st4{fill:url(#SVGID_00000053509777732202857190000008101486998264507821_);}
	.st5{fill:url(#SVGID_00000164495556407989373580000010549090161304926850_);}
	.st6{fill:url(#SVGID_00000101080950334393478820000000449544322058510737_);}
	.st7{fill:url(#SVGID_00000174603334135562430690000002325032859012331688_);}
	.st8{fill:url(#SVGID_00000036249786997615920340000006790930735168518540_);}
	.st9{fill:url(#SVGID_00000139979010729003969730000012828124703059722885_);}
	.st10{fill:#FFFFFF;}
	.st11{fill:url(#SVGID_00000100352671502405374100000004077015960197556634_);}
	.st12{fill:url(#SVGID_00000083777044312160347820000008823160349225131696_);}
	.st13{fill:url(#SVGID_00000080194184190070279440000009475129445206437277_);}
	.st14{fill:url(#SVGID_00000100374228443983482830000010525711053277267603_);}
	.st15{fill:url(#SVGID_00000117659473810854892230000005441341250646191249_);}
	.st16{fill:url(#SVGID_00000119103717132535226310000013225819116764446106_);}
	.st17{fill:url(#SVGID_00000070098937379549614710000015267078891939381905_);}
	.st18{fill:url(#SVGID_00000000202055400523810500000009921955279114596024_);}
	.st19{fill:url(#SVGID_00000135688634361104798560000001302052503350425764_);}
	.st20{fill:url(#SVGID_00000152983533009493600950000002802584886965384362_);}
	.st21{fill:url(#SVGID_00000067233650652889513740000007634664371093321361_);}
	.st22{fill:url(#SVGID_00000001657356877731118650000015943746246218183824_);}
	.st23{fill:url(#SVGID_00000005967416983811216050000003490575294929166002_);}
	.st24{fill:url(#SVGID_00000121990123101836910210000004506990404692091569_);}
	.st25{fill:url(#SVGID_00000153705875862158039270000017557776870109885883_);}
</style>
<g>
	<g>
		<circle class="st2" cx="73.93" cy="54.78" r="13.02"/>
	</g>
	<g>
		<circle class="st2" cx="124.49" cy="54.78" r="13.02"/>
	</g>
	<g>
		<circle class="st2" cx="175.05" cy="54.78" r="13.02"/>
	</g>
	<g>
		<linearGradient id="SVGID_1_" gradientUnits="userSpaceOnUse" x1="59.3096" y1="180.8215" x2="240.7812" y2="180.8215">
			<stop  offset="0" style="stop-color:#131590"/>
			<stop  offset="1" style="stop-color:#3B60F6"/>
		</linearGradient>
		<path class="st0" d="M228.22,256.05H71.87c-6.94,0-12.56-5.62-12.56-12.56V118.15c0-6.94,5.62-12.56,12.56-12.56h156.36
			c6.94,0,12.56,5.62,12.56,12.56v125.34C240.78,250.43,235.16,256.05,228.22,256.05z"/>
	</g>
	<g>
		<g>
			
				<linearGradient id="SVGID_00000077294458192086750260000015594305098747474871_" gradientUnits="userSpaceOnUse" x1="59.3096" y1="365.3694" x2="240.7812" y2="365.3694">
				<stop  offset="0" style="stop-color:#131590"/>
				<stop  offset="1" style="stop-color:#3B60F6"/>
			</linearGradient>
			<path style="fill:url(#SVGID_00000077294458192086750260000015594305098747474871_);" d="M228.22,440.6H71.87
				c-6.94,0-12.56-5.62-12.56-12.56V302.7c0-6.94,5.62-12.56,12.56-12.56h156.36c6.94,0,12.56,5.62,12.56,12.56v125.34
				C240.78,434.97,235.16,440.6,228.22,440.6z"/>
		</g>
	</g>
	<g>
		<path class="st2" d="M442.29,24.75c24.79,0,44.96,20.17,44.96,44.96v372.59c0,24.79-20.17,44.96-44.96,44.96H69.71
			c-24.79,0-44.96-20.17-44.96-44.96V69.71c0-24.79,20.17-44.96,44.96-44.96H442.29 M442.29,0.82H69.71
			c-38.04,0-68.88,30.84-68.88,68.88v372.59c0,38.04,30.84,68.88,68.88,68.88h372.59c38.04,0,68.88-30.84,68.88-68.88V69.71
			C511.18,31.66,480.34,0.82,442.29,0.82L442.29,0.82z"/>
	</g>
	<g>
		<path class="st10" d="M130.47,197.92H98.63l-6.29,14.75H80.16l28.67-63.7h11.64l28.76,63.7h-12.38L130.47,197.92z M126.57,188.65
			l-12.02-27.85l-11.92,27.85H126.57z M157.32,148.97h27.85c6.8,0,12.84,1.32,18.1,3.96c5.29,2.63,9.38,6.37,12.29,11.19
			c2.92,4.81,4.36,10.38,4.36,16.7c0,6.3-1.45,11.87-4.36,16.7s-7.01,8.56-12.29,11.18c-5.27,2.64-11.31,3.96-18.1,3.96h-27.85
			V148.97z M184.63,202.66c4.68,0,8.79-0.9,12.33-2.69c3.55-1.78,6.27-4.34,8.18-7.64c1.91-3.31,2.87-7.15,2.87-11.52
			c0-4.37-0.96-8.21-2.87-11.52s-4.64-5.85-8.18-7.65c-3.55-1.78-7.66-2.69-12.33-2.69h-15.46v43.69H184.63z"/>
	</g>
	<g>
		<path class="st10" d="M130.47,382.47H98.63l-6.29,14.75H80.16l28.67-63.7h11.64l28.76,63.7h-12.38L130.47,382.47z M126.57,373.2
			l-12.02-27.85l-11.92,27.85H126.57z M157.32,333.52h27.85c6.8,0,12.84,1.32,18.1,3.96c5.29,2.63,9.38,6.37,12.29,11.19
			c2.92,4.81,4.36,10.38,4.36,16.7c0,6.3-1.45,11.87-4.36,16.7c-2.92,4.82-7.01,8.56-12.29,11.18c-5.27,2.64-11.31,3.96-18.1,3.96
			h-27.85V333.52z M184.63,387.21c4.68,0,8.79-0.9,12.33-2.69c3.55-1.78,6.27-4.34,8.18-7.64c1.91-3.31,2.87-7.15,2.87-11.52
			c0-4.37-0.96-8.21-2.87-11.52c-1.91-3.3-4.64-5.85-8.18-7.65c-3.55-1.78-7.66-2.69-12.33-2.69h-15.46v43.69H184.63z"/>
	</g>
	<g>
		<rect x="271.22" y="110.72" class="st2" width="181.46" height="15.95"/>
	</g>
	<g>
		<rect x="271.22" y="152.26" class="st2" width="181.46" height="15.95"/>
	</g>
	<g>
		<rect x="271.22" y="193.78" class="st2" width="181.46" height="15.95"/>
	</g>
	<g>
		<rect x="271.22" y="235.3" class="st2" width="90.72" height="15.95"/>
	</g>
	<g>
		<rect x="271.22" y="295.11" class="st2" width="181.46" height="15.95"/>
	</g>
	<g>
		<rect x="271.22" y="336.63" class="st2" width="181.46" height="15.95"/>
	</g>
	<g>
		<rect x="271.22" y="378.15" class="st2" width="181.46" height="15.95"/>
	</g>
	<g>
		<rect x="271.22" y="419.68" class="st2" width="90.72" height="15.95"/>
	</g>
</g>
</svg>
