<?xml version="1.0" encoding="utf-8"?>
<!-- Generator: Adobe Illustrator 27.2.0, SVG Export Plug-In . SVG Version: 6.00 Build 0)  -->
<svg version="1.1" id="Layer_1" xmlns="http://www.w3.org/2000/svg" xmlns:xlink="http://www.w3.org/1999/xlink" x="0px" y="0px"
	 viewBox="0 0 512 512" style="enable-background:new 0 0 512 512;" xml:space="preserve">
<style type="text/css">
	.st0{fill:url(#SVGID_1_);}
	.st1{fill:url(#SVGID_00000078736634676722267490000017498654570220951958_);}
	.st2{fill:#0080FF;}
	.st3{fill:url(#SVGID_00000141431947702701005310000015173309465642141087_);}
	.st4{fill:url(#SVGID_00000073712694530494623740000017417981733319581843_);}
	.st5{fill:url(#SVGID_00000081637405164710098320000016376852572039556508_);}
	.st6{fill:url(#SVGID_00000112608519055908084610000013088384115559279535_);}
	.st7{fill:url(#SVGID_00000157268395831163535270000003531995570012468664_);}
	.st8{fill:url(#SVGID_00000164514633649379238350000010292705758749406893_);}
	.st9{fill:url(#SVGID_00000082336183611995912350000000640900683937736592_);}
	.st10{fill:#FFFFFF;}
	.st11{fill:url(#SVGID_00000134243258491874272080000009597311055590587267_);}
	.st12{fill:url(#SVGID_00000089557416481552820320000011651564467464464035_);}
	.st13{fill:url(#SVGID_00000130635800228392625410000001058404438897960089_);}
	.st14{fill:url(#SVGID_00000153692466736155031900000000487722761522260925_);}
	.st15{fill:url(#SVGID_00000034796969521658986550000010401613916028200121_);}
	.st16{fill:url(#SVGID_00000107552031803961028620000001177656551628523401_);}
	.st17{fill:url(#SVGID_00000011003066579597131100000006566644450316667561_);}
	.st18{fill:url(#SVGID_00000152966502263015200890000010450962284531833224_);}
	.st19{fill:url(#SVGID_00000027573802868547394900000007020655788091660460_);}
	.st20{fill:url(#SVGID_00000106839911304016734960000015216381141112023998_);}
	.st21{fill:url(#SVGID_00000083082851763406959550000000760937103746765709_);}
	.st22{fill:url(#SVGID_00000045586769091368559370000018039654768985263278_);}
	.st23{fill:url(#SVGID_00000124130816757606954550000002058174579772974517_);}
	.st24{fill:url(#SVGID_00000052070529715290505340000006603469698970509470_);}
	.st25{fill:url(#SVGID_00000000213112964829926440000017827907361450381738_);}
</style>
<g>
	<g>
		<g>
			<path class="st2" d="M487.21,203.41v105.17h-35.46V203.41H487.21 M494.99,179.49h-50.77c-9.16,0-16.39,7.23-16.39,16.39v120.49
				c0,8.92,7.23,16.14,16.39,16.14h50.77c8.92,0,16.14-7.23,16.14-16.14V195.88C511.13,186.72,503.91,179.49,494.99,179.49
				L494.99,179.49z"/>
		</g>
	</g>
	<g>
		<g>
			<path class="st2" d="M60.25,203.41v105.17H24.79V203.41H60.25 M68.02,179.49H17.25c-9.16,0-16.39,7.23-16.39,16.39v120.49
				c0,8.92,7.23,16.14,16.39,16.14h50.77c8.92,0,16.14-7.23,16.14-16.14V195.88C84.17,186.72,76.94,179.49,68.02,179.49
				L68.02,179.49z"/>
		</g>
	</g>
	<g>
		<linearGradient id="SVGID_1_" gradientUnits="userSpaceOnUse" x1="107.2007" y1="256" x2="404.7993" y2="256">
			<stop  offset="0" style="stop-color:#131590"/>
			<stop  offset="1" style="stop-color:#3B60F6"/>
		</linearGradient>
		<path class="st0" d="M404.8,176.42V335.9c0,11.8-9.57,21.37-21.37,21.37H128.89c-12.12,0-21.69-9.57-21.69-21.37V176.42
			c0-12.12,9.57-21.69,21.69-21.69h254.54C395.23,154.73,404.8,164.3,404.8,176.42z"/>
	</g>
	<g>
		<g>
			<path class="st2" d="M442.26,24.79c24.79,0,44.95,20.16,44.95,44.95v372.52c0,24.79-20.16,44.95-44.95,44.95H69.74
				c-24.79,0-44.95-20.16-44.95-44.95V69.74c0-24.79,20.16-44.95,44.95-44.95H442.26 M442.26,0.87H69.74
				C31.7,0.87,0.87,31.7,0.87,69.74v372.52c0,38.04,30.84,68.87,68.87,68.87h372.52c38.04,0,68.87-30.84,68.87-68.87V69.74
				C511.13,31.7,480.3,0.87,442.26,0.87L442.26,0.87z"/>
		</g>
	</g>
	<g>
		<g>
			<circle class="st2" cx="73.93" cy="54.9" r="13.02"/>
		</g>
		<g>
			<circle class="st2" cx="124.49" cy="54.9" r="13.02"/>
		</g>
		<g>
			<circle class="st2" cx="175.05" cy="54.9" r="13.02"/>
		</g>
	</g>
	<g>
		<path class="st10" d="M225.3,282.82h-49.94l-9.87,23.13h-19.1l44.96-99.9h18.26l45.1,99.9h-19.41L225.3,282.82z M219.19,268.28
			l-18.85-43.67l-18.69,43.67H219.19z M267.42,206.05h43.67c10.66,0,20.13,2.07,28.39,6.22c8.29,4.13,14.71,9.98,19.28,17.55
			c4.57,7.55,6.84,16.29,6.84,26.19c0,9.89-2.27,18.62-6.84,26.19c-4.57,7.57-10.99,13.42-19.28,17.54
			c-8.26,4.15-17.73,6.22-28.39,6.22h-43.67V206.05z M310.23,290.26c7.34,0,13.78-1.41,19.34-4.21c5.56-2.8,9.84-6.81,12.83-11.98
			c2.99-5.2,4.51-11.22,4.51-18.06c0-6.86-1.51-12.88-4.51-18.06c-2.99-5.18-7.27-9.18-12.83-11.99c-5.56-2.8-12.01-4.21-19.34-4.21
			h-24.25v68.51H310.23z"/>
	</g>
	<g>
		<g>
			<path class="st2" d="M207,409.66h-33.13c-4.41,0-7.97-3.58-7.97-7.97c0-4.39,3.57-7.97,7.97-7.97H207c4.41,0,7.97,3.58,7.97,7.97
				C214.98,406.08,211.41,409.66,207,409.66z"/>
		</g>
		<g>
			
				<linearGradient id="SVGID_00000097486747550843618130000017454594539338944694_" gradientUnits="userSpaceOnUse" x1="231.4698" y1="401.6894" x2="280.5302" y2="401.6894">
				<stop  offset="0" style="stop-color:#131590"/>
				<stop  offset="1" style="stop-color:#3B60F6"/>
			</linearGradient>
			<path style="fill:url(#SVGID_00000097486747550843618130000017454594539338944694_);" d="M272.56,409.66h-33.11
				c-4.41,0-7.97-3.58-7.97-7.97c0-4.39,3.57-7.97,7.97-7.97h33.11c4.41,0,7.97,3.58,7.97,7.97
				C280.53,406.08,276.96,409.66,272.56,409.66z"/>
		</g>
		<g>
			<path class="st2" d="M338.11,409.66H305c-4.39,0-7.97-3.58-7.97-7.97c0-4.39,3.58-7.97,7.97-7.97h33.11
				c4.39,0,7.97,3.58,7.97,7.97C346.08,406.08,342.5,409.66,338.11,409.66z"/>
		</g>
	</g>
</g>
</svg>
