<?xml version="1.0" encoding="utf-8"?>
<!-- Generator: Adobe Illustrator 27.2.0, SVG Export Plug-In . SVG Version: 6.00 Build 0)  -->
<svg version="1.1" id="Layer_1" xmlns="http://www.w3.org/2000/svg" xmlns:xlink="http://www.w3.org/1999/xlink" x="0px" y="0px"
	 viewBox="0 0 512 512" style="enable-background:new 0 0 512 512;" xml:space="preserve">
<style type="text/css">
	.st0{fill:url(#SVGID_1_);}
	.st1{fill:url(#SVGID_00000053516500204227290080000002534378593065877431_);}
	.st2{fill:#0080FF;}
	.st3{fill:url(#SVGID_00000155137381550852020570000006028088997645386134_);}
	.st4{fill:url(#SVGID_00000026160609218234920000000004592121352107865491_);}
	.st5{fill:url(#SVGID_00000152944896917320095100000005873911185350270605_);}
	.st6{fill:url(#SVGID_00000079480120443478648310000011422188610583579832_);}
	.st7{fill:url(#SVGID_00000015331345506868416920000009892156464965318053_);}
	.st8{fill:url(#SVGID_00000169544538690448650440000001601184632047933116_);}
	.st9{fill:url(#SVGID_00000182506545654154541690000006183654957604772274_);}
	.st10{fill:#FFFFFF;}
	.st11{fill:url(#SVGID_00000070092419873361795310000009340871940572170642_);}
	.st12{fill:url(#SVGID_00000093161050539751496040000012697665037739224718_);}
	.st13{fill:url(#SVGID_00000035527690293546452540000003441329381732041147_);}
	.st14{fill:url(#SVGID_00000130632344115466068820000012436976534350030498_);}
	.st15{fill:url(#SVGID_00000003093903100098686220000010631580760764957856_);}
	.st16{fill:url(#SVGID_00000140714421376972453600000003036568794116287637_);}
	.st17{fill:url(#SVGID_00000079477848863295636760000017099009393644200361_);}
	.st18{fill:url(#SVGID_00000182498579930155467230000010264605494115165604_);}
	.st19{fill:url(#SVGID_00000156577379014705577090000004694512347934546824_);}
	.st20{fill:url(#SVGID_00000099640866039770238760000003925078735767337876_);}
	.st21{fill:url(#SVGID_00000063631136919100013470000010878604494997979802_);}
	.st22{fill:url(#SVGID_00000147195032302319220460000015124304286975791023_);}
	.st23{fill:url(#SVGID_00000008855313614049077370000012253852866441021572_);}
	.st24{fill:url(#SVGID_00000129913594689457591460000014324424027029219246_);}
	.st25{fill:url(#SVGID_00000013885748005929783050000006999111132502892931_);}
</style>
<g>
	<g>
		<linearGradient id="SVGID_1_" gradientUnits="userSpaceOnUse" x1="59.3551" y1="332.0274" x2="452.6449" y2="332.0274">
			<stop  offset="0" style="stop-color:#131590"/>
			<stop  offset="1" style="stop-color:#3B60F6"/>
		</linearGradient>
		<path class="st0" d="M452.64,252.44v159.49c0,11.8-9.57,21.37-21.37,21.37H81.04c-12.12,0-21.69-9.57-21.69-21.37V252.44
			c0-12.12,9.57-21.69,21.69-21.69h350.23C443.08,230.75,452.64,240.32,452.64,252.44z"/>
	</g>
	<path class="st10" d="M225.31,358.85h-49.94l-9.87,23.13h-19.1l44.96-99.9h18.26l45.1,99.9h-19.41L225.31,358.85z M219.19,344.31
		l-18.85-43.67l-18.69,43.67H219.19z M267.42,282.08h43.67c10.66,0,20.13,2.07,28.39,6.22c8.29,4.13,14.71,9.98,19.28,17.55
		c4.57,7.55,6.84,16.29,6.84,26.19c0,9.89-2.27,18.62-6.84,26.19c-4.57,7.57-10.99,13.42-19.28,17.54
		c-8.26,4.15-17.73,6.22-28.39,6.22h-43.67V282.08z M310.23,366.28c7.34,0,13.78-1.41,19.34-4.21c5.56-2.8,9.84-6.81,12.83-11.98
		c2.99-5.2,4.51-11.22,4.51-18.06c0-6.86-1.51-12.88-4.51-18.06s-7.27-9.18-12.83-11.99c-5.56-2.8-12.01-4.21-19.34-4.21h-24.25
		v68.51H310.23z"/>
	<g>
		<path class="st2" d="M442.26,24.79c24.79,0,44.95,20.16,44.95,44.95v372.52c0,24.79-20.16,44.95-44.95,44.95H69.74
			c-24.79,0-44.95-20.16-44.95-44.95V69.74c0-24.79,20.16-44.95,44.95-44.95H442.26 M442.26,0.87H69.74
			C31.7,0.87,0.87,31.7,0.87,69.74v372.52c0,38.04,30.84,68.87,68.87,68.87h372.52c38.04,0,68.87-30.84,68.87-68.87V69.74
			C511.13,31.7,480.3,0.87,442.26,0.87L442.26,0.87z"/>
	</g>
	<g>
		<circle class="st2" cx="73.93" cy="54.78" r="13.02"/>
		<circle class="st2" cx="124.49" cy="54.78" r="13.02"/>
		<circle class="st2" cx="175.05" cy="54.78" r="13.02"/>
	</g>
	<g>
		<rect x="60.92" y="110.73" class="st2" width="391.77" height="15.95"/>
	</g>
	<g>
		<rect x="59.31" y="187.51" class="st2" width="393.34" height="15.95"/>
	</g>
	<g>
		<rect x="59.31" y="149.12" class="st2" width="393.34" height="15.95"/>
	</g>
	<circle class="st10" cx="412.53" cy="269.17" r="26.57"/>
	<path class="st2" d="M418.17,270.22l7.26-7.26c1.56-1.56,1.56-4.08,0-5.64c-1.56-1.56-4.08-1.56-5.64,0l-7.26,7.26l-7.26-7.26
		c-1.56-1.56-4.08-1.56-5.64,0c-1.56,1.56-1.56,4.08,0,5.64l7.26,7.26l-7.26,7.26c-1.56,1.56-1.56,4.08,0,5.64
		c0.78,0.78,1.79,1.17,2.82,1.17c1.03,0,2.04-0.39,2.82-1.17l7.26-7.26l7.26,7.26c0.78,0.78,1.79,1.17,2.82,1.17
		c1.03,0,2.04-0.39,2.82-1.17c1.56-1.56,1.56-4.08,0-5.64L418.17,270.22z"/>
</g>
</svg>
