<?xml version="1.0" encoding="utf-8"?>
<!-- Generator: Adobe Illustrator 27.2.0, SVG Export Plug-In . SVG Version: 6.00 Build 0)  -->
<svg version="1.1" id="Layer_1" xmlns="http://www.w3.org/2000/svg" xmlns:xlink="http://www.w3.org/1999/xlink" x="0px" y="0px"
	 viewBox="0 0 512 512" style="enable-background:new 0 0 512 512;" xml:space="preserve">
<style type="text/css">
	.st0{fill:url(#SVGID_1_);}
	.st1{fill:url(#SVGID_00000129207791608583213210000015534016635872906423_);}
	.st2{fill:#0080FF;}
	.st3{fill:url(#SVGID_00000163052807944125594290000006306594110204604595_);}
	.st4{fill:url(#SVGID_00000147200579629890285600000011335117252729995149_);}
	.st5{fill:url(#SVGID_00000117655794463698769610000002337907576846437767_);}
	.st6{fill:url(#SVGID_00000116231122265804226460000016565359750281165227_);}
	.st7{fill:url(#SVGID_00000121264315940446659880000014865065209863267753_);}
	.st8{fill:url(#SVGID_00000044178248141994178730000009658142694025193358_);}
	.st9{fill:url(#SVGID_00000072973135540665643890000017353109360760801447_);}
	.st10{fill:#FFFFFF;}
	.st11{fill:url(#SVGID_00000163752512186152650060000018188124134202703524_);}
	.st12{fill:url(#SVGID_00000146465279019823855740000000108954853805911980_);}
	.st13{fill:url(#SVGID_00000018956916467476592640000000267483879584833930_);}
	.st14{fill:url(#SVGID_00000075841526621414126770000007078716713903619481_);}
	.st15{fill:url(#SVGID_00000096746743019040959800000001657456528332935344_);}
	.st16{fill:url(#SVGID_00000025429110326135898390000012171127891392752524_);}
	.st17{fill:url(#SVGID_00000083089657632616312320000000915110465094863547_);}
	.st18{fill:url(#SVGID_00000171678145795627482640000018147346938632363934_);}
	.st19{fill:url(#SVGID_00000076580507404184103860000001207843114073041060_);}
	.st20{fill:url(#SVGID_00000133497150156572326810000000375028720289023651_);}
	.st21{fill:url(#SVGID_00000090253358522699646090000004631005039083443351_);}
	.st22{fill:url(#SVGID_00000156569027931847350470000016851639727840035748_);}
	.st23{fill:url(#SVGID_00000124121891690426581240000007972072648758631614_);}
	.st24{fill:url(#SVGID_00000179643958705445408390000003226649930657071277_);}
	.st25{fill:url(#SVGID_00000130619296637571633880000012778677696834350232_);}
</style>
<g>
	<g>
		<g>
			<path class="st2" d="M349.87,85.46l-88.03-50.82c-3.71-2.15-8.25-2.15-11.96,0l-88.01,50.82c-3.71,2.13-5.98,6.09-5.98,10.36
				v101.63c0,4.27,2.27,8.22,5.98,10.36l88.01,50.82c1.85,1.07,3.91,1.6,5.98,1.6s4.13-0.53,5.98-1.6l88.03-50.82
				c3.71-2.13,5.98-6.09,5.98-10.36V95.82C355.85,91.55,353.58,87.59,349.87,85.46z M255.86,58.81l64.1,37l-16.76,9.67l-47.35,27.32
				l-61.18-35.31l-2.91-1.68L255.86,58.81z M179.81,116.53l2.91,1.68l61.18,35.32v74.02l-64.09-37.01V116.53z M331.93,190.54
				l-64.11,37.01v-74.02l47.35-27.33l16.76-9.67V190.54z"/>
			<rect x="243.9" y="284.92" class="st2" width="23.92" height="89.59"/>
			<path class="st2" d="M43.92,146.62v153.93h23.92V158.58h55.04v-23.92h-67C49.28,134.66,43.92,140.02,43.92,146.62z"/>
			<path class="st2" d="M456.12,134.66h-67v23.92h55.04v141.96h23.92V146.62C468.08,140.02,462.72,134.66,456.12,134.66z"/>
		</g>
		<linearGradient id="SVGID_1_" gradientUnits="userSpaceOnUse" x1="55.8751" y1="396.2203" x2="55.8751" y2="279.7991">
			<stop  offset="0" style="stop-color:#131590"/>
			<stop  offset="1" style="stop-color:#3B60F6"/>
		</linearGradient>
		<path class="st0" d="M82.75,307.97v60.07H29v-60.07H82.75 M110.93,279.8H0.82v116.42h110.1V279.8L110.93,279.8z"/>
	</g>
	
		<linearGradient id="SVGID_00000098203986791965995500000005492292360669393316_" gradientUnits="userSpaceOnUse" x1="255.8665" y1="478.9744" x2="255.8665" y2="362.5532">
		<stop  offset="0" style="stop-color:#131590"/>
		<stop  offset="1" style="stop-color:#3B60F6"/>
	</linearGradient>
	<path style="fill:url(#SVGID_00000098203986791965995500000005492292360669393316_);" d="M282.74,390.73v60.07h-53.75v-60.07
		H282.74 M310.92,362.55h-110.1v116.42h110.1V362.55L310.92,362.55z"/>
	
		<linearGradient id="SVGID_00000170959583907284109210000017268114809664434576_" gradientUnits="userSpaceOnUse" x1="456.1249" y1="396.2203" x2="456.1249" y2="279.7991">
		<stop  offset="0" style="stop-color:#131590"/>
		<stop  offset="1" style="stop-color:#3B60F6"/>
	</linearGradient>
	<path style="fill:url(#SVGID_00000170959583907284109210000017268114809664434576_);" d="M483,307.97v60.07h-53.75v-60.07H483
		 M511.18,279.8h-110.1v116.42h110.1V279.8L511.18,279.8z"/>
</g>
</svg>
