<?xml version="1.0" encoding="utf-8"?>
<!-- Generator: Adobe Illustrator 27.2.0, SVG Export Plug-In . SVG Version: 6.00 Build 0)  -->
<svg version="1.1" id="Layer_1" xmlns="http://www.w3.org/2000/svg" xmlns:xlink="http://www.w3.org/1999/xlink" x="0px" y="0px"
	 viewBox="0 0 512 512" style="enable-background:new 0 0 512 512;" xml:space="preserve">
<style type="text/css">
	.st0{fill:url(#SVGID_1_);}
	.st1{fill:url(#SVGID_00000044864636469076259280000014246954087080908931_);}
	.st2{fill:#0080FF;}
	.st3{fill:url(#SVGID_00000030448683442044280010000016809225362722356386_);}
	.st4{fill:url(#SVGID_00000098928904782702984530000011934174733640880060_);}
	.st5{fill:url(#SVGID_00000183250861430183631260000011618193781248184986_);}
	.st6{fill:url(#SVGID_00000005247571574646285760000012816506907887592107_);}
	.st7{fill:url(#SVGID_00000128475877359196196000000012267610497244168855_);}
	.st8{fill:url(#SVGID_00000096057291796536283000000007536689325300740748_);}
	.st9{fill:url(#SVGID_00000143591317549686466980000007482528417347320237_);}
	.st10{fill:#FFFFFF;}
	.st11{fill:url(#SVGID_00000094582056245239797730000004118371449133450659_);}
	.st12{fill:url(#SVGID_00000070801284090560035630000012375454282305936309_);}
	.st13{fill:url(#SVGID_00000080188219041720706330000015603685170977051319_);}
	.st14{fill:url(#SVGID_00000111880390852694418210000010732376189685698977_);}
	.st15{fill:url(#SVGID_00000083805531506778429020000006514830811967918994_);}
	.st16{fill:url(#SVGID_00000016778322059582609230000017605998816920897977_);}
	.st17{fill:url(#SVGID_00000169556041275112991510000016944236753613385892_);}
	.st18{fill:url(#SVGID_00000135684338414094829160000006412273935342845065_);}
	.st19{fill:url(#SVGID_00000068643410858812820990000011224752514952087968_);}
	.st20{fill:url(#SVGID_00000108989532437520795600000011054308258868029348_);}
	.st21{fill:url(#SVGID_00000019677418120222601700000018289546902502899113_);}
	.st22{fill:url(#SVGID_00000084492714001956873960000014071542998277936051_);}
	.st23{fill:url(#SVGID_00000111869707213492632470000015914497337548108181_);}
	.st24{fill:url(#SVGID_00000074436959280023893800000001913412615656035233_);}
	.st25{fill:url(#SVGID_00000160163474631660461790000010585593411386309038_);}
</style>
<g>
	<g>
		<circle class="st2" cx="73.93" cy="54.78" r="13.02"/>
	</g>
	<g>
		<circle class="st2" cx="124.49" cy="54.78" r="13.02"/>
	</g>
	<g>
		<circle class="st2" cx="175.05" cy="54.78" r="13.02"/>
	</g>
	<g>
		<linearGradient id="SVGID_1_" gradientUnits="userSpaceOnUse" x1="59.3096" y1="273.0955" x2="240.7812" y2="273.0955">
			<stop  offset="0" style="stop-color:#131590"/>
			<stop  offset="1" style="stop-color:#3B60F6"/>
		</linearGradient>
		<path class="st0" d="M228.22,440.6H71.87c-6.94,0-12.56-5.62-12.56-12.56V118.15c0-6.94,5.62-12.56,12.56-12.56h156.36
			c6.94,0,12.56,5.62,12.56,12.56v309.88C240.78,434.97,235.16,440.6,228.22,440.6z"/>
	</g>
	<g>
		<path class="st2" d="M442.29,24.75c24.79,0,44.96,20.17,44.96,44.96v372.59c0,24.79-20.17,44.96-44.96,44.96H69.71
			c-24.79,0-44.96-20.17-44.96-44.96V69.71c0-24.79,20.17-44.96,44.96-44.96H442.29 M442.29,0.82H69.71
			c-38.04,0-68.88,30.84-68.88,68.88v372.59c0,38.04,30.84,68.88,68.88,68.88h372.59c38.04,0,68.88-30.84,68.88-68.88V69.71
			C511.18,31.66,480.34,0.82,442.29,0.82L442.29,0.82z"/>
	</g>
	<g>
		<path class="st10" d="M130.47,227.6H98.63l-6.29,14.75H80.16l28.67-63.7h11.64l28.76,63.7h-12.38L130.47,227.6z M126.57,218.32
			l-12.02-27.85l-11.92,27.85H126.57z M157.32,178.65h27.85c6.8,0,12.84,1.32,18.1,3.96c5.29,2.63,9.38,6.37,12.29,11.19
			c2.92,4.81,4.36,10.38,4.36,16.7c0,6.3-1.45,11.87-4.36,16.7s-7.01,8.56-12.29,11.18c-5.27,2.64-11.31,3.96-18.1,3.96h-27.85
			V178.65z M184.63,232.34c4.68,0,8.79-0.9,12.33-2.69c3.55-1.78,6.27-4.34,8.18-7.64c1.91-3.31,2.87-7.15,2.87-11.52
			c0-4.37-0.96-8.21-2.87-11.52c-1.91-3.3-4.64-5.85-8.18-7.65c-3.55-1.78-7.66-2.69-12.33-2.69h-15.46v43.69H184.63z"/>
	</g>
	<g>
		<rect x="271.23" y="110.72" class="st2" width="181.45" height="15.95"/>
	</g>
	<g>
		<rect x="271.23" y="152.24" class="st2" width="181.45" height="15.95"/>
	</g>
	<g>
		<rect x="271.23" y="193.76" class="st2" width="181.45" height="15.95"/>
	</g>
	<g>
		<rect x="271.23" y="235.29" class="st2" width="90.71" height="15.95"/>
	</g>
	<polygon class="st10" points="167.75,289.83 156.48,301.1 185.38,330.01 95.46,330.01 95.46,345.96 185.38,345.96 156.48,374.87 
		167.75,386.14 215.91,337.99 	"/>
	<polygon class="st2" points="410.13,341.66 361.94,293.5 313.78,341.66 325.06,352.94 353.97,324.03 353.97,413.96 369.91,413.96 
		369.91,324.02 398.85,352.94 	"/>
</g>
</svg>
