<?xml version="1.0" encoding="utf-8"?>
<!-- Generator: Adobe Illustrator 27.2.0, SVG Export Plug-In . SVG Version: 6.00 Build 0)  -->
<svg version="1.1" id="Layer_1" xmlns="http://www.w3.org/2000/svg" xmlns:xlink="http://www.w3.org/1999/xlink" x="0px" y="0px"
	 viewBox="0 0 512 512" style="enable-background:new 0 0 512 512;" xml:space="preserve">
<style type="text/css">
	.st0{fill:url(#SVGID_1_);}
	.st1{fill:url(#SVGID_00000078764094497198344220000003411288511540599194_);}
	.st2{fill:#0080FF;}
	.st3{fill:url(#SVGID_00000060733240876260287960000015078682549982768275_);}
	.st4{fill:url(#SVGID_00000134962410818828959380000005321119554633245335_);}
	.st5{fill:url(#SVGID_00000007402718880960758350000013004653080733447316_);}
	.st6{fill:url(#SVGID_00000169532090714164897590000017287520239655341741_);}
	.st7{fill:url(#SVGID_00000074431843626110090720000002299583982394095782_);}
	.st8{fill:url(#SVGID_00000088130656645106752400000004718061317326922409_);}
	.st9{fill:url(#SVGID_00000140697138378830163940000015786206720632413335_);}
	.st10{fill:#FFFFFF;}
	.st11{fill:url(#SVGID_00000023995765336387160350000009486412508501775796_);}
	.st12{fill:url(#SVGID_00000088105882021633224680000005075640930447494806_);}
	.st13{fill:url(#SVGID_00000022556344002982567940000009414696570981479562_);}
	.st14{fill:url(#SVGID_00000058580025698745418750000001716192244300404386_);}
	.st15{fill:url(#SVGID_00000054979882596069014080000018027114867869860786_);}
	.st16{fill:url(#SVGID_00000022525697596486271400000003119028634186835605_);}
	.st17{fill:url(#SVGID_00000159453083391187687770000014295526127200897167_);}
	.st18{fill:url(#SVGID_00000060019499558007379540000000159711456434453436_);}
	.st19{fill:url(#SVGID_00000026844751333634335930000006764565063177441974_);}
	.st20{fill:url(#SVGID_00000076568915543517870240000010199439878537819066_);}
	.st21{fill:url(#SVGID_00000082365345009228446930000017135503867419298433_);}
	.st22{fill:url(#SVGID_00000092419553706786654230000005079732770565712026_);}
	.st23{fill:url(#SVGID_00000169543692314813662550000017713376856496783776_);}
	.st24{fill:url(#SVGID_00000000200932415825712960000011285283525842816948_);}
	.st25{fill:url(#SVGID_00000106131119041589718170000016809562403395351969_);}
</style>
<g>
	<linearGradient id="SVGID_1_" gradientUnits="userSpaceOnUse" x1="23.7493" y1="135.3502" x2="449.352" y2="135.3502">
		<stop  offset="0" style="stop-color:#131590"/>
		<stop  offset="1" style="stop-color:#3B60F6"/>
	</linearGradient>
	<path class="st0" d="M441,25.7c-0.53-6.56-5.42-11.2-12.9-10.98c-6.57,0.53-11.49,6.29-10.96,12.88l5.34,67.09
		C379.05,49.96,319.32,23.8,256.03,23.8c-128.09,0-232.28,104.16-232.28,232.19h23.92c0-114.83,93.48-208.27,208.36-208.27
		c59.42,0,115.6,25.49,154.9,69.17L334,110.75c-7.23-0.3-12.37,4.41-12.9,10.98c-0.53,6.59,4.39,12.35,10.96,12.88l104.35,8.32
		c0.34,0.02,0.65,0.03,0.97,0.03c3.15,0,6.2-1.25,8.47-3.5c2.46-2.48,3.74-5.92,3.46-9.41L441,25.7z"/>
	<path class="st2" d="M464.33,255.99c0,114.83-93.45,208.27-208.3,208.27c-59.47,0-115.66-25.48-154.94-69.17l76.94,6.14
		c7.16,0.25,12.37-4.39,12.9-10.98s-4.39-12.35-10.96-12.88l-104.35-8.32c-3.8-0.12-6.95,1-9.41,3.47
		c-2.49,2.48-3.77,5.92-3.49,9.41L71,486.28c0.5,6.26,5.73,11.01,11.93,11.01c0.31,0,0.62-0.02,0.93-0.03
		c6.6-0.53,11.53-6.29,11-12.88l-5.34-67.11c43.42,44.75,103.18,70.91,166.51,70.91c128.06,0,232.22-104.16,232.22-232.19H464.33z"
		/>
</g>
</svg>
