<?xml version="1.0" encoding="utf-8"?>
<!-- Generator: Adobe Illustrator 27.2.0, SVG Export Plug-In . SVG Version: 6.00 Build 0)  -->
<svg version="1.1" id="Layer_1" xmlns="http://www.w3.org/2000/svg" xmlns:xlink="http://www.w3.org/1999/xlink" x="0px" y="0px"
	 viewBox="0 0 512 512" style="enable-background:new 0 0 512 512;" xml:space="preserve">
<style type="text/css">
	.st0{fill:url(#SVGID_1_);}
	.st1{fill:url(#SVGID_00000039100188619169287910000007547384044877593991_);}
	.st2{fill:#0080FF;}
	.st3{fill:url(#SVGID_00000065057147022270703830000018270159618955920568_);}
	.st4{fill:url(#SVGID_00000106121226512622845790000013340768131628688808_);}
	.st5{fill:url(#SVGID_00000003071586055104263900000001506251282010789519_);}
	.st6{fill:url(#SVGID_00000041978928083324404970000017757807290516465580_);}
	.st7{fill:url(#SVGID_00000072980073922194214340000012828667038977128595_);}
	.st8{fill:url(#SVGID_00000104684144141323329040000005120955378610994103_);}
	.st9{fill:url(#SVGID_00000067934513375611654000000016884277553003781504_);}
	.st10{fill:#FFFFFF;}
	.st11{fill:url(#SVGID_00000183955281427852321780000014784383324718738573_);}
	.st12{fill:url(#SVGID_00000039822474175008524450000004745384778353298826_);}
	.st13{fill:url(#SVGID_00000046306151609521045290000008062311208141635728_);}
	.st14{fill:url(#SVGID_00000101061095485785302970000007924351490761729167_);}
	.st15{fill:url(#SVGID_00000163057912855554488500000010109483359964453797_);}
	.st16{fill:url(#SVGID_00000159449481195417784580000015104063326109918872_);}
	.st17{fill:url(#SVGID_00000157266017554985723780000004163166917824393897_);}
	.st18{fill:url(#SVGID_00000037653449754537505460000001232931487821312387_);}
	.st19{fill:url(#SVGID_00000108289491045238228530000006285389429101649324_);}
	.st20{fill:url(#SVGID_00000116237750774924195820000002944934472412601014_);}
	.st21{fill:url(#SVGID_00000176004669866086497070000010197593779355978390_);}
	.st22{fill:url(#SVGID_00000159448717698425640740000007079006759146866100_);}
	.st23{fill:url(#SVGID_00000082363156477100445320000015606295312850734734_);}
	.st24{fill:url(#SVGID_00000171001097852725782340000004741058817448705668_);}
	.st25{fill:url(#SVGID_00000183212108507908063920000006710644173566270643_);}
</style>
<g>
	<g>
		<linearGradient id="SVGID_1_" gradientUnits="userSpaceOnUse" x1="53.3953" y1="229.8579" x2="406.4945" y2="229.8579">
			<stop  offset="0" style="stop-color:#131590"/>
			<stop  offset="1" style="stop-color:#3B60F6"/>
		</linearGradient>
		<path class="st0" d="M53.4,301.63V158.41c0-10.85,8.61-19.46,19.46-19.46h314.5c10.53,0,19.14,8.61,19.14,19.46v143.22
			c0,10.53-8.61,19.14-19.14,19.14H72.85C62.01,320.76,53.4,312.15,53.4,301.63z"/>
	</g>
	<g>
		
			<linearGradient id="SVGID_00000093886349235657505300000015267464766488881307_" gradientUnits="userSpaceOnUse" x1="54.6705" y1="282.9668" x2="511.1179" y2="282.9668">
			<stop  offset="0" style="stop-color:#131590"/>
			<stop  offset="1" style="stop-color:#3B60F6"/>
		</linearGradient>
		<path style="fill:url(#SVGID_00000093886349235657505300000015267464766488881307_);" d="M511.12,122.05v320.25
			c0,37.96-30.62,68.9-68.9,68.9H121.97c-32.85,0-60.6-23.28-67.3-53.91c4.78,0.96,9.89,1.59,15.31,1.59h320.25
			c37.96,0,68.9-30.94,68.9-68.9V69.73c0-5.1-0.64-10.21-1.59-14.99C488.47,61.76,511.12,88.87,511.12,122.05z"/>
	</g>
	<g>
		<path class="st10" d="M197.71,258.08h-52.52l-10.38,24.32h-20.08l47.27-105.05h19.2l47.43,105.05h-20.41L197.71,258.08z
			 M191.28,242.79l-19.82-45.93l-19.65,45.93H191.28z M241.99,177.35h45.93c11.21,0,21.17,2.18,29.86,6.54
			c8.72,4.34,15.46,10.5,20.27,18.46c4.81,7.94,7.2,17.12,7.2,27.54c0,10.4-2.39,19.58-7.2,27.54
			c-4.81,7.96-11.55,14.12-20.27,18.44c-8.68,4.36-18.65,6.54-29.86,6.54h-45.93V177.35z M287.02,265.9c7.71,0,14.5-1.49,20.34-4.43
			c5.85-2.94,10.34-7.16,13.49-12.59c3.15-5.47,4.74-11.8,4.74-18.99c0-7.21-1.59-13.54-4.74-18.99
			c-3.15-5.45-7.65-9.65-13.49-12.61c-5.85-2.94-12.63-4.43-20.34-4.43h-25.5v72.05H287.02z"/>
		<g>
			<path class="st2" d="M184.67,114.51c-3.05,0-6.14-1.17-8.47-3.5c-4.64-4.67-4.64-12.24,0-16.91l45.29-45.29
				c2.24-2.24,5.3-3.5,8.47-3.5l0,0c3.18,0,6.23,1.26,8.47,3.5l45.26,45.29c4.67,4.67,4.64,12.24-0.03,16.91
				c-4.67,4.67-12.24,4.67-16.91,0l-36.79-36.83l-36.82,36.83C190.8,113.34,187.72,114.51,184.67,114.51z"/>
		</g>
		<g>
			<path class="st2" d="M229.96,414.45c-3.18,0-6.23-1.26-8.47-3.5l-45.29-45.29c-4.64-4.67-4.64-12.24,0-16.91
				c4.67-4.67,12.27-4.67,16.95,0l36.82,36.83l36.79-36.83c4.67-4.67,12.24-4.67,16.91,0s4.7,12.24,0.03,16.91l-45.26,45.29
				C236.19,413.19,233.14,414.45,229.96,414.45z"/>
		</g>
		<path class="st2" d="M390.14,24.73c24.79,0,44.95,20.16,44.95,44.95v320.38c0,24.79-20.16,44.95-44.95,44.95H69.75
			c-24.79,0-44.95-20.16-44.95-44.95V69.68c0-24.79,20.16-44.95,44.95-44.95H390.14 M390.14,0.81H69.75
			c-38.04,0-68.87,30.84-68.87,68.87v320.38c0,38.04,30.84,68.87,68.87,68.87h320.38c38.04,0,68.87-30.84,68.87-68.87V69.68
			C459.01,31.64,428.17,0.81,390.14,0.81L390.14,0.81z"/>
	</g>
</g>
</svg>
