<?xml version="1.0" encoding="utf-8"?>
<!-- Generator: Adobe Illustrator 27.2.0, SVG Export Plug-In . SVG Version: 6.00 Build 0)  -->
<svg version="1.1" id="Layer_1" xmlns="http://www.w3.org/2000/svg" xmlns:xlink="http://www.w3.org/1999/xlink" x="0px" y="0px"
	 viewBox="0 0 512 512" style="enable-background:new 0 0 512 512;" xml:space="preserve">
<style type="text/css">
	.st0{fill:url(#SVGID_1_);}
	.st1{fill:url(#SVGID_00000044898629277313600990000001098289446216825261_);}
	.st2{fill:#0080FF;}
	.st3{fill:url(#SVGID_00000031889177204610421670000002757290621778709638_);}
	.st4{fill:url(#SVGID_00000114056356892812167190000001061121830151358595_);}
	.st5{fill:url(#SVGID_00000072279991705130153470000002338505280468594354_);}
	.st6{fill:url(#SVGID_00000054226636003930973810000015870038107364194713_);}
	.st7{fill:url(#SVGID_00000135676560498071513870000002519778972635820712_);}
	.st8{fill:url(#SVGID_00000083787855621161381560000016822354726730910357_);}
	.st9{fill:url(#SVGID_00000016063492971489177130000008393560122826375611_);}
	.st10{fill:#FFFFFF;}
	.st11{fill:url(#SVGID_00000136411221048856903660000000439592131985523601_);}
	.st12{fill:url(#SVGID_00000132800648519410270200000016312539366136235658_);}
	.st13{fill:url(#SVGID_00000060749370246989369910000003802006319162248102_);}
	.st14{fill:url(#SVGID_00000032617595986220270140000017734083506844892323_);}
	.st15{fill:url(#SVGID_00000147202744851533238660000000072229899134430116_);}
	.st16{fill:url(#SVGID_00000051366440202671187290000011349748537147628209_);}
	.st17{fill:url(#SVGID_00000156569743985390200330000009777529934849188540_);}
	.st18{fill:url(#SVGID_00000168082322803607206650000007175069087735560842_);}
	.st19{fill:url(#SVGID_00000052817315631179168970000016370526615648292225_);}
	.st20{fill:url(#SVGID_00000049944812705709977980000015929664235359825581_);}
	.st21{fill:url(#SVGID_00000180359533622205019770000008339824352701685653_);}
	.st22{fill:url(#SVGID_00000049911222647573620350000012737641969191134881_);}
	.st23{fill:url(#SVGID_00000018940973892913913550000008483924732032208573_);}
	.st24{fill:url(#SVGID_00000013882984113186069460000013309837434084656780_);}
	.st25{fill:url(#SVGID_00000027575063195173776020000016944901236056656060_);}
</style>
<g>
	<g>
		<linearGradient id="SVGID_1_" gradientUnits="userSpaceOnUse" x1="59.3551" y1="256" x2="452.6449" y2="256">
			<stop  offset="0" style="stop-color:#131590"/>
			<stop  offset="1" style="stop-color:#3B60F6"/>
		</linearGradient>
		<path class="st0" d="M452.64,176.42V335.9c0,11.8-9.57,21.37-21.37,21.37H81.04c-12.12,0-21.69-9.57-21.69-21.37V176.42
			c0-12.12,9.57-21.69,21.69-21.69h350.23C443.08,154.73,452.64,164.3,452.64,176.42z"/>
	</g>
	<g>
		<path class="st10" d="M225.3,282.69h-49.94l-9.87,23.13h-19.1l44.96-99.9h18.26l45.1,99.9h-19.41L225.3,282.69z M219.19,268.15
			l-18.85-43.67l-18.69,43.67H219.19z M267.42,205.92h43.67c10.66,0,20.13,2.07,28.39,6.22c8.29,4.13,14.71,9.98,19.28,17.55
			c4.57,7.55,6.84,16.29,6.84,26.19c0,9.89-2.27,18.62-6.84,26.19s-10.99,13.42-19.28,17.54c-8.26,4.15-17.73,6.22-28.39,6.22
			h-43.67V205.92z M310.23,290.13c7.34,0,13.78-1.41,19.34-4.21c5.56-2.8,9.84-6.81,12.83-11.98c2.99-5.2,4.51-11.22,4.51-18.06
			c0-6.86-1.51-12.88-4.51-18.06c-2.99-5.18-7.27-9.18-12.83-11.99c-5.56-2.8-12.01-4.21-19.34-4.21h-24.25v68.51H310.23z"/>
	</g>
	<g>
		<g>
			<path class="st2" d="M442.26,24.79c24.79,0,44.95,20.16,44.95,44.95v372.52c0,24.79-20.16,44.95-44.95,44.95H69.74
				c-24.79,0-44.95-20.16-44.95-44.95V69.74c0-24.79,20.16-44.95,44.95-44.95H442.26 M442.26,0.87H69.74
				C31.7,0.87,0.87,31.7,0.87,69.74v372.52c0,38.04,30.84,68.87,68.87,68.87h372.52c38.04,0,68.87-30.84,68.87-68.87V69.74
				C511.13,31.7,480.3,0.87,442.26,0.87L442.26,0.87z"/>
		</g>
	</g>
	<g>
		<g>
			<circle class="st2" cx="73.93" cy="54.78" r="13.02"/>
		</g>
		<g>
			<circle class="st2" cx="124.49" cy="54.78" r="13.02"/>
		</g>
		<g>
			<circle class="st2" cx="175.05" cy="54.78" r="13.02"/>
		</g>
	</g>
	<g>
		<rect x="60.91" y="110.72" class="st2" width="391.77" height="15.95"/>
	</g>
	<g>
		<rect x="59.32" y="419.68" class="st2" width="393.32" height="15.95"/>
	</g>
	<g>
		<rect x="59.32" y="378.15" class="st2" width="393.32" height="15.95"/>
	</g>
</g>
</svg>
