<?xml version="1.0" encoding="utf-8"?>
<!-- Generator: Adobe Illustrator 27.2.0, SVG Export Plug-In . SVG Version: 6.00 Build 0)  -->
<svg version="1.1" id="Layer_1" xmlns="http://www.w3.org/2000/svg" xmlns:xlink="http://www.w3.org/1999/xlink" x="0px" y="0px"
	 viewBox="0 0 512 512" style="enable-background:new 0 0 512 512;" xml:space="preserve">
<style type="text/css">
	.st0{fill:url(#SVGID_1_);}
	.st1{fill:url(#SVGID_00000047761123634456580200000002159199377891626380_);}
	.st2{fill:#0080FF;}
	.st3{fill:url(#SVGID_00000145766802767498786430000003018626773894977978_);}
	.st4{fill:url(#SVGID_00000036970617341430119110000014303208096972080007_);}
	.st5{fill:url(#SVGID_00000113348080334476867290000010149917350960754317_);}
	.st6{fill:url(#SVGID_00000087414328706737494140000002564114079135912331_);}
	.st7{fill:url(#SVGID_00000007388630682859799240000000409897896667642554_);}
	.st8{fill:url(#SVGID_00000071525393851451799450000018312131087507245502_);}
	.st9{fill:url(#SVGID_00000115480787816766426770000009920213485114308773_);}
	.st10{fill:#FFFFFF;}
	.st11{fill:url(#SVGID_00000025425109333143106270000001080027418524618930_);}
	.st12{fill:url(#SVGID_00000084505333869156707970000001355203544992765314_);}
	.st13{fill:url(#SVGID_00000100368823298365514710000005255299488259618437_);}
	.st14{fill:url(#SVGID_00000081630993330398913040000012922284376065989273_);}
	.st15{fill:url(#SVGID_00000037681587709960148790000011410009846763859890_);}
	.st16{fill:url(#SVGID_00000136394137937801084820000001400005391887360163_);}
	.st17{fill:url(#SVGID_00000059279708847932277360000011002821616560435898_);}
	.st18{fill:url(#SVGID_00000183227178448947432460000004995125750631912891_);}
	.st19{fill:url(#SVGID_00000160896825584073579230000013623512871940550294_);}
	.st20{fill:url(#SVGID_00000096753978537307679110000012102029625922501547_);}
	.st21{fill:url(#SVGID_00000068665774779569725950000006837379772109918900_);}
	.st22{fill:url(#SVGID_00000174595328906983915960000002046862459892114346_);}
	.st23{fill:url(#SVGID_00000080892036120168716620000001012058009496381084_);}
	.st24{fill:url(#SVGID_00000080911495804055775910000009997500152517127359_);}
	.st25{fill:url(#SVGID_00000065046561044761034830000007432279272424350645_);}
</style>
<g>
	<path class="st2" d="M393.18,440.62v1.59c0,24.88-20.1,44.97-44.97,44.97H69.75c-24.88,0-44.98-20.1-44.98-44.97V163.75
		c0-24.88,20.1-44.98,44.98-44.98h1.59V94.85h-1.59c-37.96,0-68.9,30.94-68.9,68.9v278.46c0,38.28,30.94,68.9,68.9,68.9h278.46
		c37.96,0,68.9-30.62,68.9-68.9v-1.59H393.18z"/>
	<g>
		<linearGradient id="SVGID_1_" gradientUnits="userSpaceOnUse" x1="71.2946" y1="220.8164" x2="511.1498" y2="220.8164">
			<stop  offset="0" style="stop-color:#131590"/>
			<stop  offset="1" style="stop-color:#3B60F6"/>
		</linearGradient>
		<path class="st0" d="M442.28,24.81c24.79,0,44.95,20.16,44.95,44.95v302.11c0,24.79-20.16,44.95-44.95,44.95H140.17
			c-24.79,0-44.95-20.16-44.95-44.95V69.76c0-24.79,20.16-44.95,44.95-44.95H442.28 M442.28,0.89H140.17
			c-38.04,0-68.87,30.84-68.87,68.87v302.11c0,38.04,30.84,68.87,68.87,68.87h302.11c38.04,0,68.87-30.84,68.87-68.87V69.76
			C511.15,31.72,480.31,0.89,442.28,0.89L442.28,0.89z"/>
	</g>
	
		<linearGradient id="SVGID_00000170987725613717151350000009964697252645938305_" gradientUnits="userSpaceOnUse" x1="174.1485" y1="216.7464" x2="416.5072" y2="216.7464">
		<stop  offset="0" style="stop-color:#131590"/>
		<stop  offset="1" style="stop-color:#3B60F6"/>
	</linearGradient>
	<path style="fill:url(#SVGID_00000170987725613717151350000009964697252645938305_);" d="M400.04,112.4
		c-0.06-0.07-0.03-0.18-0.1-0.24c-0.06-0.06-0.16-0.03-0.22-0.09c-10.28-10.21-24.42-16.54-40.01-16.54H181.08v23.92h178.63
		c4.7,0,9.13,1.06,13.18,2.85L177.65,317.53c-4.67,4.67-4.67,12.27,0,16.95c2.34,2.34,5.39,3.49,8.46,3.49
		c3.07,0,6.12-1.15,8.46-3.49L389.8,139.24c1.75,4.02,2.78,8.42,2.78,13.07v178.64h23.92V152.31
		C416.51,136.76,410.2,122.67,400.04,112.4z"/>
	<g>
		<circle class="st2" cx="135.55" cy="54.84" r="13.02"/>
		<circle class="st2" cx="186.11" cy="54.84" r="13.02"/>
		<circle class="st2" cx="236.67" cy="54.84" r="13.02"/>
	</g>
</g>
</svg>
