<?xml version="1.0" encoding="utf-8"?>
<!-- Generator: Adobe Illustrator 27.2.0, SVG Export Plug-In . SVG Version: 6.00 Build 0)  -->
<svg version="1.1" id="Layer_1" xmlns="http://www.w3.org/2000/svg" xmlns:xlink="http://www.w3.org/1999/xlink" x="0px" y="0px"
	 viewBox="0 0 512 512" style="enable-background:new 0 0 512 512;" xml:space="preserve">
<style type="text/css">
	.st0{fill:url(#SVGID_1_);}
	.st1{fill:url(#SVGID_00000150075764518255940810000005909236124225375105_);}
	.st2{fill:#0080FF;}
	.st3{fill:url(#SVGID_00000081634876402859026000000003189862880830508429_);}
	.st4{fill:url(#SVGID_00000018195309955476061350000008832532389676928684_);}
	.st5{fill:url(#SVGID_00000103245402167678260190000009345477153608186027_);}
	.st6{fill:url(#SVGID_00000160153511074074013890000016876396857503905665_);}
	.st7{fill:url(#SVGID_00000163059645369083177600000013519915857924915633_);}
	.st8{fill:url(#SVGID_00000085229234675157671520000006822582325172617637_);}
	.st9{fill:url(#SVGID_00000004528166579880940760000015506616415162138752_);}
	.st10{fill:#FFFFFF;}
	.st11{fill:url(#SVGID_00000103972145503179720250000005472253552532352921_);}
	.st12{fill:url(#SVGID_00000084497195681303405560000004976435424431492257_);}
	.st13{fill:url(#SVGID_00000047052650227638211630000015663488572334583683_);}
	.st14{fill:url(#SVGID_00000168118236146538774330000004658352605178141081_);}
	.st15{fill:url(#SVGID_00000058556509233196916850000002496246275607783046_);}
	.st16{fill:url(#SVGID_00000132779172815618910170000018010342527801472901_);}
	.st17{fill:url(#SVGID_00000039099143061348224120000004475030119649470096_);}
	.st18{fill:url(#SVGID_00000135679892207203568370000018383061212360974270_);}
	.st19{fill:url(#SVGID_00000057837813922232455640000002809256210730165898_);}
	.st20{fill:url(#SVGID_00000161624112677884798840000002966105058972133010_);}
	.st21{fill:url(#SVGID_00000140702107954950469690000014836247311589399440_);}
	.st22{fill:url(#SVGID_00000134959738317864759420000012319281525598826630_);}
	.st23{fill:url(#SVGID_00000113330784046016570120000014256374944114219147_);}
	.st24{fill:url(#SVGID_00000075138782451914204430000014451186355847103638_);}
	.st25{fill:url(#SVGID_00000065067614316611275800000009421903988477155969_);}
</style>
<g>
	<linearGradient id="SVGID_1_" gradientUnits="userSpaceOnUse" x1="12.66" y1="224.6169" x2="499.34" y2="224.6169">
		<stop  offset="0" style="stop-color:#131590"/>
		<stop  offset="1" style="stop-color:#3B60F6"/>
	</linearGradient>
	<path class="st0" d="M495.13,122.67L421.5,59.9c-5.02-4.3-12.58-3.69-16.85,1.34c-4.3,5.03-3.71,12.57,1.34,16.85l48.92,41.71
		H329.36c-50.56,0-91.69,41.13-91.69,91.7v88.99c0,37.38-30.4,67.78-67.78,67.78H12.66v23.92h157.23c50.57,0,91.7-41.13,91.7-91.7
		V211.5c0-37.38,30.4-67.78,67.77-67.78h125.55l-48.92,41.71c-5.05,4.28-5.64,11.82-1.34,16.85c2.37,2.77,5.73,4.21,9.1,4.21
		c2.74,0,5.51-0.93,7.76-2.87l73.64-62.77c2.68-2.26,4.21-5.59,4.21-9.1S497.81,124.92,495.13,122.67z"/>
	<g>
		<path class="st2" d="M12.66,119.8v23.92h157.89c16.27,0,30.94,5.74,42.74,14.99c3.19-7.34,7.34-14.35,11.8-20.73
			c-15.31-11.48-34.13-18.18-54.54-18.18H12.66z"/>
		<path class="st2" d="M495.13,371.14l-73.64-62.77c-5.02-4.3-12.58-3.72-16.85,1.34c-4.3,5.03-3.71,12.57,1.34,16.85l48.92,41.71
			H330.04c-16.91,0-31.9-6.06-43.7-15.95c-3.19,7.65-7.02,14.67-11.8,21.05c15.31,11.8,34.77,18.82,55.5,18.82h124.87l-48.92,41.71
			c-5.05,4.28-5.64,11.82-1.34,16.85c2.37,2.77,5.73,4.21,9.1,4.21c2.74,0,5.51-0.93,7.76-2.87l73.64-62.77
			c2.68-2.26,4.21-5.59,4.21-9.1C499.34,376.74,497.81,373.4,495.13,371.14z"/>
	</g>
</g>
</svg>
