<?xml version="1.0" encoding="utf-8"?>
<!-- Generator: Adobe Illustrator 27.2.0, SVG Export Plug-In . SVG Version: 6.00 Build 0)  -->
<svg version="1.1" id="Layer_1" xmlns="http://www.w3.org/2000/svg" xmlns:xlink="http://www.w3.org/1999/xlink" x="0px" y="0px"
	 viewBox="0 0 512 512" style="enable-background:new 0 0 512 512;" xml:space="preserve">
<style type="text/css">
	.st0{fill:url(#SVGID_1_);}
	.st1{fill:url(#SVGID_00000123436229807939117710000011336426128011660475_);}
	.st2{fill:#0080FF;}
	.st3{fill:url(#SVGID_00000074424121454152018400000018421033486487319993_);}
	.st4{fill:url(#SVGID_00000069397270114914851310000011456410944023428765_);}
	.st5{fill:url(#SVGID_00000165218224783841245550000004632522631169196213_);}
	.st6{fill:url(#SVGID_00000023997480863554196710000012873089980369664438_);}
	.st7{fill:url(#SVGID_00000161630227571559735110000012259062111332168359_);}
	.st8{fill:url(#SVGID_00000152230406325513297360000013931786487873439162_);}
	.st9{fill:url(#SVGID_00000010997807410438942130000013232665721066696105_);}
	.st10{fill:#FFFFFF;}
	.st11{fill:url(#SVGID_00000152964343914046658470000008581926673309951107_);}
	.st12{fill:url(#SVGID_00000069356985809295966620000010388497646382260622_);}
	.st13{fill:url(#SVGID_00000002381679898027782320000018375033907649887675_);}
	.st14{fill:url(#SVGID_00000023246172980082565340000003156498745068718781_);}
	.st15{fill:url(#SVGID_00000011004038368849019580000012989601367849751221_);}
	.st16{fill:url(#SVGID_00000152945143953635628760000017750588167922685592_);}
	.st17{fill:url(#SVGID_00000048494841909861368740000007950327927815738000_);}
	.st18{fill:url(#SVGID_00000023264105588554842170000001198163412447133336_);}
	.st19{fill:url(#SVGID_00000142162304915246601350000000406970610464365989_);}
	.st20{fill:url(#SVGID_00000060743977444382174600000014738423611038325140_);}
	.st21{fill:url(#SVGID_00000049202126176791837700000011596077287188779142_);}
	.st22{fill:url(#SVGID_00000021822124008366640050000018229595486482211771_);}
	.st23{fill:url(#SVGID_00000101820356961940543500000002504922411061769625_);}
	.st24{fill:url(#SVGID_00000140712726122443879650000017619469811718664092_);}
	.st25{fill:url(#SVGID_00000120546996707932488990000014745723637364555154_);}
</style>
<g>
	<g>
		<path class="st2" d="M441,25.68c-0.53-6.57-5.7-11.37-12.9-10.96c-6.57,0.53-11.49,6.29-10.96,12.9l5.34,67.09
			c-43.43-44.73-103.16-70.89-166.45-70.89C127.94,23.81,23.75,127.97,23.75,256h23.92c0-114.85,93.48-208.27,208.36-208.27
			c59.46,0,115.63,25.49,154.92,69.18l-76.99-6.13c-6.48-0.5-12.34,4.42-12.86,11c-0.53,6.57,4.39,12.34,11,12.86l104.35,8.29
			c0.31,0.03,0.62,0.03,0.93,0.03c3.15,0,6.2-1.25,8.47-3.52c2.46-2.46,3.74-5.89,3.46-9.41L441,25.68z"/>
		<path class="st2" d="M464.33,256c0,114.85-93.45,208.27-208.3,208.27c-59.49,0-115.68-25.49-154.96-69.18l77,6.13
			c6.54,0.72,12.37-4.42,12.86-11c0.53-6.57-4.39-12.34-11-12.86l-104.35-8.29c-3.46-0.34-6.88,1-9.41,3.46
			c-2.46,2.49-3.74,5.92-3.46,9.41L71,486.28c0.5,6.26,5.73,11.03,11.93,11.03c0.31,0,0.62,0,0.93-0.03
			c6.6-0.53,11.53-6.29,11-12.86l-5.34-67.14c43.42,44.75,103.16,70.91,166.51,70.91c128.06,0,232.22-104.16,232.22-232.19H464.33z"
			/>
	</g>
	<g>
		
			<linearGradient id="SVGID_1_" gradientUnits="userSpaceOnUse" x1="-42.8335" y1="-836.5059" x2="221.2845" y2="-836.5059" gradientTransform="matrix(0.7071 0.7071 -0.7071 0.7071 -398.591 784.2757)">
			<stop  offset="0" style="stop-color:#131590"/>
			<stop  offset="1" style="stop-color:#3B60F6"/>
		</linearGradient>
		<path class="st0" d="M399.32,299.31L299.24,399.39c-7.41,7.41-19.42,7.41-26.82,0L112.68,239.65c-7.61-7.61-7.61-19.62-0.2-27.02
			l100.09-100.09c7.61-7.61,19.62-7.61,27.22,0l159.74,159.74C406.93,279.69,406.93,291.7,399.32,299.31z"/>
	</g>
	<g>
		<path class="st10" d="M219.91,253.44l-31.34-31.34l-20.71,8.32l-11.99-11.99l90.9-34.48l11.46,11.46l-34.39,91l-12.18-12.18
			L219.91,253.44z M225.19,240.47l15.58-39.24l-39.13,15.68L225.19,240.47z M294.51,231.69l27.41,27.41
			c6.69,6.69,11.33,13.94,13.92,21.72c2.61,7.79,2.96,15.49,1.08,23.11c-1.87,7.61-5.93,14.51-12.14,20.73
			c-6.2,6.2-13.11,10.26-20.73,12.14c-7.62,1.88-15.32,1.53-23.1-1.09c-7.78-2.58-15.03-7.23-21.72-13.92l-27.41-27.41
			L294.51,231.69z M268.54,311.4c4.6,4.6,9.54,7.76,14.78,9.5c5.24,1.73,10.45,1.9,15.57,0.54c5.14-1.38,9.87-4.21,14.16-8.51
			c4.3-4.3,7.13-9.03,8.51-14.16c1.37-5.13,1.2-10.32-0.53-15.58c-1.73-5.24-4.89-10.18-9.5-14.78l-15.22-15.22l-43,43L268.54,311.4
			z"/>
	</g>
</g>
</svg>
