<?xml version="1.0" encoding="utf-8"?>
<!-- Generator: Adobe Illustrator 27.2.0, SVG Export Plug-In . SVG Version: 6.00 Build 0)  -->
<svg version="1.1" id="Layer_1" xmlns="http://www.w3.org/2000/svg" xmlns:xlink="http://www.w3.org/1999/xlink" x="0px" y="0px"
	 viewBox="0 0 512 512" style="enable-background:new 0 0 512 512;" xml:space="preserve">
<style type="text/css">
	.st0{fill:url(#SVGID_1_);}
	.st1{fill:url(#SVGID_00000152948841375692929070000007718973622025791882_);}
	.st2{fill:#0080FF;}
	.st3{fill:url(#SVGID_00000040563147813109119760000018176519256001896376_);}
	.st4{fill:url(#SVGID_00000163757416797238133310000007457267579902144143_);}
	.st5{fill:url(#SVGID_00000162331361759871722310000000428633102902228880_);}
	.st6{fill:url(#SVGID_00000066495889670834478720000005840702335586846373_);}
	.st7{fill:url(#SVGID_00000085964721486073973760000014130119850093938337_);}
	.st8{fill:url(#SVGID_00000131347054650677211050000012851454437428099486_);}
	.st9{fill:url(#SVGID_00000083773401503321779780000002822863693441084832_);}
	.st10{fill:#FFFFFF;}
	.st11{fill:url(#SVGID_00000058583730535498427790000003347308529540438667_);}
	.st12{fill:url(#SVGID_00000083046445861679728440000015323386422079542672_);}
	.st13{fill:url(#SVGID_00000034050030366943296010000003636260505273040799_);}
	.st14{fill:url(#SVGID_00000146465375129689491530000014742977647019692426_);}
	.st15{fill:url(#SVGID_00000151534884664658478580000013463250911381732541_);}
	.st16{fill:url(#SVGID_00000062872260291977786560000016936304227994051259_);}
	.st17{fill:url(#SVGID_00000021805183552731989830000002204769737302725560_);}
	.st18{fill:url(#SVGID_00000113353900849221767530000003441382383193589693_);}
	.st19{fill:url(#SVGID_00000149355106826522878090000014871091493718061984_);}
	.st20{fill:url(#SVGID_00000065065378708266900970000012867559682218775938_);}
	.st21{fill:url(#SVGID_00000116942358411600436760000011673294895217369246_);}
	.st22{fill:url(#SVGID_00000022535167158586409620000015673902864655722911_);}
	.st23{fill:url(#SVGID_00000044159913928592347240000012136859336474522271_);}
	.st24{fill:url(#SVGID_00000007412311913967383530000015475997464146586794_);}
	.st25{fill:url(#SVGID_00000073700146647512108980000017715655553789429920_);}
</style>
<g>
	<g>
		<linearGradient id="SVGID_1_" gradientUnits="userSpaceOnUse" x1="59.3551" y1="256" x2="452.6449" y2="256">
			<stop  offset="0" style="stop-color:#131590"/>
			<stop  offset="1" style="stop-color:#3B60F6"/>
		</linearGradient>
		<path class="st0" d="M452.64,176.42V335.9c0,11.8-9.57,21.37-21.37,21.37H81.04c-12.12,0-21.69-9.57-21.69-21.37V176.42
			c0-12.12,9.57-21.69,21.69-21.69h350.23C443.08,154.73,452.64,164.3,452.64,176.42z"/>
	</g>
	<g>
		<g>
			<path class="st2" d="M442.26,24.79c24.79,0,44.95,20.16,44.95,44.95v372.52c0,24.79-20.16,44.95-44.95,44.95H69.74
				c-24.79,0-44.95-20.16-44.95-44.95V69.74c0-24.79,20.16-44.95,44.95-44.95H442.26 M442.26,0.87H69.74
				C31.7,0.87,0.87,31.7,0.87,69.74v372.52c0,38.04,30.84,68.87,68.87,68.87h372.52c38.04,0,68.87-30.84,68.87-68.87V69.74
				C511.13,31.7,480.3,0.87,442.26,0.87L442.26,0.87z"/>
		</g>
	</g>
	<g>
		<g>
			<circle class="st2" cx="73.93" cy="54.78" r="13.02"/>
		</g>
		<g>
			<circle class="st2" cx="124.49" cy="54.78" r="13.02"/>
		</g>
		<g>
			<circle class="st2" cx="175.05" cy="54.78" r="13.02"/>
		</g>
	</g>
	<g>
		<g>
			<g>
				<path class="st10" d="M390.5,251.31l-46.23-26.69c-3.61-2.09-8.13,0.52-8.13,4.69v53.38c0,4.17,4.52,6.78,8.13,4.69l46.23-26.69
					C394.11,258.61,394.11,253.39,390.5,251.31z"/>
			</g>
			<g>
				<path class="st10" d="M406.57,288.04L406.57,288.04c-3.55,0-6.42-2.88-6.42-6.42v-51.23c0-3.55,2.88-6.42,6.42-6.42l0,0
					c3.55,0,6.42,2.88,6.42,6.42v51.23C413,285.16,410.12,288.04,406.57,288.04z"/>
			</g>
		</g>
		<g>
			<path class="st10" d="M112.88,286.87c-4.52-1.37-8.1-3.18-10.75-5.48l4.05-9.06c2.59,2.02,5.73,3.71,9.5,4.98
				c3.74,1.28,7.51,1.93,11.28,1.93c4.67,0,8.16-0.75,10.47-2.24s3.49-3.49,3.49-5.95c0-1.78-0.65-3.27-1.96-4.45
				c-1.28-1.15-2.9-2.09-4.89-2.74c-1.96-0.65-4.67-1.4-8.1-2.24c-4.8-1.12-8.66-2.27-11.65-3.43c-2.96-1.12-5.51-2.9-7.63-5.33
				c-2.12-2.43-3.21-5.73-3.21-9.87c0-3.46,0.97-6.63,2.83-9.47c1.9-2.87,4.73-5.11,8.57-6.79c3.8-1.68,8.44-2.52,13.99-2.52
				c3.83,0,7.6,0.47,11.31,1.43c3.74,0.97,6.95,2.34,9.63,4.14l-3.68,9.1c-2.77-1.62-5.64-2.87-8.63-3.71s-5.92-1.25-8.72-1.25
				c-4.64,0-8.07,0.78-10.31,2.34c-2.24,1.56-3.36,3.61-3.36,6.2c0,1.81,0.65,3.27,1.93,4.42c1.28,1.12,2.93,2.02,4.89,2.68
				c1.99,0.65,4.67,1.4,8.1,2.24c4.67,1.09,8.5,2.21,11.53,3.4c2.99,1.15,5.54,2.93,7.69,5.33c2.12,2.4,3.18,5.64,3.18,9.72
				c0,3.49-0.93,6.63-2.83,9.44c-1.87,2.83-4.73,5.08-8.6,6.76c-3.83,1.68-8.5,2.52-14.02,2.52
				C122.1,288.96,117.4,288.27,112.88,286.87z"/>
			<path class="st10" d="M185.68,261.7l-9.97,10.25v16.1H164V225.1h11.71v32.27l31.12-32.27h13.11l-26.45,28.16l28.07,34.79h-13.67
				L185.68,261.7z"/>
			<path class="st10" d="M229.57,225.1h11.71v62.95h-11.71V225.1z"/>
			<path class="st10" d="M298.44,227.78c4.05,1.81,7.13,4.39,9.28,7.76c2.18,3.36,3.24,7.35,3.24,11.96c0,4.55-1.06,8.53-3.24,11.9
				c-2.15,3.4-5.23,5.98-9.28,7.79s-8.82,2.71-14.27,2.71h-14.2v18.16h-11.71V225.1h25.92C289.63,225.1,294.39,226,298.44,227.78z
				 M295.23,256.75c2.65-2.15,3.96-5.23,3.96-9.25s-1.31-7.1-3.96-9.28c-2.65-2.15-6.51-3.24-11.59-3.24h-13.67v25.01h13.67
				C288.72,259.99,292.59,258.9,295.23,256.75z"/>
		</g>
	</g>
</g>
</svg>
