<?xml version="1.0" encoding="utf-8"?>
<!-- Generator: Adobe Illustrator 27.2.0, SVG Export Plug-In . SVG Version: 6.00 Build 0)  -->
<svg version="1.1" id="Layer_1" xmlns="http://www.w3.org/2000/svg" xmlns:xlink="http://www.w3.org/1999/xlink" x="0px" y="0px"
	 viewBox="0 0 512 512" style="enable-background:new 0 0 512 512;" xml:space="preserve">
<style type="text/css">
	.st0{fill:url(#SVGID_1_);}
	.st1{fill:url(#SVGID_00000000209414449053126500000008323720773918677679_);}
	.st2{fill:#0080FF;}
	.st3{fill:url(#SVGID_00000169549261474457845480000009911754693322187941_);}
	.st4{fill:url(#SVGID_00000170993370657866197340000000017732978386498747_);}
	.st5{fill:url(#SVGID_00000028302284885593562080000007987084648989362359_);}
	.st6{fill:url(#SVGID_00000159428090907940591520000001732454536048641212_);}
	.st7{fill:url(#SVGID_00000137848684576738191210000013725072650103992250_);}
	.st8{fill:url(#SVGID_00000098189071131799498460000010686927027319929003_);}
	.st9{fill:url(#SVGID_00000054261295287836461580000003069704031422099643_);}
	.st10{fill:#FFFFFF;}
	.st11{fill:url(#SVGID_00000137840884571454189830000013980477679216370615_);}
	.st12{fill:url(#SVGID_00000170977279109012536960000008271862635453733555_);}
	.st13{fill:url(#SVGID_00000183969115877803988380000004603106268770891650_);}
	.st14{fill:url(#SVGID_00000093867292454216759660000014277711743211077018_);}
	.st15{fill:url(#SVGID_00000122722248080297890320000009807661280664837285_);}
	.st16{fill:url(#SVGID_00000079456353812556669620000003487588272691364746_);}
	.st17{fill:url(#SVGID_00000152981422701145019360000000283697671524101514_);}
	.st18{fill:url(#SVGID_00000104704583480412281620000000701207246205237151_);}
	.st19{fill:url(#SVGID_00000134950847560450193430000007528477103743851667_);}
	.st20{fill:url(#SVGID_00000016790708652130002490000009500290194993031069_);}
	.st21{fill:url(#SVGID_00000102507796882878948330000005984948908338784393_);}
	.st22{fill:url(#SVGID_00000148654516218989282040000006476864464951394976_);}
	.st23{fill:url(#SVGID_00000155114657430283140300000000100699579946002338_);}
	.st24{fill:url(#SVGID_00000030479438483931310120000009790424136721183876_);}
	.st25{fill:url(#SVGID_00000180359398831459180310000012760855822392499634_);}
</style>
<g>
	<g>
		<linearGradient id="SVGID_1_" gradientUnits="userSpaceOnUse" x1="216.6902" y1="256" x2="295.3098" y2="256">
			<stop  offset="0" style="stop-color:#131590"/>
			<stop  offset="1" style="stop-color:#3B60F6"/>
		</linearGradient>
		<path class="st0" d="M228.67,429.76c-0.67,0-1.34-0.05-2.01-0.17c-6.51-1.09-10.9-7.27-9.8-13.78l54.7-323.58
			c1.11-6.51,7.43-10.93,13.78-9.8c6.51,1.09,10.9,7.27,9.8,13.78l-54.7,323.58C239.46,425.63,234.4,429.76,228.67,429.76z"/>
	</g>
	<g>
		<path class="st2" d="M154.55,404.12c-2.76,0-5.51-0.93-7.76-2.87L29.43,301.2C16.16,289.91,8.56,273.43,8.56,256
			c0-17.43,7.6-33.91,20.87-45.21l117.36-100.04c5-4.3,12.58-3.68,16.85,1.34c4.3,5.03,3.69,12.57-1.34,16.85L44.95,229
			c-7.93,6.76-12.46,16.6-12.46,27.01c0,10.4,4.53,20.25,12.46,26.99L162.3,383.06c5.03,4.28,5.64,11.82,1.34,16.85
			C161.29,402.69,157.93,404.12,154.55,404.12z"/>
	</g>
	<g>
		<path class="st2" d="M357.45,404.12c-3.38,0-6.74-1.43-9.1-4.21c-4.3-5.03-3.69-12.57,1.34-16.85l117.36-100.05
			c7.93-6.76,12.46-16.6,12.46-27.01c0-10.4-4.53-20.25-12.46-26.99L349.7,128.94c-5.03-4.28-5.64-11.82-1.34-16.85
			c4.3-5.02,11.87-5.62,16.85-1.34l117.36,100.05c13.27,11.29,20.87,27.77,20.87,45.2c0,17.43-7.6,33.91-20.87,45.21L365.21,401.25
			C362.97,403.18,360.21,404.12,357.45,404.12z"/>
	</g>
</g>
</svg>
