<?xml version="1.0" encoding="utf-8"?>
<!-- Generator: Adobe Illustrator 27.2.0, SVG Export Plug-In . SVG Version: 6.00 Build 0)  -->
<svg version="1.1" id="Layer_1" xmlns="http://www.w3.org/2000/svg" xmlns:xlink="http://www.w3.org/1999/xlink" x="0px" y="0px"
	 viewBox="0 0 512 512" style="enable-background:new 0 0 512 512;" xml:space="preserve">
<style type="text/css">
	.st0{fill:url(#SVGID_1_);}
	.st1{fill:url(#SVGID_00000021799269574225319980000007286696800486998168_);}
	.st2{fill:#0080FF;}
	.st3{fill:url(#SVGID_00000067196853614110947570000003220250283539260571_);}
	.st4{fill:url(#SVGID_00000106839680872802108430000002302948175777676444_);}
	.st5{fill:url(#SVGID_00000128478605072851972520000000589339279314283429_);}
	.st6{fill:url(#SVGID_00000130625722074968773640000011595296976062445750_);}
	.st7{fill:url(#SVGID_00000149376418291393266620000008475968514923025848_);}
	.st8{fill:url(#SVGID_00000089558477155307268430000014546347734767865993_);}
	.st9{fill:url(#SVGID_00000150082237439088064030000008633697297631733903_);}
	.st10{fill:#FFFFFF;}
	.st11{fill:url(#SVGID_00000123399722104656328500000004116607366677260478_);}
	.st12{fill:url(#SVGID_00000116217277751889453790000004293965327720668320_);}
	.st13{fill:url(#SVGID_00000069363276667361544210000008749150302877813389_);}
	.st14{fill:url(#SVGID_00000164475268979350297000000009560635832353051040_);}
	.st15{fill:url(#SVGID_00000160893997043986247630000011760846421189987514_);}
	.st16{fill:url(#SVGID_00000013172122097639680570000003635048550186702268_);}
	.st17{fill:url(#SVGID_00000105390295715457380340000003989958574196976771_);}
	.st18{fill:url(#SVGID_00000016785632038855540860000008236918561819051940_);}
	.st19{fill:url(#SVGID_00000023272092040453689550000001576258615541776770_);}
	.st20{fill:url(#SVGID_00000173860167979352246100000017228933408730035101_);}
	.st21{fill:url(#SVGID_00000000195934215595937550000008231949523771653763_);}
	.st22{fill:url(#SVGID_00000148623407647213279050000002764548402102303650_);}
	.st23{fill:url(#SVGID_00000048468595772075556410000017885658232978949310_);}
	.st24{fill:url(#SVGID_00000132773257127619945920000018166972724797229228_);}
	.st25{fill:url(#SVGID_00000023993183958578825770000013000799175270691732_);}
</style>
<g>
	<g>
		<linearGradient id="SVGID_1_" gradientUnits="userSpaceOnUse" x1="59.1955" y1="255.8404" x2="452.4853" y2="255.8404">
			<stop  offset="0" style="stop-color:#131590"/>
			<stop  offset="1" style="stop-color:#3B60F6"/>
		</linearGradient>
		<path class="st0" d="M452.49,176.26v159.49c0,11.8-9.57,21.37-21.37,21.37H80.89c-12.12,0-21.69-9.57-21.69-21.37V176.26
			c0-12.12,9.57-21.69,21.69-21.69h350.23C442.92,154.57,452.49,164.14,452.49,176.26z"/>
	</g>
	<g>
		<path class="st2" d="M442.26,24.79c24.79,0,44.95,20.16,44.95,44.95v372.52c0,24.79-20.16,44.95-44.95,44.95H69.74
			c-24.79,0-44.95-20.16-44.95-44.95V69.74c0-24.79,20.16-44.95,44.95-44.95H442.26 M442.26,0.87H69.74
			C31.7,0.87,0.87,31.7,0.87,69.74v372.52c0,38.04,30.84,68.87,68.87,68.87h372.52c38.04,0,68.87-30.84,68.87-68.87V69.74
			C511.13,31.7,480.3,0.87,442.26,0.87L442.26,0.87z"/>
	</g>
	<g>
		<circle class="st2" cx="73.93" cy="54.78" r="13.02"/>
		<circle class="st2" cx="124.49" cy="54.78" r="13.02"/>
		<circle class="st2" cx="175.05" cy="54.78" r="13.02"/>
	</g>
	<path class="st10" d="M302.6,249.56l-61.84-35.7c-4.83-2.79-10.87,0.7-10.87,6.28v71.41c0,5.58,6.04,9.07,10.87,6.28l61.84-35.7
		C307.43,259.33,307.43,252.35,302.6,249.56z"/>
</g>
</svg>
